<mxfile host="app.diagrams.net" modified="2022-03-16T04:52:35.212Z" agent="5.0 (Windows NT 10.0; Win64; x64) AppleWebKit/537.36 (KHTML, like Gecko) Chrome/99.0.4844.51 Safari/537.36" etag="4o3BM3oTuALGaqii-NOZ" version="17.1.3" type="github">
  <diagram id="H7P_JROA_SEdTUbOE0hm" name="Page-1">
    <mxGraphModel dx="780" dy="1136" grid="1" gridSize="10" guides="1" tooltips="1" connect="1" arrows="1" fold="1" page="1" pageScale="1" pageWidth="827" pageHeight="800" background="#2D4E70" math="0" shadow="0">
      <root>
        <mxCell id="0" />
        <mxCell id="1" parent="0" />
        <mxCell id="Hm4XUHoT0N1f3xxSEZ0I-91" value="" style="group;fillColor=default;" vertex="1" connectable="0" parent="1">
          <mxGeometry x="35" y="39" width="420" height="600" as="geometry" />
        </mxCell>
        <mxCell id="Hm4XUHoT0N1f3xxSEZ0I-90" value="" style="rounded=0;whiteSpace=wrap;html=1;shadow=0;glass=0;labelBackgroundColor=none;sketch=0;fontFamily=Helvetica;fontSize=20;strokeColor=#4D3A3A;strokeWidth=3;fillColor=none;" vertex="1" parent="Hm4XUHoT0N1f3xxSEZ0I-91">
          <mxGeometry width="420" height="600" as="geometry" />
        </mxCell>
        <mxCell id="Hm4XUHoT0N1f3xxSEZ0I-1" value="" style="shape=image;verticalLabelPosition=bottom;labelBackgroundColor=default;verticalAlign=top;aspect=fixed;imageAspect=0;image=data:image/png,iVBORw0KGgoAAAANSUhEUgAAA1UAAATKCAYAAAC5aE7eAAAAAXNSR0IArs4c6QAAAARnQU1BAACxjwv8YQUAAAAJcEhZcwAAFiUAABYlAUlSJPAAAABCaVRYdE1pY3Jvc29mdC5HYW1lRFZSLklkAAAAZW4tdXMAAGIzMTI2ZWFiLWY2NTYtNDdmZS1iYTgwLWVhYzlhOTlkM2Q2Za6L69IAAABGaVRYdE1pY3Jvc29mdC5HYW1lRFZSLlRpdGxlAAAAZW4tdXMAAEpld2VscyBhbmQgU3RvbmVzIC0gTGVldENvZGUgLSBDaHJvbWUjsfaIAAAANGlUWHRNaWNyb3NvZnQuR2FtZURWUi5BdXRob3IAAABlbi11cwAATWljcm9zb2Z0IEdhbWUgRFZSii6fewAAADRpVFh0TWljcm9zb2Z0LkdhbWVEVlIuQmFzaWMAAABlbi11cwAAMCEhISEhITAhITAhITEzMzchIX/NFAMAAABlaVRYdE1pY3Jvc29mdC5HYW1lRFZSLkJhc2ljSGFzaAAAAGVuLXVzAABhMDA0YzI3NzEwYzYwZmI0YjJlNTljNzQyYmNlMWIxYzgzNzY0Y2IxNjY1NWM5ZWRiYmVhOWVhOWEwODZlN2M0GI3JiQAAAL1pVFh0TWljcm9zb2Z0LkdhbWVEVlIuRXh0ZW5kZWQAAQBlbi11cwAAeJx9zDsOwjAQRdG9TB0jf8AkrmnS0JAKRDHxTESkxEa2QUiIvZOwAOp73nvDFD1OLYGD3ihtGXsx2J0V2/3AosdaCkbfYNOQIctQwT1FzzkfceZl5G8pzrzh15qenPIYAzhVQS6YSjf+kJZaC2mEsp00Tmkn6/PCOdB/MDONeHgkLMtrG07sY6AMTq6pIGFBcJfr5wvZLzsJGWOG1wAAAGBpVFh0TWljcm9zb2Z0LkdhbWVEVlIuSGFzaAAAAGVuLXVzAAA5OGJiNGNhZGI2NGNhYWQ3ODJmOTE1ZDIyYzZjNDRmY2E0MGE4ZGYxYjgwN2UyODdjM2Q4MzFmOWQ1YzY4YjU28wpEyQAA/N9JREFUeF7s3QtcFFXfB/CfgqAi5g0vqKSgUoI3xEQlRc1rYY9KPl5K81JmZtmTT5k+ZT49mpW+aWZmqaUlGaKWlNdUNFRMFFGhMFBCRQUVFS+ACO85szOwLLuwywKC/r4fV3ZmZ2fncs7M+c85c6ZSjgAiIiIiIiIqFgZVREREFVl2DrKiE3H3/BXkZGapI0tOJTtbVG5YG1U8XACbyupYIiLSx6CKiIioAsr6KwnpGw4gc9exUgmmCrC1gX2vtqg6pAts3RurI4mISGJQRUREVMHc+vpX3F69Wx0qe9VG9UD1CX3VISIiYlBFRERUgdyYF4yMbZHq0L1j37sdavxnmDpERPRgY+NoIiKiCuLW0i3lIqCSMnZG4ebin9UhIqIHG4MqIiKiCuDO4XjcDgpTh8oH5Z6ug7HqEBHRg4tBFRERUQVw+4ff1HfG1Vg1B3V3z0GtN13VMZIvaobMQZ3/81WHS176D+Ur0CMiuhfKbVAVGhqKnj17Ki/5noiI6EF1N+kK7hz6Sx0qnE3vAahehp3z3Yk8hbt/J6tDREQPpnIZVCUkJOQGU/I1e/Zs9RMiIqIHT1bUafVdEW6kIRvOqPqGb5me4O+Yu3xERPepchdUyYCqefPm6pCOHEdERPSgunvmkvquKCnI2JmCSh184TBAHaWvsQ9qrHxHaSYoX3W+8Id94z54aLNeE8GXJyufPfSybrDGSjHtV8Zmlsf85SMiuj+Vq6DKWEAlff311+o7IiKiB0/OrQz1XdFyPtqCzAuOsBs1DHbqOJ3aqP7eANjZxOLGszOR+r8o5LTwQfWx8bhzDqjUyAVVxFTVPeoj53YWbFrIIKsPbBqKoOmvcGUOpuTcylTfERE9mMpNUCUDqrFjx6pDeXbv3g0/Pz91iIiI6MFTqbq9+s4csUhbHYvsxh6optY26fjBroUtKrm0Q43v5qD2f9qhso2Ydx1npB9LAhrWh31jX9i63MadyFRUetgV9kNcYFMtFXd3parzMK5S9fzhGxHRg6bcBFUyoDLskIIBFREREWDTtJ76zkxbQpAemQXbp3wg4qZ8svcH4XLPmbmvK/8KQ/aGJNxFbdiMchXTpyBrYzKy69SBXfvaqHQhCekR6pdNsHj5iIjuM+UiqOrZvWuBgOrrNzrCr8pG4MJ+dQwREdGDybZdwabxhUvF7QURyLKpjco11FGIQtY5ceL37okaA5yBxq6o9t+JcHxGfHQuCncv2MLGzw2VEhNxOyIRd2/URpUOtZF9Khp3dDMwqYrFy0dEdH+550FVz24dEfrbAXVI5+sJNfF82zNA/Fpg+2Bg32vADTFMRET0ALJxroMqnVqqQ2Y6twW3dqaoA9Ip3Pg8DHeu1Ib9m5NR97vxqPYIcFfpuO8UMk+loVI1W9yN3iGGw5CVCFSqkY67R6PkBCZV6eAKm4frq0NERA+mSjmC+r7M9ezUAqER8eqQzvOPV1WCqgJqNAXc/gm0+7c6goiI6MFx53A8rk9bqQ6VH47zRsOus7s6RET0YLpnQdXYJ1vjm81/qEM6uQGVDKBM1Uy1m8bAioiIHki3lm7B7aAwdejeqzqkCxymPKUOEVFpy/yhlfquZNj986T6jqx1T5r/vTepb4GAys/TUdd1+uiLwJAI3UsGUDLA0hc1H9jgbVVzQNnT4DfffKMOlR9ymQzvLSuKti7aq6yf6XUvfpOI6EFVfdIA2PfroA7dW/a92zGgIiJSlXlN1TcfTcLYt75Qh3T82tXD7qP67b71yOBJ3ldlGETJYKvvxoJBlxnks7BkIFDeehesVKkSmjVrhtOnC38yvRZIzZ49Wx2Tx5zvl5T33ntPWYZZs2Yp78laKdg6dyFWXPTArEUj4amOpXvsWCCeWRGN/uPnYHxbdVyhuB9Jk4JdCz7D8qvtMeM/g+FpSa/oRbj19a+4vXq3OlT2qo3qgeoT+qpD9GArvXROBd09sVh9VzJsPKeo78haZRpUfbPoPxg7dY46pFNoQKWRAZXstELWUulr2E0EVhvUAfPJ4EUqT0GVDJS0Bx8XtktkTVbPnj3VIV0QJcn1kPOQw2X1sGQtqHr++efviwc0n/h6JmYfVQcMNeiDJTP8ULq3YrMwblw0VrwWiK3qkMahpjM69x6A0d1d4VCade4MqspE8raFmLwZGD9jKvo3UEdWeKVb2Mz6KwnpGw4gc9cx5GRmqWNLka0N7Hu1VZr82bo3Vkda5s75aOzcGoqQv5KRfFNvmatURedBr2Ba99rqCCprujxYsDzmUNMRzZu0Q+9+vvBt5qiO1cegqixlJx9U35WMyvU7q+/Mk5McibvHViD7Wrg4CF1Xx0rjUPmf02GrDj2IyiyoCt2wBD2HvqIO6TRrUB2nL9xUh8wQ9XHBwEo2F7RQRQ2q9AMqGTzJGiIZ0Nwr92dQVRtenVwKBk+12mH4U+5wUAdLBwvjxqlBVR0X9HfTClzpOHUsFiczRFnMpQ8Wvi4C3tIKrBhUlYkSC6ouRmH12h0413oM3u7jpI68z2XnICs6EXfPXymV4KqSnS0qN6yNKh4ugE0xM1p2Gk6sW4a5+1Nxp7ItmjRzh2ddrfiVjrN//Q10fQmz+pXhPivTtJKFkzsC8f1uRwydKwIPdWx5osuDaWjl6Q7XaupIsdzJifE4fjFd6Va/iosv5rw8AM1zP6eylHPzHO78nHdhvSRUeWo3KjmYd5Ek+49PkHVsqTgouAEP9RXHBvWDzHjk3PBA5aGTcoOq7LgQ3P3zc8BtC6o8qo68z5VJUJVwaD2aPxagDuk0q2+H0xdFichS8rlVx0RgdSNRd8+V23D1A/NV1KBKa7Yol1ku+712fwZV97IgzMK4cWpQ1X4k1o31UMdJ6TgZ+BlmHkxF52emY5qvsSuoJYBBVZkosaBK3V+tBk7FnLIsoFMh0sXx9WNxfE1H807DMO2f7VC/ivrRvVSmaaX8HxcKzYN3UnHkhxWYfygVaNwHC6eV4oUsMin79AZk/T5dHSoZto/NQ+XmQ9ShQtyNwZ2N/0BOlemw6T0ONrnPvzPu7sEXcDdhDyq1PfnABFVlkiXGvvCS+k6n2AGV1LCrrsmf7MiiGAFVccl7mGQQIWuKxo4dqwybQ9YuWfo9Oa18ye9p5LDWvK84AZX8rpyffGnLYU6nGIbfs2Tdte9q35Pv5TiiklEVrYb6wVe8OxgdW+TDSYno3ri6dxXmioBKBi8fPVtOAiqyTJXa8Hp2Gj72q40753ZgRVia+gGVJVlTpbHt+a1VL612Kjvld+VvkVKikXNX/G3oX2RA9aAq9Zoqw44pmtWzwdfLFsFvyGR1TNmzpKZKBgEyIDAWgMgAZ8yYMUqwYMjS78nptZoqfbLTCTm9NbVr8ndMdWphavklGTzJdTBGflcuh5zGWE1VcX/zXjKrpip2I174PAJ32o/EV2M9kFc2SEPYonlYlOCOaXNHo3O1/Ff9Hr8eiuWBu3HwSpba9MUbzz3nD6866tcVhV3JzELyoS1YseNoXjMMByd09hmAMU+5o1a+yyN6NTvDHbH160Csjk1D86emYU4ftflcdhpO7w3B6u2xOCHva5DL9EhPvDrCD82NPCbu3jJVUyWp2wx697zp1SwNrxGKpV/vwMHrzhj/zmT0r6d8SXfV9ccgrI1Mwmnlvg5b1GrghkGD/OHvaXBPh35NlXMUVq/ahK2Jch+I77i4Y8TgIejlWlWdWCpkP5q73fXXofIWfLouHEeuZqGKvRP8R4/HCE9H4EoUvv92C0JOpSnL0qS1mM9oMR/DZjm3kxC2cSO+P5qEZHktq0pVNG/aE6+95ovi3RVTOoxfJc+flnet3YDVx1JwMxtwqOOO4c8NQ//cba9Oqw7lcco/z+LsA7109PzTjljzUyzcB0/HLL+CtaO644g4DnwkjgP21qWFkz+8j5n7HQvWHFwPxwfvhOBI22FYN76dOlJSf8/BH9+85lPKzZXNlYjvZyzDBntfLHxnABpbdCnXkuOe3rFgejucXR+Ebw8m4qz4UhUHZ/QfOhKjO2p5u4TTinD1xBas2hSBg+pyyns+e/1zNEaLvKpL20buHTd6TLt3zKotzojCoulBCHPSv8/YVDpPx7kDW7B881HEXhfnPuU464wRz05ELxd1EtXNv8KwelMYDp5NU/J3FXtHuPuNxqyBzsrnhZ2fjX9m3m8Xtt/Ko6zdzyn3VMmASDbbs4ZsRiiDNHlPlQyyinRhHTL3zASct6DK427QlUqN0KYrwOCeqzspyDowTwR1e8SKyXuzRKaqOgiVHpkEW3cng/lH4s4P/0RO3R9g51MTWWFvIPtaDNB8H+we09Uy54jhu4c+R/aV7WJAjLDpgEpNZ8HGuzUq2yiTlLpSr6nas0dsLD2yQG0qoLp27RoSExOL9bp8+bI6l5KjBTpaYCSDB+0+JhkcyM9l4GAsQCju9yQZoMiXFlDpB2aWBlSyhksLbuS8tOWQ89GWQ05jSC6bFlBp39O/h0t+11SNlf5vyt8x9pumgrVyz30AJrWtiptHd2Cn3u18d46FYPkpwGvwYCWg0pd6NBBTl4XjVus+mDZ6MMZ3dEZmgigUvb8EW826JTANB7/6AJO/C0dsZTeMHj4Mbw/vg/5O6Ti4czVenh+KZHESKug2Dq5ehhUioJInC2TL4EFKx4lVC/GmKBhmthSF69HDMKmnG6r8tQNvzgvEidvqZBVCGpLlsbhuDRS4vf1mBJYvlgVhOSC2gLzCJl0VhYJZ8/HB/iRUUdf/tYEecL0di9VfzcfMbcY7zsk8G4qZ8zYgts7jeFlus95uqH0+GksXfYwVJ7RtWxjLt/uNY0F484dENOs5RFnGJtkp2PCVKKCeiMKK+UGIrOEjlkWkqbaOuBizAzO/DMdV9buKjFisEOls0ZE7aOU7AG/LadvXx82ERKSqk1QI2UnYungFtma6Y/SzYrv5usDhqli3xasQlrvCLugltunb3XUlpvpt5fqK4dED4FVLGSUUI+0bpCObRzuitzhznjgclX9bS6LAufOYKBB6toNXoTfrm7ccrR4V40SBNTYhf/q6eTQKR+Sbv04h3xNmrscjUhxTWj3iVk4CKiEhGmE3xTL5eFsYUBX3uJeGI6vEce9sbfQbqsvbTTKTELL6M6yOVScp4bSSvGMJXv4qDCerifQpl3OwLzpUS0bsuXTl89rK/AeglzJvF4xQfku8ehpEFhWBfTs8LiOXi0k4a3T7a7Jw4ruPMXXtUdxs4oMJYn11x9lEnM6XcdJx8of5eOGzLfjtuthnT8ttMxijO4nzZFpxa8PM++2i9lt5pHVSUbmZGc31ilBJ7aDC7I4vGvqhsryGlfQKso6mKHGLUTW7wMZjNSrXaa0MVnIW7+WwxzN5QceVcNzZ1A3Z58OBh97Sfd5sFCrdXYeco71w5+BZE/O/LgKqf+gCKkmb6EYksn4V469moNLDX4n5LUAlx6rISfiHCEQjUWhSLUmypqo0+Xk6ylXOfZmSlJSUExISYtUrPj5enVvhtGXZvXu3OsY4EQQo08m/IsBRx+rIYREsKJ+LoCPf59r35HjD3zD8nva5HC/HyZchEWAp40Vgoo4xj/Y9+TK2rtpyyJd8r5HTauON/aZcVrnsxqbRn2dRvymXrzw5vnJGTsCra3KOq8Mm3TqUs3DqjJwRXxzKuSGH7/6ds/49MbzwQE6qMoHOxa2fiPmJeb61JufwNXWkJn5TzlTx2Ygvj+ZkqqNycpJztswpuAype77IGSGmnbE1WR2TJ3W37rOpP51Tx0gncpbL353zSc6MDzfnxKbeUcfr6Ob3Sc6ms/nH5yRtz5khvjdmrXn5qOyo67PyhDqc50bEmpwx4rP3dl9XxwhRa5TtPmPOZzkzNsTnpOZtYOF6zm8LxbymfpazJUkdpbl7JWen/OzVj8W2UcdJ6vwCjG2za7q0EPDe5py8rxS2H83c7tpvyrRzSx0nnd6spBv52dQNf6sjpds54V/olnHLBXWUkBm+Spn28wh1hObadV3aLUd0+SX/8ufue/EyTP83xLoVTPuCtv+N5Zdi7ANj6Sh2zX/FZ5/l7NTP8ELm73KZ/puzKkYdYW1aSD+qO9bkS/t3lH09RuTvl1/9IGe9/qlJ5IcAw3H32A2xrgFym/ypjjCT5cc9bVvPyJkgtle+9K3mm/zHW6FE0oo4/r8rfvf97TkX1TE6d3JuXNP/rvG0UJ4Yz4MFFZzOyLqli2Oj2E4By4+qI1R3xbFH75im5eMC+8xAYefnAp+Z9dvm7rfyI/vG2ZyMtS2VV9bxT9WxxXf31Prc+cl5myP7UmhO5npP3fd+/CDnzl/XcrLVzwxlhU9QpsvMPR5qruXc+VnOY0LOHYPDd05WsvrZsJzMRHWc4khOpvKbYp6bvsvJuqyOVqjz+1GMz5fBxez2y2XomZP5lzqilJV6TVWC0t5ER95LZcqpU6fUd8UXFxenvrOe/j1HstZI1tZotFoarTZGDmvT6r+X35O1M/rk91atWqW815+2MHI6/b/m0pZPBDJGa7hkbZT8TNKWSdLey+/IdTAkt4UImNSh/LTflJ8b/qb8Pf3fMazFLB+iMfu1mXjG4LXimPqxVM0bYwa7ADFbsD4WSN4ZguCrzhg93Ae5Fzn1ePb3h5dBUxG4DsDw1sCdE9E4XugllCT8tjsRd+r44mUjN1LX8vPHiDrA2cNRyGtprbpYBb1fHIBWtfQ7ONXND+37wL+xQcenjXwwwFU2w4hHsjqq3MpIx7lDQZj9XTRuOrTD0C4Fm2qctG+Hfw92RS39+zfOhWG9ONQ06TkY/Rup4zSVa6NXgC+aIBVbfxfbyIBD5wEFt1lNbwR0l03xonHkvDrOqOJt9/qdfeGlX/PZzAOPK4nMHcMH6l/lrgqv9u7ibwrOGan9vJlpcOW1pmP5qckwR62C6d+hfWvI66xnU4p4JEeu4u0DY+moVQdPsf3E/I7qX0nPwpGjsbhTzRM+cleYZMFy2HvA5xFxnIg9mVcjlR2LE38Cj/frCa/KaTgcm7f+J+PixfHJHZ55p6t77uZtWaXjiPrGDo4m6bZRsY57Im9MGOmRP32r+ebOxWQza2iLkVbupCvN1vLYwqGmwXcfRLfvIF8fz5XFsSf3mJaC33bKPOONf48x2GclodDfVlWg/ZZz86z6DrgbvRiZP7Sy6qXf4YX+vAtTqW4PVHl6F2yaPgOkr0T2YW/c+WkpsiwpNJwJQfYNERs0nQVbXevOPDZOsG0rlysSOYnieGYo3R6Vu42Cjf6tE8r8xLK1EuP1z/eCzaPPoBLOIifFvPWzVqkHVc0a5ZUmE5IzkRB9QB3Kz9j9RJZyc3NT31lPC2BkszUtoJLjZGAgl1ULHuRnMjCR00lakCSHtaBC+568L0p+T5u3/J4cXxT9+VhCm76w39CWW06rTa+tg2yqaYpcb8OgST9ANFx3bZtpvyHX3VjAdu/JLtXbob/By92gQFDLdwhGNEjH1p+WYNHmJDTvM8xEG3RHtDH6XA9bNG8mCwvJSC6sTHg9ESeuiALkI+4m7n9xRnOZ7K8m4rT+4yKkBh7wNCzIqPO7czSwQOD4zGvzsEhe2xCFVEuOj2VGf5nffB9Tv4vCWSdvvD1tmNHnoshugQ1X/2Z8oji8VkUHd8MjuaqxKzzFUTE5MSn/yVjoYOL40thNBjepZu1HS7e7p4th86BqqC7X1akRmhusc5VqBQsCVdp2RH9RUjkYtBAfrIvA6avmNFMsh1ycC6Z/+2pQ7pW+KLa9MqIIxdwHxtIRHu2IQWJkviaAGUcRfkIE7F07o1VhZ1aLlsMWno+KNHA7HrFa0C4CrN+yReDkKfK3CLhOJvyta94LMd+YdFRxb4VWynB5koU7lrS/sea4ZyRv5OYbc49tFu0jF/h2dUaVq+GYOS8QW4+lWLauFdCdW/IijSi9Fnafir0nerevCvy1EW9+EoKwBCNN+TL+RuxF2Vy2deF5xlLm/PYDuN9KjAh8bLrOgd2QfajcyF8EOp8ge/cA3Im+rjRDKkp2imy83ASV6jfRjTDUtLXufqqr8QWb7VXtgUr57kXX5peBnGNGgsdtr+iW6aa5F9+sU+pBVY8uHdR3Ot/83+vqu/ycnZ3h6+uLNm3aFOvl4+NTokHV33//rfx9+OGHCwQGkhZMnT59Ol/Qol/7Utj3cnJyCg129OkHdebSAhztu6bIzw3nr/01DJoM9ejRQ32no/89w3WXw9q6G26z8sUZ/s8Ow3iDl69h2bayE/yf8YHDuSScrNIOI/oXvJqqUxXVDa+MWeJ2Om6IP41rmb5ptr6T/O3buGF4P0gjp4LP21Lnl3cPgbGXrK0ph+RzqtQgd8jAwZj1+nQEzhhs0NlHHlex/oaKvmpeB43l126mFwiqahgJWsxWzO1uZ3DVLVdlUx8YqOaB8dPHY7wofB8PEwUMkf8mi0LGEVFgrFAql8CV42LuA2PpSBbIOstODxKjcESNqu4cjUEYaqNXRxMBu8bC5XBwdxdBUipO/KUrGJ48dgI3W7eGl70acP15ErGy5HHpFA6LZeksgsDypH4jeRRKxalECwJ6a4575uaNwli4j+r3m4iFz3qj+dVorFixECPfXIiloYkFjiH3hzScThRpsZozXLWOf4yqCs8xU/HRQHfYnQvHok/mYeQ7y/D9Yb26wqs3lMC0uZOJg3ixmfHbQkXbb5UcmsDGY4o6JJJ6/c7KsKmXxth0+g/8lcNy3har4gTb7gtQ5YmvUMk2Hjkn3sDdC+pnhci5I6+EuKGSyR4ERcAl793KulYwSHNoUSCW181PBGJu2r1bRl4tSi4+KEypB1V+gyYoPf5pZq88iPcm9VWH8qtVq5YSxBTnVa9eobnbYnKekgwIDIMiWcOiBQZa8KAFFNr3ZFBTVBAm/+rX7pgiv6sFOOZ28KAFSubQll37jvZXG2+KFnhqwZX+9wpbdzks/2rboWJKQ9jmcFx1qIpaGVEIKUb3slevyu8UcbVP/eycMq1xuvnUQW2TgYIedX6p9k7w6tjOxMvFaDPGe87FNzfIHdHPG55GawALZ6cUuNKQnO9GaX2FdHxhwk1t3xR2NL2X272mK/pPFAHo+5Pxmrw6kCg7SVmm18HDA6KE90Hjjh7i1K81AUzDwfBYkUZ98HhRXSpauhwNXNFRDBz5Qz42QFcb5fWou9LzqENLVzTPjseRv0RQF5+Ik3CHT9ty1nSpmSu8xJ+DR4+aX1gt6eOepSxOK7ao32kw5nw0G0vG90GvOqnYtXEZpv4gq7TuMxcPY4tYLYe2rYuuEa3siOb9RuOTj6Zj4XAftBHpd8Pq+fhgr7pfzdjPxVbUbysq1n6TPf7ZeOYFS5WcHlOGTb00xqaT4zTKsJkP/zVGNgm09ZJN9vYg+++ia4R0nVnLhwUrg0akiEBJ/LGvb7qHQT3a/ODoA1tPE69mhvdglI7SD6oGDMOYgF7qkM7sL3aYDKzKC8NaGjks7xOSgYHWZE6SQY4MHrSe8LTv6Qcq+kGYRushT/8eo8LIoETSv9fLHHI5CpteW25JC4q0v4Utm5yv4Tpr39Nfd2M1U/K9JeteHl3dG4jPT1WF/5h/47X2VXFk40YcNLxiqijYc5dOEmL/TAdquaJNYdcD6rnAvZoouP8Za+TeAUmdTx0nNDHSBK4AdX53/jplYn73t1ouznBAOiJjk9QxBs7FIlLsxyaNnPW6y9c5IgqtBWXhRKwc7w7PlroxRpWH7V7TGb7PTMRHz3rAITsRW+RDPO9HlW0L7DtFSe+Dxt7o10BtAng9Gr+Jcpivr/H7KvOxeDlc4Nm6qq5G6rysjXJCB3f1gkIjN3hWS8eJeHEciBFBnWsro01h76ma3vAXx8g7MVuw9piZvaqV9HHPlBJPK6KQ3tYPk6a/gtEibVwNj8AJ9RP5mfxXoWWnYOuqHThZ2RnDe1tQIyoCnMZd/PH2jGHoJbbrkfDDumazRe7nPHbVZdVFKs5e0g3nScHZwu5nNfXb+RS238gclaoVvMipPgmogMp15GWWs8hJNnGf05lI3fOwarqZFaTo5peBnEtG7sEqY6UeVEnvfbwCzRpUV4d0ih1YRX0MbPDW/S0mw8DHGBkQaEGCDKJMdbygBSz6gYX2Xv41DMIk/cCosPuW9Ml5aYGVDOSKquXRAhpJTm9sXeU4reZLm1bS3stl1A+69Gnfk8ulbSf5V39d5TYzXE45T60GS/83K5Sr4Vi6MRF27YdghHtVeA7uAy/EYtHqCKNXYsO2huCkQcCVvG0jvr8CtOrqXcSzglzRv6cTcCUMnxvp6vtqaIgyH6+e5j5zyBU+HcTJ6arx+d08HIqDBU5a9xF3XwwXJ82zuzdiq+GJODsVu4LDcLayC4Z2L9iEK3nvFuwyaDZ381gQlouzr0P7jkV0oX1vtvud6wWvADvUra3cEF7DvqKX8Exwqg95h+7VW4ZXOUp6HzjBp6tIJ4nR2BUahSOV3eHT3pxtavlytGrvqQTCO3+OxskG7eGVe/+mK7xE2fb0X+I74hBfrrpSz2ULz+FD0N8hHVu/XoilB4wH8zf/2oLVO7XtUdLHPRNKJK2k46bhfV2Va6N+XfHXvgryuueqjSZKS9Is3Mzrv6viuBSF1fM+w4pzVdF5qKl7iPVkpOGm7ma/PNVqo4E8TtpXVYNZV/TuWlu3nzebuNClat5MtgJKwm+/598fNw/vwFrDznnM+m1z9xvlil2JO4fjka09nkTP3VPbxf9NUKlOXnPpyo5qk7tMgwTfIkDXNfuZ2cgy3O13U5B1bJ5444/Kj5jZJLF5D1SSh96z84zM7zqyft9TZl2q24hCb+m3wbJ7CP8Y0As/BX+Lqzfz9saeiFPAxf3we+o5dUwRtg8B4n8QO0jkhJtngKYDlHlbStaQyIAiKioKV6/qrlnIYS3wkM0Q5at9+/bKtEePHlX+ynFyehlo6Ne0yOBACybkNDLQWLRokTI/Y9+Tn0lyOm3zy8+18RotWNHIYTmvn376Sbl3S85bWwf5kgGL/Ksf5MjP5fLL78jPJLlcclkGDx6sDMvpfvzxR+W9pH1ffke+ZDM/+V352wsXLlQCKjlPSdbCadNLcptpv6X/m/L35PK+/rrunjq57nJe5Uny0V3YcyELaZfP4uSxaETmeyXBrpkb6tunIWzZSvx41R2vvdYHLvLoXLUJ3LOPIyQ8Gtfrd0YnZ13B6mZ8ODb/ZY9e7ulYvSlSOcjfvXYKoesC8envl4HGffDecx5wyL2acwtxv4Uj8mZ9+A1ok3s/lIOrG2r+EYFfI/Zjc9RFVLXJxvWzf2LHhrVYdCBFFOhHYtY/muidBFIQufU44hq2wbAOBe6qQl23ekj7/TgOngjHnj8vw0ac5K/HRyJo7XdYuu+aiDt80KJcPS298PUp4OJxrItMQQuv3nqFT40DWrSwwR/hUdgWthdR5yvBPvsaEo/vxZrvQhBy3g79x72MfzysVzhW59fZoyF++XE3zqZnwe5GMqK2BeGjbQlIq+6BGZN7o1HuJW/j+9Gi7W5yHdR5ww1PPt4sfwHayHcuhy7FC1+G4+xtucypiBfr+fWGQzht54EXR3ijvtHL9PeGLr+IgvLj+umvsH2vflbDYFtUz8C5vVGIPHUKaVUdcOvYISTWcoeLmGfJ7IM8VetkI373IYT+fQ3VOj2JVzoYVjuXQFqQxO9c3nEYv6WkoZ53Hwx7NO+8VzvzHNaH/YG/bzviiaf64dHSaA5nrSr14dXaAYlRxxF2eD9+3B2Jk4niOBsjj62HEbJ2A77cl4Dabf3Q1UV3dcLy414hecPEfiiZtBKLb99cgm9PisJ+jpgmOQ4HfgzG13+mo0XfYRjWIm9J7K79iZA/ExCTkIk6Nhex48hteLUq2VsXrKHLgyIgSb2IhD+0c5/YP+vE/tlxHH9k1oX/sy9iko+MPPQZ2b6XD2D2rK+x6+90VKp0C6l/i30XtAnrL9qi/5Ch6NxAd4yt2bKlbj8fOSj28znlcYq3xTk4at+v+PpEVfT21G0fG6eqSNsfhYNi2ogLlVAt+xJixDH4f2EO8GuWgrgrlv62+futvJE9/0nyvij9e6MMFTZdTvLvyEn5XXkvm/+ZJWUb7v4xDdl/bMZdkX+zzx5CdoIIWCKnIjv1pMg0X8G2U6O8Jns2qcgWwVbO1UvIznRATrSY1rUtKovcWalmM+Sc+RI5f6/F3Qs1kXMrDdmn1+HuobeQky7m0fYrVHHROw/jArKjg0WefQY2rgZd91Z2Evs5C9kXg5GTuBPZKTbIuSnmF7cSWYfeEPP2RqVHPMqkFqmS7FddfV/qZM9/PXv5Kb0A6pv1kihcLpVRbiFkQHVhnzqgGhIB1GiqDphPBhWy+Z0WRBnSr5XSAiFT08pgylgvdkX9hpy//B19MsDSanEkGazImi5DhtPpM/yO/H0ZBGk1Y4aMLYckv6etuzHyd+R6a9tJX3HWvTzQPZVdHShA96R9n9hleHl9Ipo/NRVz+uRdkRFHDqz+zwqEoJ0IsnW90eU9nf4luB8Nwqc7Y3E2Q5Qv7GujTac+mDS0HWrly+WmnkovaE/2F/PQPR1eFDrquKDfwGEY0cnw7p9orHgtEFsLe1r/nVQcEcHdiqNJUJ56UNkW9Zu4Y+ggf/Rqafm9SqXLjPXRdywQz6yIRv/xczC+rTrO0PVT2LV+C9b/kbf+TZp547lRA+BVT/9ALujNb+idjVi0/ihO3BRn/ipV4enRE6OH+6J5NXVaRSH70dztbnId1HmjD5bM8MsrHEpGvnMnIRzL14fi4FlRUMqWac8R7o/6YvRQscxl08TcbHn5ZareVfDC9r36WYOC2+LmqVAsX7UbYVezxDq747X/jEZnbX2t3gf6snBw2SzMj6kK/5fewehH1dG5SiAtKPR+52XxO/otr66H44N3QnCkmjfmzBtcDnv+06Mcx7Zg7f5YHL+Yruu1UOSj5k3bY9BgP/i6GKy3Rce9QvJGIfvB+rSShhNimtWRSTgtjwuwRa0GzujVx8gyZov5rV2FTw+liPwojjm9x+OTQYa9IN07ujxoUDMn19nJGZ07+qJ/Lw8TF2KMbN+MRIQFhuB7vWOsyfSt7eftsbpjq+BQU/zmoGGY1EnvPHslCqu/3oStiTLtiO3s0h6Txg6G3U/y3G3pb1uw38oZ2audJAMl/XujDOkHVYbTyYAqW33or90/8z1C3LS713H3eIgIptaJQCVGzESOFPvHoR8qNZsEW08R3CgT5smOXoqsPz4X3xU7osos2AwZBfVWOuRcixFB1OfIvrpH97mcV83xqNxxHGzzZ2AhEnd++Cdy6v4Auyfyd4CnyUkOR9bv80RApT4Y2KY1UGs8bDr5w8by+pdiKdOgSipWYGUsoHIbDnTLX7NjCS1okDU++gGHDBZkgV+/9kV/Wi1QkM32ZEClP50hY9+TAYX8rrFgRJIBk7ZMhgGSPjk/OY02b/3lMlb5qL8c8iV/X3aqYWxafXJaLaiUL7lMsmMKc75nuHzyu9p2exAYLyQSERERFY8WVJUUs4MqKlKZB1WSqcDq9DoRpPT/b17t040zwP7XCgZUDbsBfTeoA0TlE4MqIiIiKkkMqsqvexJUScYCq1n/cMB7gx10QZUMqIxhQEUVBIMqIiIiogdDmfT+Z0wzjy7YvSsUfu3ybtJUAiqJARUREREREVUQ9yyokpTAKuwIdi+fiJxVBe5KyyNrrvpuZEBFRERERETlzj1r/leArJ2Kmg+lq/Qb6kM2G3QTAVUToN2/dcNERERERETlTPkJqoiIiIiIiCqge9r8j4iIiIiIqKJjUEVERERERGQFBlVERERERERWYFBFRERERERkBQZVREREREREVmBQRUREREREZAUGVURERERERFZgUEVERERERGQFBlVERERERERWYFBFRERERERkBQZVREREREREVmBQRUREREREZAUGVURERERERFZgUEVERERERGQFBlVERERERERWYFBFRERERERkBQZVREREREREVmBQRUREREREZAUGVURERERERFZgUEVERERERGQFBlVERERERERWqHTlypUc9T0RERERERFZqFKOoL4nIgulpqYqf2vUqKH8JSIiIqIHD5v/ERERERERWYFBFRERERERkRUYVBEREREREVmBQRUREREREZEVGFQRERERERFZgUEVERERERGRFRhUERERERERWYFBFRERERERkRUYVBEREREREVmBQRUREREREZEVGFQRERERERFZgUEVERERERGRFRhUERERERERWYFBFRERERERkRUYVBEREREREVmBQRUREREREZEVGFQRERERERFZgUEVERERERGRFRhUERFRhZCdna28iKh0MZ8RWY5BFRERVQi3bt1SXkRUupjPiCzHoIqIiIiIiMgKDKqIqMRk3rqMizGblVfq3+HKMBEREdH9rlKOoL4nIgulpqYqf2vUqKH8fZApwdQfm9UhHbvqdVH74c5o0HqgOoao+G7cuKH8ZX4jKl0yrzGfEVmGQRWRFRhU6chaqTMR3ynvZSDl4NQSd25dxo2Uv5RxTb2fFcGVj/KeqLjKS1C1fv16HDlyRB2yTK9evdC7d291iKh8qshBlTwvnz59OvdVq1YtZXzz5s3h5eWF2rVrK8NEJa3cB1VHjp1Q35nPq62n+u4BkroXc8d9hj8H/AfLX2wLO3V0ibgbi8Bx7+Drxi9i7dwnUFcdTQyqNMfWv6L8NQyetNorGWg9MmC2Orb8SNm9EAt/rY+Rc0bCQx1XIrJPIeSjFYioOQCvvOwLJ3U0Wac8BFUyz8+fP18pmGmFNUvIQt60adNKvWB3atM8rDjsiAGvTIYvEyBZqKIGVfJih7zooU/mNe1cLQ0dOlQJrsqTUjsXmVJa56hr4VjxfyFIaTca04a4w1Yd/aAo10GVT/9/qO8s06hBfWxc9aU6ZJ7jn/0DL/ysDmjsHNCqnhva9nsCAQO6o1lNdXx5dPFXTH/pSySVRlB1+xi+eel/WMOgqgAGVWIbqLVUNZxawrX7a+rYPKf2LlJqrORncppiu3EKYVt2IOJkElJuZakjAdum/pj6kg+KU0QttRNZZiw2/t9qHGVQVaLKQ1ClFdomTJigXPm2hAyoli9fblmhLiUUCxfuQIo6qLGt7ojaTq5o79sHvq1rGxReshC7YT5WR93/QVXK7iVYuL82Rr4h8nBV3bgbp0KxYdNviE9JR1ZlW9Ru6o0+z/ijXYGDRBZSj4YgcOtRJKWJY4ptVTg/0hP+g33hos4rV1YqojYFYsvxJKRlyu3vDHc/fwzp5gLDSS2SHo3ABYFI9Z2KyT3Kz46qiEGVzFsyj8kgStYIy/ypf/FCfibzrjxvy89kPizexQ2ZbnYgZH8U4s+nIUvrfV6kNe/nZmNwK3XYAmUeVJXWOSolDEs+24I0BlXlyy87duH9BZ9iwrPDlSDJEvJ777zxKp7s00sdUzRdUNUWr773NJT8cP0UIuIv4vwfh7H/ZCrSRJFt0L/ex4y+TZTp709nETrvS+xuNxmzBzRQx1FhGFTlBVWyhkrWVBnSaqsaPDqw+PdWXQwVB+odSKrsCJdWHnBv5QLby7FIupyKxDR3jHnJr1gnBetPZEkIX7URUa7DMPFxhk6l7UEOqtJbD8CANo5ixB2kJpxCcmoKTiXoCvio643RLw6G+4N2GLq4Aws/DcfDY9/B4Ba6USl7luCz7Umo1tQHvl1d4JiWiLDQcCRlusL/X+Ph85BuOhHNIHrdQgQevQ0nz57w9RCF68vRCN0VjVQHH4x/0x+uWldeIvAJWhiIqNtO8PDzhUddcdw7HoodMalw7Dwe0we5qhMWT9afQfhgTQoef3Uy/MrJYaSiBVU7d+7Erl27lDwp82ZhtOa7xWuKK9LN9x8j8EQ6bBu4w6OVK9zrZiExIRmpKbFw9BNpsbU6qQXKPKiiUmHznqC+L1f+OnUaew8cVIIj2ZyvlVtzs16ONRzww48h6NG1szJsruTf1yLkZEdMmO6PDk2c4ezmAe9Oj6HngH9g9JMdUOvPbfh60zZcfXgguj5covVA5UgCNv1vLZK9/NHvkQc3SLBEenq68tfO7n5NE0W7nnQMNy/9hYec2xqtibqZ8pfyufyseDVVNxAeuAqHMz0w8s1JGODljmaNG8KlhQc82nqjq3czOKhTWupWQjjCTzmgTe82sOzSjSYRe9ftx7VmPvBpXtylIHNlZsoI4t7mt/Pnz+OPP/7IvTdDBkmygFbUS05/9epV5X3r1q3RqFEjdY5FuJWA8PBTsG33FP7h44qGDZzRzF2k/faPwbd7D7R96DyORh7H4ehMtPRpiYcqqd+778njwneIbDQEE3s21HVlfC0c3313GLc9RuKNsb5wbdAQDV3c8dhjD+Hc3gM4crUhurWpr5s2LgTLtiag/hOv4lV/DziLaZ2bt0HXlpmI3L8ff9m0zc3Tp35ehi1/10efya/C39NZtw/adkXLjEjsP/AXbNr6oJkV2b9yPTc4nPkFv8TXQ4926rrcYzKvVZTzmry4uWbNGqMBlQyg5HlaP7/J/BcZGZmbj6tVq6Z+YgaZbrYninQzFW8O7wqPFi5o2LgZ3D080K5TDzxazKDY+nMRlQfsUt0ctd0R8NH7eKleJoIXB+HkXXU80QNOv8v0zFtXlGHDl0b73HJ/49Tf4o9ru9zmPUTlhax9MudVKirbwqnTaLz+lIsoWYYh5ICuJu+BcP43hP1dG75PtMttYnQjJgqJ2bXh08sjf5O8qt7w6+KIdPF5rNpU69SJE0iHB3wNm9w17QO/VkBKVLTa5PIUoo6nA4/4ws+gAYfLE35wF1MdPWHYONNSVeHdxRtV/wxD+DV1FJlNBk6SrAE2ZCrvjR8/Xrkoon3XXCln/hbpxgkenmyZQAWV+5qq4YP9ldonrcMK7f35i8kFXpri11S1xKBnO8Jow7fK9eBWIwbfhh5Gg8eGon09dbyQefJXLBFB138WfIPPv9uAX49fhOPDHmhRV+8qz91URHw3H3PnLcF/l6/B8qAQHIx9CN5+rpANOnJdPIzA+fMxZ9FSzP9mLZav34a4G67o7NUA9riITVOfxZi41hhd6zA+mT4T//p8DW61Ho7OjY7h0/4T8YNjz7xapiNfwmdsEOr36YN6f6zBh+9/iFmffYtlcp4Xa6CFpytqqYsomz8+/e5uHBfvz0T8jOXfid/+LlL5rnuNvN+d8Fj+rZMm1n3ZRx/iv4tXYPGqtVi9aTdik6rlm7d0+ae30GvqaXQe8QiuhXyG6e9+grkr1uCHX2Jg2/IxtGlYMa6IGXpQa6rkPVJ/bp2FS3GhSi2UlH7trDJs+DL8PPXvg7h757YFtVZZOBt5CIlpD5l9Jf7GqTAEfx+I4E1b8OvOXdgVdgh/ngcatnTBQ3qNvI1dHYz+fiYW7bRBWx/DGrBoBM5chJ2VdVewlenWHlcKXrdOhStNT3btOq5etU5B6MK5+Op0Q/Ruk/+6o7nLhphAzFy4U8zPGw/99RNWrliLn7b9KqaPxLkqzeDh4vjAXRUrjzVVsvmQOS/JmpoquJquDbVr7IjrB0TAcKs2OndsotxTK5sTzV1+Cg31r3xnpyIqZDXWBocgRKal0L2IjKuCZh1d9M5D8n6RX7B6bRBCQrbjV5Gu94b/iav1W+PRemLOsjni3K9wqlFvtDEoVxr9zdQohHy7FkGbQrD9V5neIxFn0wzeD6u/aNYyFZT423qEXW+DAf3FMUEddy1OBCWnGqLroIJX+x+6nYhdJ5JQt01XcS4HkiK343hOe/TpYpjPK6PKpUiER4ugqWcbNKyUhMjt4szYrk/B7W9TBclR4YjJcUHvtg3VkQaUfHw8/zYxpq49ruzfiz+q5NWQ3UsVqaZKBkaylqpbt27qmDz79+9XPjPMb7J2KiYmRgm6tPxpDvtrJxEak4gqzt3QzrnwO4bMPZdIeeeilkjfF4Tvvg3OPd7HXXeAW8uGqJZ77tM7vzQ5j41ff4W1P4q8uvcQztm56s4NIt/ljhd56vjVOnB3NzEPvXNU+t9hCArMOz/ly/tSkfm14Lopsm/g1P5gBAaK9doiviePK4f+xPlKDdHS5SG9e6/0lqv5DYR+vwJfr/9FLMte7I+9gYaPukNbFEUxjx+lpUKck2UQ9fKb/8kNpuR7Yy/9wKo0OLbzQVfcxLHYi+oYceARgcvoVz/DfjyBae+9g8/eexH9b+/FrFdfwTd/qhMhFaHvTcQrG1PhPfYtMc07+L/xXeAYcwr61+3lvIaPeR9fnK6NQZPkvMRr0hOwv5QMXVFClfSTCLhuYtCCIIRv/RGvFtE0/0b4l3j9s1NwH/Iv/J+Y5+zBTZGw5TOMnrUZSWqtW7MB8vdGwU+8bzXgFd1vi2HvQjrnSPr5XQwR6x5yuw0m/ku3vDOfaoKknZ9h+Etf4niBi6ap2L30X/jfCTeM/ZfYDtPHoqeNCAbfegvBZ9RJqEKQnU8Ul6ytkoGV+bVWzug50ANVU8NEAB+IsHOFX42X91R8vGILYjNd0HPQMAz75zAM6FAbaTFbsGxBIKJ1cbDVHvaV8/aBi3jv2HqA8jvD/jkAHrn3bBRk+bJlIenXZVgYKsp0/kOU+bdzTEXs5iUIPJrXWQfdO/pN/Axf+j2OlarK7mgl7yn6+xRkpa5xNxC+fD6CDt/Gw34yLQ3D4F7usD2fJI7MGnm/yAeYvy4cqVVFwKGk6WHo08YWaSm31WkscC0cy/4vCBG3HkbPoXJeg9GnlS2SLmi/aM4yGZOKU6fSULWVu5L/8ktCUt4pOteNm2ni/1Sk6B92UsS0WicDetJuyHVNRqretClJSeo7fWlivuJPipivboQVXJV9mPJXvNgqZC4tj1l6f6OkdVJhST61bTsAfUR8FrvhAyz5ORqpJXwYTtq9AisOAR59ZX4Q+UWkicSDQfjsh2iROw3cikLgV7vFyWEQhohzg3ft2+LcsAJBhyIQ+PkmXHEdIMaLc0xbR6QcFvPYdEr9oglxG/Hxl1uQWK0d/J/Rnc+8ndKQdF7L+8XMr9kiUPriY6zYHIs7D/fEYOW4IuZdKw3Rm5fh4+9NrNtnQYhv4IchYlkGPy5y+rlwrP5ii8jhmuIeP0pPhQiqZEcV+h1WyPfGXpZ2aGGxeg3QTH2ruH0MX8zbjMy+72D1h6PQz6cjvH2ewPOfLMaMR1LxxZq94pArXDqATYcy4f3cW3i+r5ymI7o+/Qr+7/sX0UaZkZC6F3PeE0GOx4tYu/IdjFSn8+47CrOnG/S4d+QOOv77GbQyqzfCWHy6uwHm6c2z3+j/YvXM7kD0l1gWKs8IolDoJj9zF8VXsZrN2uh+26ctnE01Nb64GfM/O4a6T/0Xv3z6Cgb5afMW2+KLF9H1+mbMCoxVJ9YcEMHnZCyf+TS6yvn7PY0Z/xsltsFZBG4znJbKK9kxhbWUwCrhoDpUtKqtR+L153zgdDsaWz7/ALM+3YgIY8FVSijWbE+CredIvD11JPw6tUO7tu3gO2gipr/SB87p0dggDuwloUZTOW9dTXNVZ3fld9q1dYeTqYu7xVq2VERf9sArrw6GrzJ/Xwx7eTDcxZE79vcIFr7KAXmV3NRLBlZlpb5TEb2YXY7AYRFx1X58FAZ306U9754jMXXmELirk9w4sEq5Ad/5iamY/pK/muZ0aXR0MTpiST16WGmO5ztCS7/e8BsxFe8MVn/RjGUyTgRD58U6G5zznR5xR22RZ8J3GRTSshKxe1+iOqDj/qj8hWiE7TEIh25EIOyw/rfd4fGI+PNnGEINgrUbh8IQUaA0WHz1G4ptfCYR59RhKprWvK+wXvxMBU1aIGZR89zKTvB7aTIGtKiGpAOBmP/+PKzeWlLBVTTCk3z1zg8iv4yahondaiP9xAbsMLxicioJtUV+0uUdXwx+eRg8qqYj+seNSO36Esb399bl32dewoDGQPrxKBQWVsVGRoh844EBY0TAo+RXX/i/OD2vE6Zi5teUPWuw45wtPEa9jakj/PLm/dJ0TH3CWVm3LSfViTWn4oFBU3PXwbv/eIwR2wGpETgYp05T7ONH6alQQZXssEJ7b+xV6kHVzZv5a5YifkXg9QYYOaRj/i7MbRrAu7srcOhPJMhhh9pwFhMc2xeeWzOksFH/Cpf3/oJtmW0x8z8D4aw33igRALUp4vypL2DogALztHv8SYwTQdm2qNzqNIsk7PxJBEhtMXaUke7bnQdibF87JP28R2lOmMdVbCuD6Zu1RTexHEnXWTysKDJvXlHfla0aj/hj6qy3MX6gB2qLg+lGEVzNWxOBVL0rzYmHwpGi1Wyp43I18INfa3FiiYzCvQjhi7tsHt394KR/pK76CFo1FX9vpKEYdQdUwuR9HKZerq7W9QpnCV3tSiEca8NRpKPUP48iSb8AaGurNr1JQcRBEXg0HoAxPUvmfhHHh+Qlh1ScPJ6E/D+pNvYpcplMEGlfXrB0fMigQ6VGPTHAs6oopAXig08DEXooChG7g7Bs/gokVpXrVBXV1BOQVuOQ9OtnmPdlCMKORSFs62os/HgL0hrI5a6GqspFRVu069tH5Nwk7Ph8HpZtCkPUsTBsWbUQH29Pg7Osma4u5isntZKTLMNkZ+XbVlQ4LZgyFRjJwEl2SiEvchgGV9qwbMprEVtn+I6djtn/GgYfWWv1mwyulmDL39ZG2I6i7NiuwPnBpbsvXES4E/uXwQWAuiKIkOcCjZ07WilVt+7o3E0/D9eAeyuxndKTkVxIUctR5EcgHtEn8k+kZdfi5ddERBwSy924Jwa1LnhTtFMPP3hUTkdElMGZr64P+hhM79LKTWybdNy+pY4o7vGjFOmfqsst2axv8JgXjb7kZ7JZoHyv3XdVaq5chMy2znV0mThNDAMXMf+lfyjP1NJ/DflSXg+Ix2k5SbUuGPlaFzT762sMGTwK/1q0GceT8jXoQ9IZkaCc28DdnGDJrYlSo2QeV7RyKxD2CLVQR84k8WK+QNFcyroXsrzOTZuL0nc8ki6pIxSPoHmBBbduOah80n8AcImqXAOu3UZi6jsiuHrcGbdjNmL+8vDcGpu0a6Ko9ZArXEw0wVOuBGen4Pw9SGzFWzYnOBe49aaGOPmJP5dTULoNnskcskBm6lWcJknFk4Ur10SB7iFRyFDHFGDXDgMGusJRPp5g9iws/D4U0Rf1SyLJSBJlH8dmLiKFlQwZuPi3cETS7iWYNXshAndHI0X/1FfkMplwWxSs1Lf5VYXHiH9jorzwkhqNHT8GYePeRFTrPB7je8mLrnVEIVw3pVLj8PI0DOssTkDnwrHlhyDsOJyGh4e+gmGyR5zKtVFb2xAN/DBZFqAbi3P1wS0I+mEHIm4+jCGyZkCeXsVMc7eZvIdq5sy815poMVLeZ6I3bmagGEMlQeYxGViZqo3SLnDIz+VDu/Wb5cpArLAarqLYiqBG1rbMfnUwPKolIezLj7FRq0UpFhc4izRWQA1HJV+nphgc8Rs5GzxKxFa9aKD91WMjw4zbSC/k2ouznz98nLIQ/cMHmPXRMoQcSsQN/exYrPyahtRrhRxXKteHs2yKdfF8/iZ7BdZNUI9vyeLcpyju8aMUVZigqjxIitiDk2iLNp76qbUtXn1Xvf+pwCvvniTn3m9hdfAyfDaqI7DvG7ww7lmMXnos/71SIhcYC38KsKuivjGHmLawmi/HGub9JpGZ5EN+5fOqjD0IuMTYiuCq/2S8Iq+o/70DO6w6kREVjyycGb40xj6Tr1KRGY0YkQeqthBBuzrKGKcu4zH9nakY1s0NOLkDgZ/Owrx1+ZvK2dqVRJ2LSgQuPvKK/qvD4NsMiN0ViIXvz0NQTN4vmrNMBYiSi+mzYFW4yAsvs+ZgzhzxmjUNo3u6IDkhUXzkDBf9tvQicGonm9/O1k07e+ZkDG7riL8TRaGtqQvylW9riwL0i2Jd5DznzMY7Lw9GO4e/ISd1aaI3ZWNf5d6O3FcXuUdc4KM/7p++eFg3NZWAWrVqKQGSqfwlAy/Z1boMrmRQpQVh8jvyu9aybeCNkVN1Te8iduVd5CsO20JK5VUt6fq9OKq6w3/qO3h77AB41EpFxI/L8MH7S/I1ey1Wfi1F5W15KkRQJZv9bVz1pdGXbPKnfS7/lpqkzZi/+iycnwpAT/XChp3yYLyLsHPW3U9U8GVwT5JdA3j/81/4v++/xuqRzXHyp//hC7XJvX1VByD+GE5e1w2XnNNIMNZA+/YpnPxTBHsPNzB9ZbMQjnUaiG1yHLEmyghJZ04DNR9Bc71eEunBUrxnUlnGycMDtWVzAPXqhNLc6NopJJroljj5gigBGRasjLmcjAKNHFOsqxkqsWWje0q7Mi6fTyWvfOu/tCZIxj6TL9kESZK1WCUnHdHrNyE22wmPP27GnQR2TmjXf7SutreLE9KOBmJDjPygGqpVFcHgKfM6SkhNKXjwV9KwEbYN2mHAmKmY/dZ4+NRNQ9T3GxCt30GEyWUyoa6TyPdA1m0zr0pnJyI6Jg1V27RDkQ0y048qAapLG88ia+zSj8cgVgRM7droTfmQGFbuGVFfrvIM6whX/XFtjV+1V7Zp5XvXdKmikr33yTyp5S9TZL7TnmOlTWtJz3+FquoBD3nT/S2DWlSLziXJ8qOCziRC3hFoeA9h6bBFjRa+GPbidLzzL3+42yZhx/eh+TtisSi/OqL2Q0BaQqLx40p2MpIui83XxEXJ08Vi6fGjFJXboEq7P0rXtbdlr5KWdnIz5r75JfbXHIjZz+fdE+To1QV+IqgK3HA4f42TIXkfVb57qRzQ6omu8Bbfupyq6yii1RP/QBscxherDWqvrJaJ4O17kWbwbK2EjWsQLJLwIN+CJ+EIY10nGWj2+ECxvMfw9RojyysC0K+3Z6JZ365opY6iB0fyH5uVLtfPRHynjrFWLHb8GJ2/GYIqJToaqSIday04XDq0E0NJ2L3ZyJWqi6EIFQfaogpWSvAjCmGnDHqkTDwUYbKHr5RLRd9nVhLLRveeLLzJK96mmvnJgEoGV3Kc/jTay/DhpFbJSkXUus/UziVGwa9Aexk98l4d/UBGNqXtJC9KyKapsrjjio4dxdDfO7BJryapgIdqoI74k5QQnz8dp0fgsGFBJssg09ZwhY+n+I3sNKTJ+yKKXCZTnJVmsX+LwmbR0pG4eQPCrrmgT88icld2KiJ+2ILYqt7o07mIkCo1AkGbY1G1Ux/4FBV9mSk5OalgDRkVSea1Dh06KPlu586dRdYIa3m0V69e+fKuOVIOhiDsnJGTUXo0ouVN9HXF+Ug3phjnEt19jfnnLmu/wpBWWQTrrUsooZmQZZBfbev6oJ3MMmmpuk7XipVf5UUGMcW53UaPKyl7QhGdXRWensU48xX7+FF6yu1zqiT5vCn5vCp5r5S5Lzm91pmFfKaVuXTPqaqG5i1qIuPseSTF7MOm7dsQ/H+f4P2NvyOpyTNYsmAs2siLTppqrmjtGInVP2zAD79fQq1qNki7IL4bdxSha5cj+Gpb9GwlMkHKZvxr/HLE2tnD5uolJJ2Nwfal32BTWjdMfq0HmsoorZYHvMW8vg4MzjevhMPbsPzHy2jr64rquInYrT/jtzo9CzwvStaYHfxuN6528s97TtX5w1i+8zo6OxzG4s2paFA7G1fPxmH/qrmYHnIeTZ+agXcHNsjXOvBixM8IPZQE20Z1kBV1CCdrP4JmNYz87kOPGF3e47tW4L8f/YyYli/iqze7KDcRSrdjf0VgRB0jzwFT542OGNW/pVjHiuVBfE7VTREwac+eMkY+5Fd2mS6fS1UYWZNlXm2WSNvfBmJD2H78Ke+9u5mFa/GHELptI0KiUlHVcwhGdamvu7rr2BItK/+JsPD92H/8IirZZOPa5YuIO/gTAn+MxOUGffDKsx3goD6rw9hzqh6qlYU/fxcnyMjjuG5XDZlXz+LPX8Xv36iPZpcvIzPf84Iq4fLxcJxKSMEtR3ukn4xEQo2WaOJwCwnhYnyNNnnPALFw2ZByHLuO34Sbj3zulTpOlXJiF44n13/gnr5fHp5TJcnASj5rSntJ8tlVFy5cUJ5jJQtqMnjSn0Z7ye9aRH1OVXpVeT9BKi5eFOnxYBj279mC4E0iHVysAtcBL2B894b5rpIWSNuX9mLpgh8Rl2MrYpoUMZ84HAgJxan0lug1rBPkI3cecmsJG/kA2v37RfqqBNuca0iRv7c3BHuvPIx2D4uEaFMfVa+EIyr6BCITM1HV5hZS4g5h/feHYd+sGi5fdsz9zZQ9S/FRSBwqVdal9YtxB7Bp9yncatEL/3zMGbZmLJNx1VD50iEcjLXFo11b6rW2SEHYqu8QLsrUWXJ+cZHYvmEttsVmwWPkyxjQVH+Gsdj46WYkiHLkrasXcTZmL0KCNuLgxfro89JodNA/1/+5EQt/SUBW5VtIVbfH2h8PIqmeQZ41RsnHMCOvJuLQL4eR1qoP/Fro//i9UZGeUyXJTmFkoCQ7pZB5UXsulXwelUY2/fvll19yL3oEBASon5jv1l9b8N0Pv2BvZBzOX7qBjIyziNobil827BVpyRl9RvjDVS2CWXIu0fJrnbv7ERqdrstXMj98vwq7zmTDufdYDHlEOxEYOb+oTJ0bdPOH3vmk4Dz++GE2VsoHiFdJF+lc5InIX7A9MhUOj/njyZYPmXUMkXnwuEjwN/XWzdHV2HElDoc2BiL46GU4P/EKRncset20Y2HuM/uKffwoPeU2qJIB0ZN9eikP8ZV/LXm9/tJ4iwIqSRdUicJb6F5slq8DxxFzPh21H+2J51/+F+aM64IG9urEehwf6YNBLe4i6fBuBP78K0LEd3+LPgub5v0wfGAHNJBRgig8pZ38Hdu2bUbgr2LeB0WB9NFhmD17LLz1mvPmzuv4Pqz/aRt+DA1HxBlbtBnYD91ca4rgpzhB1W089+GHGJ6zDV8vW4tvfj2A42luGPzyW5gz4hGD+6lqwL2tM64e2o7Vm3fj15M10W9oFzS1N/67yvK2qYa0SLHuyvLuxeGzTug5ejLmTPZFA71ojUHV/aOooMpc5gdV9dH8EXFAT72CxIQ4xP0ZjT8TLiC9xsN4rP9YjOnjki8dOzR/DF6NM0VBL1qcRKNwPDoaCakOcOs+GGOe8UZdvZKnsaAKDs3Q1s1GFMj+wPHjxxH9RxzSmj6Fl/7ZBAm7858sxMRoJt6f+yMKUVFi2rPV4NG9HZztjJ8YLFk2BlUFlZegypD2QGB5PNACqhKjFiRSU+IQLdJLdPSfOHXuMtJQC807PYHhI4ehhyiE6ycdqUDariICm/hYkaYPI+q4mE/sWdxxfgwBzwegrVaGryTSs5cX6t1ORELscRw+qkv/KZWd0bGzN5o8JH+lMuo92hb1rifgj9honBDzik12wGMjx6Jr9pF8v2l/9xrixHyOq2k99twdNH4sAGOHtIWjDETMWSYTHqqRhsi90chu3RUtc6fNwe2ESBz4/RAij4n5xSchu543Bo0fiz4PG6aZTFyOisD+o4eU3/4z8RocWvTBsHEB6CCr4vRlXEbU4f2I+l2ux59IlA9jfWIYJgzpgNqGG96Q3UOo18QFzRs8VPj9yyd3Ye3B22g/qJ/e+tw7FS2okmRNsCQvbsiH/sqXDKDkg2ZlMCXzqHwAt6xpfvLJJ5VpLeXQ1B0NbW+K/CjyyMmTiImOQ9L1yqjzaA8l3eZLOxacS3T5tT78/x0A55N78cueQzh+Ig7J9k3w2NMv4Fkf/XbhpRNUVbp7HnFiOSOPiGUV+TUutRo8B4zGKL8muouWZuXXgkGVclzx9kKTrBTExRzRHVeiE3DJ0Q09/zEGwzqZt27asTA3qLLi+FFaKuUI6nu63xz5Ej4z4jFj1YcYZBiDUYnQmhnUUO6vezDIpn3WPPxXIzuyKIv7ruj+ceOGrklHectvsuAm79GQAZUssFFZuIHwLz/ADseReHuERwW/DykdEavex0YMxjtjvAt0qX0vyLxWUc9rMj+eOnVK+SuDKEnmTe1lcW0xkZkYVN3PGFSVugcxqJLk/VLWPARYBlOl2jsg3ZfKa1BF98jFHVj4aTgeHvsOBrdQx1VAWX8G4YM1KXj81cmF3xdXhipyUEV0rzCoup8xqCp1D2pQlXnrstIM8EaK5X2Z21WvgwatB6pDROZjUEWGUnYvwcL9tTHyjZGQj5eqcNKjEbggEKm+UzG5RzmJqAQGVUSWY1B1P2NQVeoe1KCK6F5gUEVUNhhUEVmuqFssiYiIiIiIqBCsqSKyAmuqiMrOrVvy4UZA9eoVrZ9QoopF5jXmMyLLsKaKiIgqBFnIY0GPqPQxnxFZjkEVERERERGRFRhUERERERERWYFBFRERERERkRUYVBEREREREVmBQRUREREREZEVGFQRERERERFZgUEVERERERGRFRhUERERERERWYFBFRERERERkRUYVBEREREREVmBQRUREREREZEVGFQRERERERFZgUEVERERERGRFRhUERERERERWYFBFRERERERkRUYVBEREREREVmBQRUREREREZEVGFQRERERERFZoVKOoL4nIgulpqaq74iIiIjoQcWgioiIiIiIyAps/kdERERERGQFBlVERERERERWYFBFRERERERkBQZVREREREREVmBQRUREREREZAUGVURERERERFZgUEVERERERGQFBlVERERERERWYFBFRERERERkBQZVREREREREVmBQRUREREREZAUGVURERERERFZgUEVERERERGQFBlVERERERERWYFBFRERERERkBQZVREREREREVmBQRUREREREZAUGVURERERERFZgUEVERERERGQFBlVERERERERWYFBFRERERERkBQZVREREREREVmBQRUREREREZAUGVURERERERFZgUEVERERERGQFBlVERERERERWYFBFRERERERkBQZVREREREREVmBQRUREREREZAUGVURERERERFZgUEVERERERGQFBlVERERERERWYFBFRERERERkBQZVZKEjmOvqClf5GheEFHXsAyNirm7d5WveEXUkERERET3ISj+ouhCEcVoh1KzXXFFsl1IQNM7Y56ZfcyOUL5p24QCWjG4vph2HoAvquNLAgjeZcjcDZyKCsOCNZ+Hf9dG8dOLaHn2ffhZTvwzFmQx1WiIiIiKqEMpfTZWDvfrGUvawt1HfGsg4ewTfvhOA9l1HYUHYdXUsURk7uw3Tn26PHsOmY8nG/Yi+oB89XUfc8f3YNG81DqSqo1QZKXE4ELwAU4dNxabSvBhARERERMVSKUdQ35eO6yKgWbEbyeqgMWfClmBTpO6930cHsTLASby7jiNrvsLuwr549oAonKo1QX7zcHDlMMhvas5sm4VZs4MQmq/wKvlh3v6VGNZQHSxpsqZq2HLd+xeDcWq6l+79fUE2/wuAsnZGtvl9r7j79pbYbk+L7RavDjs4wavv0+jSRL2IcPMMDmzehiMXuhikTVlj2xnTQ+X7Uk63RERERFQspR9UFSXjAGZ5j8K3N8X7Jm8gZPdkeJioccovAwdmt8eoVTJgaoo3ftqDyW10n2iOzHNFwJe69zV9h8HvWhA2HZdDDKqKj0FVcfbtmTUB6PGOegHAbQLWrJ+BLjV1g/pSdgYhuq1Iq7kblUEVERERUXl3z5v/nQleoAuoYI9B058zM6AS/g7CAiWgEt8cNAPPGQRUCocW6DdqNlbuOIqjq99A17rqeKIylnIm7946v4kvGA2oJKfe+gEVEREREVUE9zaoyjiA5VpHDm6v4IV+JkqaBWTgwDdahxYt8MqL/WDsm15TtmPp+8/Bz83c+ZatlIggzJ3kj85t1M4KOvbFs28sxwGD+2ail/bI7dBg6uaC94RlhM7K/fzRT/IK75qU4HHq5z2wJEYdqcfc5TDL3RQcCZ6LSU/3RXt1meT8/CfNwqYYC3tguBCNTWtm5Z9Xm85iXnMRFGm830FZO6lbV7UzkltnELp4Evp21I1/tKs/Ji0+gJS7uumNuh6H0C+nIkDrSEL8ZkBxt4cR8ecLa9Oq0XpZ1GqppFBM76qtn/GOWbR9qa2vq+uj6PyUrgOMOBO3E+alD3Wech+K7Z67/jI9vBOE6CJuR7Q4Hd29jridyzF1tN535P4dPRULQh+4fiWJiIioArunQVW+WqrXi1tL9Qaea628rTjunsG2t/qi87DpWL4tGinKNhBS47B/41yM6toX0zefUUcCHr7D0FR9v+1YnPouT3R4kPpOBljRyD9FBqKj1FK5Qz90cde9VVi4HEWSHTH0FwHIm8ux7XgccsvgYn7R277FjzEWdBISuUAJgKa+823+ed1MEfNajulDu2NccBHLdl3ex9QD4z7Zhji184cMEaht+2QUur8UhDPGAquzmzCpZ1+Mm7cJR7R78cRvHpHbo48I1ApufrN4+D4nUrnOmU9ex/TgaFwvLLCz1K1oLB/dPndfausr939KjOwAYxz6dgvAkuNFBLZ3ziDope4IENs9d/1lelgzHf5D5+LILd2ofIqTjsTyLhnRGX1fmItNYXrfkfs3bBOWhFuQ7oiIiIjusXsXVOnXUjUpbi1VU7wy3ngtVfmVgSMfj8ekdbJ0bg+P4bMRvPsojh4+iO1fvYGuteU0cQh6ZVZet++tu6Cfg+5txuYDiNa9VUXjwGa9gvLx3YjRv8h/Nxr7f9S9tQ/oqRe4FmM5CnVdFNwnIUjpiMEeXlMWIkSZ31Ec3LEG817smhtUmOVuhljCmvAaPAMLg7bjoJjP0f3bsXKKlzqfDIS+KQrkBj3l5YnH8smj8K39IMxYtAZrVq/Bwte75qaVjJ2zsPyAQYCRcQQLxk7FNnWe9q3zvrvyownoaheK6TPU+6ksZO/7Cj4cqP262K5v+qPz01OxfKcIGI0GVy0wTPzumtULMSG3aasHJqjLI1/D3NTRIqgJei0Ac9WeLfWXe81X8zDBV/3dm2L9Rk4qtAfB0HfHY/qRjpjw0Urder8/DB5q2kP8cszdaBjsFC8dRa94GQsidNu/xTOzsWbHQSWtHN0dgoXTB8GjuJ2AEhEREd0LsqOKe+HappdymjdvrryGfpeojjXDlZ9yXlK/13zI6hzzv5mc88NY9XvNx+b8cF4dXRoOzcldt+YfHFZHqo59ltNd/ayP+CxdHZ1L7/Pun55QR6bn7P6POj/DZY9bnfOUHD9hbM5Y9Xvv7tabq/a54fhiLYd0OGeOOr752B/EVtXoje/3Vc5f6th8stS/5ojdn7Pb6D6S2+IR3e+IV751Eg5/oC6DfD0xJ+fwTfUD1V/fDM373GDfJH6X99kjE37ISTRc3ptiHZ9Qv2vk+0XKSs7Z/f5TOY9o39deXqNyPvv1r5xrRrdP0elWPy8ZXW6xzQ5/0Cdvmvf259vfyevG5n7W3FP8xhn1A1X67nfzljnfPheKlY701+mtnN0G+0hhSVohIiIiusfuUU3VGfz0zTb1fT+MHqg1bivamc2rkfvN55/ObRZXURz55TOx9lI/vDJRq3XR06aL+ETnTHi0Oq09vLoMUt7J+2r2H8lrRpcSuVupufLwfQX/VCcJisyry0o5pvscGISuXnm/VrzlKIw9Hmqivj0ZhKADRpr6mdu8U2rVBX5Ge7mzh0e7Lup7sWyXTDcpfG7mG/Cqrg6oWvg+DQ/1PU7GIa9SLwUHdmr3o3lhxn+Goanh8lb3wiuvalulGGyc4PefEBzcsRJvaLVHUup+LHihL7qPXY5oY83rCpWCrRu1HGFiuWX6eX0GnlOHMoL3G9R25vGYNgPDtP2osu/SE8PU9wiNy5cWipueH8pd/Z+wepOR1GVJWiEiIiK6x+5NUHV8E5arz6WyHzMa/ZQmQma4G41Ny9SCr8NzGN1Xr2BaIaQg7qTW5GwbpuZ2JqD/Ursrlw7kFfpr+g4QYZHOpiNakfg6DoTK+6Waon8nL3j5+ilj8+6rykD0EfV+Kr+u8MrdXMVfDtM8MOhVP7VQHYflo9qjfZ9JmBt8BGcMWtlZIuPvaBwI+RYLPpmrdGjg/1RndH8zt+eGQnSFR4sCRXzl4dLGO9c7gzhttk16wuth9b2Bmo2sD+Nruvlh8uqj+GPvGswY5JEbiFwPmwv/p03ct2SSecsNew946JIHcFOkDxNNALu0aqG+02Nfs2CwpChuOqoJv2cnQPdLGQid0QOPdg3QdaZhsjknERERUfl1D4KqDBzYoF3dtsdzT3YxUWArKONAED47q3tvP+ppdDH3i+WGXgHYUjW90FUrFG8/oqtpuH4AuzaLv2oHFE4deupqYXLvq4rGYfV+Kr+BPfWCCSuWoxBNA1Zi+6Ln4KUGydfjt2H5mwHo8Wh7PFtUj3uG/t6E6U89ikd7+mPUa7OwZPFypUODaLFi5sVodoCt+tYcKWfVQFRo4YT66tvSZN+kCyYsDMHBn2fnXViIX47pq0zVIxlxIc7M5XZCi1bq28JUUf+apfjpyN57BoLXz4BfQ10mzrhwRNeZRsdH4T8jCHEW19gRERER3TtlH1RlHMHWYLVY7PAc+nfQvS1aBo7sDFIL1CIYe6L8PlD3enJel9kejfRr00TBNrfl2gSs+esUTp0q7DUDeWvpBK8easO1swcQLYLLjCP7sUkO/6OrrgMKNw/4KZ0KhOJwtNhS8dEIVXpV80DPDvr1M9YsR+Ga+s9G8O9/YE/QPEzo10LtGOI69n8yCqM+PmJeQHQrFLOemoog2QW7gwcGTV+INT/tUToy+EMs68GPtOiyBNWsmdeUVPxsuvq2LNRs/RwWLtAa5wFxW4/kBUpFcWqq1vgIlzNwTX1bkKxVUt+WGOvSUc0OE7By/x84umMlZgz2gpOSdjMQvXY6/F8z0TsjERERUTlU5kFVxqGtCFK7T7Yf1R9e5t47UexgrKyJQuEh7R4XwOth/eZi9VHfVX2LbThi5JlRhWnhO0y9H2g/9h+7ntuV+nO9tdo+D3T8h/JGua/qeuxhXY1WE7GdtZ7iFNYtR5Fs7NHUexhmLN2Oo7vnqYGeCBa+/Azbim5HiOuhP6pd7QP95q7BwhcHoUubpqhZuybsRXpJz8rUfViS7GuiptbL3YHdiDTRDC3u2AH1Xcmyb9pC3bfCqeS8LuSLYuOEplrvgMd/woG/1feGMuJEulTfN+kID6P3q1mqZNKRbA45YUEwDu5bgwlqOpW9MwYd070nIiIiKu/KPKiKDtNqm4BhPrnFyKId350bjOXWzJRDGRELMEt9hpZh5xCyhi2vw4kz+OxTC6/Gu3mhv9qJwKYj36pdqev/Rt78M0IP4NsDSj0Wmo7wyyuwK6xcDlOMzePhpzF6oPpeSDfjdzJu5YUU9R0N2njejUPouv3qQEnyQNcA7be24bNlRmrVzgZh7icWNM3TcyR4CULjTYRKd6/jwLpv8zqP6O2ZV/uEmqjfWH2LeKQUCEpbwG+YVv9zBHP/Z2xfZuDIJ7NyA9UWBdJDcVmRjoxNV7MLho3Q1jwDGebOi4iIiOgeK+OgSv+ZSn7oaMHDaGTtT+43vfJu7i9xZzdhatdH4dqmM6YWeCaPERFL0HfSLCz4RARTL3RG+2HLc5tutfj3CzB8/FbNfi/gjdyr8dPRVz6rKOQAov++juupKYiLOIDQ4AWYOmyJ+iwufR7oMlBd8+1BCJL3l+XrgELM36ur2LLC8a3Yqlzpt0e/TgWL0NYthzFHsODxcZgbHKrOQ7wuxOHAmlmYu06dRNaQGO8lIh/76nkr9O0bYrnC4pAilynsW0x/2h9zT5bG3rdHl2deyQ1m4r4MQOfRcxG08wAOhB3Api+nwn/AdJxtmBfuWCRuAcb1aa880HjSOwuU9KK8/jcVAY93xqgvc1MNJo/xy32ellyumnW09RWBy/sLsEksz4GQBfhW7eylacAMTDayL+VyH9gpAsHRnRGgzd9tAuaNKZmQSipeOkpRnqs19ctNOBKfoksrqWcQLdZp+ifadugHT3W+REREROVdJdmvuvq+9KVswrjOU6Hc297kDYTsnWzmFfMUbBIBy9Sd8n1TvPHzHkxurXxgAVGQG9cZ05Uf98O8/SsxzEgTqCPzXEUBVB3ABAQXdT9RxFy4ikDKUItnlmLF3H5GurcWzm7D9LHag3JNMf7bGWGz0H70t7kBpses7QgZo1/Qj8O3T/fFrOPqIJ7Dyj9mw89YHFKs5TiCuVqPbn7zcHDlMOjiJL3xxjh44Y3ANZjcxoyASD6E96kALDGyXLKDg4VP7sek2boeEvw+OoiVAXmRWt7+M7GPLwRhXNfpujSYb/l1zmycBP83thltfmffex62j4tDj1HqWr4YjFPTC00dufKnKxMcPDDsw88xz/ARAzEicH9qQYH7rCYEncIMb3UgJRRzxb5cLu9DM8G+9QQs/XoG/AwC25Tgceis9qiYb5659PetkXRpcTrSz4vGtMCwz1YU3A5ERERE5VTZ1lTFndAVZqUeHnpNnIpwNw4nlIBK8oNHKV7B9np2IQbJHskcnDBowXOFB1SSTX20yO0SviZa+A7CjNUHsf1DEwGV1KQf5m09iOCPJqBfG60zB0l8v01XDJoyD2t2vGL0t+076T0zSOlK3XArtoBXf73C6KiepntJtGI5CmqB/u8/Z2Q+/fDc+yuxfV+weQGVZC8CsJ+2Y+GL/XK3rX1DD/R7fQ32fj8BXtq9T6Wg6eCl2PvzQr1ONsRauPXDhEUhOPjFMDS1qHe8PF4vb8eaj2bguX4eIv3mbSGZzjxEmpmgbKMQ44FE68lYs2YGBnk7qTW09nBqLbaNfnDk5IcZP4l095WYztdD7fRBUOc/46vtOPhTwYCqRFicjmrCK2By/uVU1kk3bfD+7QyoiIiIqEIp25oqIiIiIiKi+0zZd6lORERERER0H2FQRUREREREZAUGVURERERERFZgUEVERERERGQFBlVERERERERWYFBFRERERERkBQZVREREREREVmBQRUREREREZAUGVURERERERFZgUEVERERERGQFBlVERERERERWYFBFRERERERkBQZVREREREREVmBQRUREREREZAUGVURERERERFZgUEVERERERGQFBlVERERERERWYFBFRERERERkBQZVREREREREVmBQRUREREREZAUGVURERERERFZgUEVERERERGQFBlVERERERERWYFBFRERERERkBQZVREREREREVmBQRUREREREZAUGVURERERERFZgUEVERERERGQFBlVERERERERWYFBFRERERERkBQZVREREREREVmBQRUREREREZAUGVfeBlCupWBK4XvlLRERERERlq1KOoL6nCkgJqNasR3TcaXi0aI73pkxQP6HyprhBr1Od2uo7Kg1yvxS1jc2Zhqi49I8N5qQzeRFtWP9eTJNEROUIg6oKTD+gkuqLE+ySWdOU91R+BG3ZiXVbd6lDlntGFJ6GDeitDlFJkHnmc5F3ktXCrLwg4feYFzxaNs8tqMqCa8xfp/NN84zYD/IvUUkIPXhESWcacy+Mvbd4uTj+XxXTjmdgRURUTpRNUJUUgld3LEGMOlhAtcn4bpg/GqqDVDT9gEoGU7Lgx5qq8kfup5dnz1feF1UYl4UkuR/l/nSqUyvfuM9FsMzCU8kwDHK1/CNpgdM6MY12sULSn6Y8BbnJ2xZi8mZg/Iyp6N9AHVmIE1/PxOyjHpi1aCQ81XHl1dWwlXh5fTL6j5+G0Z626tj7yzOvzVT+aseG1uKvsbSlnxYl7YKATJdlE1ilYOvchVjRaCTWjfVQxxERkT4GVRWQfkAlT8byRCwLiSVe2Lt6Cls3bkHIH0lIzpAjbFHLxR0jBvmjV0tHZRLNnfMRCA4Kw64zKbh6R4yobIsmzbzx3KgB8KpXsEB0868wrN60G78lpuOONu1z/vCqo06gLzsNp/eGYPX2WJy4mSVGiOVo4IFJrwyDV03dJOWVVoA3Z9/IK9byyrUMjLVC1mQRkJVkUHUy8H3MPJguCqpzML6tOlJz/RR2rd+C76OTlH3oUMcF/Z4ahhEdDX73dhLCNm7E90fVdFGlKpq3fByTRviheTnfHzLPyKv8sjD68qihudtZjg/9/Yiy/TXys8liGm27y2m0wqz+PrJKwhZM/iQMyQ36YMkMP9RXR5urogZV5ixH8s4lmPpz2n0bVGkXXGRaNNXCQDsmFMbqwOpOKo5sCUHIoXjEXs+CPHxLVey98d5Hg9FKGWJQRURUlDLuqOJRTOmzFb+OMXgxoDKbYUAlC3cx4r3k0dJV+VtiEqOw7boT/AcPw9ujxWuwN1yvRmPpZ+LkekIGN3lSTxzGiaoi4Bqhm/a1/u6ociYcH8xZhq0X1YlUN48FYupnW/BbhicmyPk+7Y1aF8W07y8pMC2yxcn8k/l486dE2HXoo1uO0X3QyyEdV2+r05RTcl9pNSLlombjYihWiYDKqNvRWDFvBZZG38HjIpB6e/QA9KuRjA2r52PmjhR1IikVWxcvwedH78Cz92Ddvu7jBvy5A2/OC8SJcr5PZA2UpB9QSUoANXKoUkCVdAXVCfkKqnKaHo91UN5r87HWyf0RSHVxRquLETh4Th1ZLojAedkSfLBTf9+Xrfq9JyPwk+kWBlRpOLF+GV7/IVYdrrjkBRktoJJpz9RL1moHFbd5scz3s+bjg93xyGzigQBxrH9toA/6d3KHu9jsmepkRERUNPb+V8EY65RCDkspl1OVk7DhSxbui6XtYHzy2jD079IOXh3Fy88fb88YDN/K6di672juFU2pfp+JmDNxAHrJ6cTLt99IfPSKL5pkJyFkf6I6lZSC336OxtU6vvh4+mDd9GK+s94cAE8x7erN0ep0OifXfYEVKc6Y9OZ0vP2Mr245OvpixGuj0cuMK/P30m6x7SVZS3XvpSFs7Q4kO1RVh/NL3rsDW2/WxohXpmK0n7qN35iKSS5iH2zegRPZ6oRCfZ/R+Gqe+Kyfd96+fkkExjej8f3ee1cIN4fMKzJgkvnHGFljsG7RHJM1BzI4lt/X8pxVMqKw5VA6evcZhscbpGL9nvIUCKQiNiYJN/JfO6kA0nE2NhFnb1W4Bc9HuyAj05qspZbH+sJe8oJAcZzctAFbbztj/JuzxfF7GIaIvO/bzx/jnx2NWXMHl/smokRE5Um5DKounAjBsh8nY9jq/nhilXwFYNyPq3DQWHntwiGsCZmeb9pn13+FyCvis9Pf41ll3CDMPVLwmlvmkQ8xUPl8CSLvqiPLGVl40w+QtEKhPJFK+gGTbCpi7CWbmMirniWi2sNwdxJ/L98Qxa4iNHNRTsrJV9N0w4pknJO1US4uaKyf+mq5o7MIku6cTxFTqK6G4fv96fAdPAa9GqnjKhCtlqpnZy/l7710dW8gPj/vgUn+buqY/JKTZOZyRqtmumEdR3h6ip2dnYyzuXmvNry6u8PB8Mjh3go+4s/JpNy9Vy7JvKPdG1Vc1n5fc+dYFA7CA53FNvbp6oybx2JwUi94pQdX9F+6oF3WjBbVrE87R1h+8SwFp+LTAScPeFXA4ysRUXlT/oKqpBDMPbwE666dQaZNQzS0qw073EDite8xc/OHCNMvn58Jwavb3sHXV47iiijsNbQT09tm4sKNGCTKVk7Nu+FpezlhJsIuGN7RlYnfz+1TmjfUaNgLHWx0Y8sTGQjJ+z/0AySpdcu8q+zJV67CTxTaC3vJgqRWwLda9hUkXwcc3FyKvv/jairOij9eYto89dFY1jCJAsBV3Qgddb5VGjnlzjf5YAROVPZA707Ga1fKMy2Ildu+JO6Fssr5UHy8MRmPPzMEXg7qOAP1nWWknCoCYN2w5uplkeEq10cT+bEZqlSpGPe+FLf2Vvue3K/WScNve2Nh16kjPMVRuFb7dvC8HYEth03UsMj7XtYtw+tvzlQ6Nxj55kIsDUvKV1ucj7w/7usleGGaOv2sZdhwIs2s5lzyfqdnXgvEVvH+5OaFyvefeW1h/qa5l6Lw/aKFufN/Ztr7eHNRCI7Ii1kl5Vhgwd/N1m2HN2fM0v3u67Pw+qIwyJaT8v4yOf0KOf1R+V3dsq04pnzzviXv89PODZapjdoyX6ck4rQlzXZF2tq6bD6ef11u31l4YcFGI/s9C8mHQvDB3PcxUt0Pz89eja2nDJofa/v4vNivgQt185wbmndh7XZi/nQ8YwmWhibipvoxEVF5UsZB1R9YvEOrUcp7LT6ufqyww8MN38d3Izbhx1HfiL/fY/PTb0HXgGo3gqIuKO+UQOmI2vlFrbfEtN+LacX0o8T3ugTARVkzF/R+uL18g8yUfflro+7GIPKKElJhQLNHdePKEf3mH7L5mHzJAMmQbMYkm34U9ioZWbhzLhohnwdha5V2mDaokPu3srNwNSECKz7bgliXPhjvq9+phRMef8oDtRK3iIL+KdyUV+YzUhC2IgghGc4YPVC7CToLpxNSgGauaHI+HEsXaCdn9SR+qXw379Huc7vnTf/kPWnf7kBy2yEY3dF0cFq/ex/0d0jC8i+34LQIbuU+TD6wGh8fTEergX2Ugn+h/jiJ38Sfzu7Ga8LKC+2ChNY001La97R7q4rt4mHsTKyKXh3cdcO12uFxFyBsf0TBAqN6X+EH+1NRv9MA5T62aQPdcHXbMry3R/8qk0rv/jivPrr73l7u6ojwb0Qg9pc6TSGa9JT31Pkotcz12+p+T95j56XrkBI3jwVh8hyRXy9VQy/l/jv1vjp5D6W8L/K8brqSl4awxWI7HLwNz75DdL/b3x3VzyUptea1lWUdgF5yOZv5qMs9DL30r+mQHlt0fqoPWiEW899Zgu+PmXGh4WYUVnwchBON/PDqs2L7934YSIzAB4u34Jx+LatMI99FILXR43hZ7ofhvvDMiMWKxSsK3jcrjvWRQavwW/Mx+OaTOVinddgi0/H7y5Q0q6WzCZ538NvGZZj6wynlm0RE5Un5q6ly7oc3+nVCQzt1WKrVE73r6t7GXM8LqjL1gyS9mqYarbqhg9rzRZ1WPaEr/uzG73HKG52Yfdgi/9qPwAC1XFNeyfs45Es+R6c4rGqupFxJ1AUzIz8KxK5ag7Dw3WHwrKZ+rkd3pVhM+7oIfD4JQbLXRKx6Q5wgDVKZQ9uR+PgZN5wLXaG7MvnmQiw6UQ0jXpuo14NZKlIviz9ZUVg6XwQFLj0xTRaiBrqj9nlxEjfSAUZ5ojXTNBYIl510nFj1BVZc9cBrwz1gopJKp5oHxk/zh9elMLz5jm4fTl4bixp+EzGnTxHVVLLw820EMhv3wYiO5bumSj4wVau5tbS2Su5T7UKHtR2PnDsYgZPVPOGTe+xxROdOovR/6jAOGtQWJu9YgxXnqqL/2Kl59xXK+xvfHYnHxT7OLwsn1qr3ych74vTve5veE65m1EjUaibvqXNFE/m+ibvu9zq6o76s9c+IxtrAKFFY7oOFsydihHL/nTr/90eif7UkrAgMy18LXVIuHcYWUZZu3muUet+f7nfnzBmiBIBVGslldUdzuZy1XNXlbofmajBIRojgaM60Aegs9tuGFfMxctZqhBQWXP0VDzwzFdMGqelq0Di851cbuBKBnfoBe2VncTx/Gx+N9YOv3A9dBmDaBB/Uz07CrsOG7fhTEes0AK910a/9VdNxtgfefmdybjrrNXIqFvZzwtX9OxAmL/4QEZUjZRxUGe/9b0ob9WPN7QuIORSCr0UhfWbQ83h2zSDMlAXsfGqgfZNOUGKvqx9i2Pfv4OtD8VAqn/TV7Ymn68ipbmBL4h+6cULkmW1KU5jWTbrhfr6QKQuCUrGbK7n45l7xndTbA/VjgzD57SUIMWzGIeiuFMtpB2O8rxtSdy3DmHcCcdCgaUjyjiV4ed3fqN++D15Tph+AIc2yELxoIVb/oc1XvfcqMRn1x/4bs9TCpFJ4E4FaK9mpxaYo082fKjDZtbdsPihfWkBcnCaEydtWYO6xOhg/ZaTRIDif86GYPTcER2qJ4Gq4ur99XZC5dxne/CHWdHObSxFY9H4gdtq0w4wpBQPo8kZuR62W6b3FK8wOrOR0spmVZHUtFU5h5/5UOLRtjVZ628uhvSg4Igkhe5PUMVIKDh4ShVCXnhja1qCmsYo7+vsapIvsaPx2NB0OnZ5Af8P7ZOr5op+VPQ/cOXpYBGwiwPM3sq9FYO7fQwTgiVEIv6SOK0mOtZXfPHviKM7pZ/wK0uS03Grsi2nvz8aSZ33QJjsWq2VwtWCL8SaBTj7wN0iHjTuI84II7u8oj91QefphiKtBenUVga74c/piwfsuO7sbXNnMOIqdIh3X7yyO+wbHrvri95ojEbEJ6ggionKi3BWBbhxfgmdFIPVqzBKsubALf90FGtXsh87KvVH51XnsLXzq1k3pjj0z8xDWxEzGsLUvYu4B/d7m7PBY425K8HXj0lFxKBbuHkVYigyp2mPAo/d3Z+6ygC4VuyBYyyX3im+vQSPx9uypGF9fBDRfbsAJ/ZOooLtSLKf1Rv9nRitXrnvfjcb8L/TayJ/bgg9+TkKbwVPzrmLKnuZen4oZbW8j5MsgHFTmWw1V5MnUyEkcjXpiUGtRwIs/hRLog61UyCBWBkT698MZe2lBrz5507msEdHugytOE0LZbf3MzVfQe+z4goXrAkRB/ssdiG06AJ9PH5nb22OvZyaKfeSB1P2rsfyQYXPLLJwLXYnJczbipNtgk7WX5ZFS69vZS9k/5gRW8nPZ66acXja3tbaWCn9EYZcITHp1NChI1vRGL5Guzx6OUu4R0klGsoip6ru6wGiFi41BQJGiu4+xg5vxZph2Vh7xU6/KKyQPw91E69/6jWTDrSSc0xoUlCT7dhgx2A21z4di6puzMPPrUJw4X7F7+Ss/bFG/k784vovgargHap8Nw5vvi7xt2HGK2L8F7qWtVk1Jm6fO56+BunP+FHZtCsKKZUswedY8vDBNd59eQbXRxFl9q7l6QzlnJIcuU1tK6L3mhSrHfcPfIyK618pXUHX3D6yJCsEFEQK1bv4lNj+7CUEjvsHH/pMRYPShojXQwvcd5b6rL1qPQGc7ETrlJGLXyVfy9fZn124QnpbNAzO34Td5NNaa/jn2w+Nqs8L7kSwMygJ6STRXylXZCf17eyhNvg4WdX+GvHItr6RfjMYR9cr1ud+jRKHPA/26G9a8VIVnT2/Uz47FkRNyuLZYbvGnchU5YMAWDjJKvn3brBvv7wUtiNV6bTT10hej9vilfz+c7OXR8n2ndluPdGxd8X7+AskKXZf1W1fIYbUTgIQobBVl5cd9fVHL4Ijg0NYXA0SJKeyYXlf32Wk48t18/PunK/B6dhqWjBf7zdhuKsfkttUC38ICKy2gksGv/mMMii8LB8PkfVPpCPlcb78or1mYL28SvRqBnXmV6goHe8siVjvb+7P2pn73cVgybyre7imCxj92YPa8WZj8XTQ7LigplUVw1WUkPnrWAw43I7A+X89Qgvi8aOk48d08jJm3AqsjU5Hp4AL//gMw6Xk/dFanyM8WVUyURDx9dbXmxl4j2haz9QURUSkpX0HVxThEK/dJuaF3CxfY5d4ndQGJN9S3xtjVRotOYzBn2CpMqSFHZGKXfm9/No9iQGNZI3UBOxMTEZO0W0xhh17Nuomw7P5VYjfVG1UVVcwuSNuihtJOE7iZKdvtZOFOIe32rt6UJ/LacH24qijVJiG5QDfTWWI+4o9TXk+B5Y0MhGQBXD9A0l5azZMs1GvPS5K9PMoCvhyn9dooX6aep1S42vDSHths+Oqua+zq2V0Oq50PZKQrhdLMrEKu+t+4nVtwPbluIT6IqY+X35yG8R0rbsFGPouqsMCq5AMqIeMowk+IfZ/bVNbw5Qsv+Ry4MK1pq67G9vSZv402db1zy6AZbrWqyjHthDjOFaTmGyvUriWvdPyN2FO6YUPJ52X9ggvcS7NNtb0TvAaNxpx50/FRdyckHwrE2vu8h7+y5tDWQ7kX+cbtgs28i3QxHN8fSkPzflPxzayJmPSsv672u3X9wu/r1Kem42RbcSxTW0oYvjwbsdknEZUv5SuoyhWP6HN5UVTi3g+xrED77lQc3HcIF/IVEjJyO6+oUSV/e0GX5v7KvVOJyauwLkXOuxu6P6KW9O9DskCoNR8rsVoqSfZEtjNanPQ84dNSHWfK7WiEhImCqosHPNWaxuauD6MKYrEp1LDpRjqO7IxAsggIPN10vQW28vVGk+xofL/DYNrzu7FJxMxNxIm/vAZVkiyI6wdIuYFSS13bKac6ugZdMqCSBXdZwDf10FnL2KL+o8YLIl4tddu2SUs5rHY+0MwVHcSR4OCesAIB7M3DYdh0VUzf3EVXIFKfHdbZfyR874Nn25gKrEoloBKuHjiIMDiid2+1w4kCrz5KE8A7MVE4ojSDdYWXbCUYE1awV73rEQjea1CTUNMNHRqIwujBMBwxPGae2oK1hk+WKMLplPw3RFZp30738O+Q0IIXO2R+35OCKq6iwGu0ZYGVskXQr/+blR3RvKu8v0asb75n4QkpKaXTWUYZ8WipS3Ol+4y7FIStC8M5g2bc0s1j0YgUf2XesFhKstI8r0mD/B3c3DwUpfQQapaaHugsTthG0zERUTll856gvi89aSex5dQhcQi/hN9PfYfVUYava2jT/jE0cqyGG3+G4PDdu+Jk/iM2RG/Dz8dWYs31x/BUzZOIlRfNHJ7A6Jay1ukaDoe/humRQfj5j2346cSPWHv0O4Qpl3MfxUSfZ/GIfk/etRrBLn49Dtw8g8QcEXQ1fA1vPmrmw3fugVu30/HLnv1wqFYNT/p1VcalXLmq3CPVrEkjPNZGlLwK8UvofqVbb1krohXiLSO7cf4Kv5xNR1b6NVw6fxHxx/dizeqfsPmKI/qPfg59GmpXCqOxetZG7E9Lh82NVJwX0/4RsR1LvwlFxF1njJ8YAE91X9g0dkaD+KPYLE6We/68DBtk4Xp8JIIC1yLwVCaa+44S+662rjPHmk3R5MLv2PBbOCIuVEK17GtIPL4Ln313CImN+mDO823gUEmZbYUim/3JfSN7c5SBb8kGVEW4eBzrIlPQwqs3vLSeFm0bwrXG3/gtPAIhB+JwU+Shu9dO4UDIBnz4awLuOvng36O9UVfu7ugwLIlKh7ur2EepF5V9nf91DTZ168GhAl1ElvkrJfWqsh8OHf9D5LmqeO8zGWBdLdGASt5rtGPVLkTZP4YJg1vCeNxRGU2qXMSPR/7A1RqPwa+ZPeo72yBq33Hs2heJy5XsYHMtReRFkQ9WxcG5tS3iLlaG1+M+aKFUuzvg4dqXsfPgcfx64E/ctbHHncsiP+77CfO3Ae1cUhB3pT78BrQp4oJEJSRHinwXl4K7D4l5xEQi3rElXB5qiDbOF7FrT7iSVjIrV1HmryzP8l2IsPHAO/8aAJciarGTj+7CngvV4Fy/Cm4bpqFMBzSqJaJ9Ja3ezFu35L2Y+f6POJltq2yD8+fjsCM4FAdvt8So0Y+J7Sbn7ID0ODHvv5KQWrkW7FIOIeqaO1qUw6svxo7xGjlOHhPk36JsFvO4KeYl52HO9HluIean7/DBpr04EHseqdcycOdsFDZv+wWLZL5v3Af/DnBVj7G3ECeOw5GObTCsg8HGvJmAXb+dAlr6oHcLB+ChLJzdGS32gV76C12LD04CLVKvIbmh3jwM93EuezRvLtL93nD8FHocl3O0fX5W5IVf8fX2VLTp0sz8mi8iojJQKUdQ35eepBC8ukN9ppRR/vh4zGRd1+dXj2JN6OdYcy1RaaLn8tBQTOw2BnaH+uPfssLCaR5+HSifPZWJmH2f4OuEQ4jOuqHcW2Nn0xAedUZgYtd+aGHkru4rB6Zj2Mmj4l0NPOMTjInlvCv1ybPnK1fQtSZgspCnNRHTajlMkQVE6XNRUC/ew2ezcG5vEJbviEXs9Sxd06MqVeHp8TiG+vvCs55+qTkNJ9YFYnVkEk7f1DUhq2JfG206+WF0P280Niw9Zqfh9N4QrN6pzdsWtRo4o1efYRjRyXBZ03E6dANWb4/FCTFv3Xz7YPw/2lW4+3g0+jVT2v4sk4BKkl3kr4hG//FzML6tOk51868wrN4UhoNn05Tnh1VxcEKbDj3zbWvZbf7kzYXdIO6E8TOm6nWNX3HIjkP073Mr2YBKOLcFr38Uhky/iVgyuJD2cbIHthmrEVKzD5Zoz+y5EoXvv92BbQmpYt+I/OLijhGDh8Dzry/E/kCBbX7zlNiXG3fjt8R03KlsiybNvPHcc/6w+2kmZh/1wKxFI5VuyAt1PhyLvtiCsKsy37njtf+MRmc1L988F4H1a3/FLi2taPn9KZHfzSjXywcMz5aHYmPaj8S6sR5qWk3OW7eMUwj5YhM2nUnBVXlAEsej5i29MfqZAfCUrRI1t2Px/aJAhJwXx5Yqjhjx8nQMKc51pTJgeIwvDqsuylyKxtatYdgVox27dcfix7v2wdDuIqDKbcuSgq1zF2JFI3Xf6LsYiplzdwADp2JOP92FypunQrH82904eEXsA5H+WrUdgJefdcRW2VmFtn8lw31sSD5keo2W7sWw2Of1G7nBv98A9PfkPVVEVL6UTVBVTuQGVfYvYOXwoeW+K3XZpfae3yOVk25xyFqqEm36RyVCdkqgKdOAiook85ysPZTNNOX9b0SlydpjvEamVZlmiYjo3nmAgqpErFv7IpZlAC7NvsTKHuU9pMpjeAO9uYpXQ0WlTbs6zYCqfJL5jXmHylJxj/ES0yoRUfnwwARViXtfx0un/0CmjT8+HjIZHaqrHxCVMdlcZ92WnSXbtIyIiIiI7pn7PKg6isWrpuMndUh2Nf2011eY0ibfHbFERERERETFVk67VC9pdqhh3xNTujGgIiIiIiKikvVAdVRBRERERERU0h6QmioiIiIiIqLSwaCKiIiIiIjICgyqiIiIiIiIrMCgioiIiIiIyAoMqoiIiIiIiKzAoIqIiIiIiMgKDKqIiIiIiIiswKCKiIiIiIjICgyqiIiIiIiIrMCgioiIiIiIyAoMqoiIiIiIiKzAoIqIiIiIiMgKDKqIiIiIiIiswKCKiIiIiIjICgyqiIiIiIiIrMCgioiIiIiIyAoMqoiIiIiIiKzAoIqIiIiIiMgKDKqIiIiIiIiswKCKiIiIiIjICgyqiIiIiIiIrMCgioiIiIiIyAoMqoiIiIiIiKzAoIqIiIiIiMgKDKqIiIiIiIiswKCKiIiIiIjICpVyBPV9qUhNTVXfERERERER3Tu1a9dW35WsUg+qiIiIiIiI7mds/kdERERERGQFBlVERERERERWYFBFRERERERkBQZVREREREREVmBQRUREREREZAUGVURERERERFZgUEVERERERGQFBlVERERERERWYFBFRERERERkBQZVREREREREVmBQRUREREREZAUGVURERERERFZgUEVERERERGQFBlVERERERERWYFBFRERERERkBQZVREREREREVmBQRUREREREZAUGVURERERERFZgUEVERERERGQFBlVERERERERWYFBFRERERERkBQZVREREREREVmBQRUREREREZAUGVURERERERFZgUEVERERERGQFBlVERERERERWqJQjqO+JqBy5m52Nu3ezkc0salLlSpVgY1MZNpV5fYiIiIjuHQZVROXQnbt3lYCKzCMDqyo2NuoQERERUdni5V2ickaroSLzye0ltxsRERHRvcCgiqicYUBVPNxuREREdK8wqCIqZ3gPVfFwuxEREdG9wqCqgrm+ey46deyBwctPIEMdR4ZuYPvsvnB/fAyWHs9UxxHRPRcbiMGPd0Gnt7bjkjqqoohc1AXuHd9A8EV1BJVjmYjfuhgvDugh9lkXtK2A6a1CuRiCF8V2dl90Qh1BRbp7EitHivTZ+22EVLRjytHFSr56cdNldQRpSj2oil/7grLxh69NUMcYkylOWEPFdEPx4dGyKgRfRvCr4iDwaggPtlShPffv99R3FUNFW14iqlhivh6DgTMDEdnAD+MmPI+ApnbqJ0REpafUgyq3IRMxqjoQueRrbL+qjjR0JgQfrk4Cuj2P8e158CtMzZ4zcOjwHmyc4Al7ddz96uzuBZgyclYxruLUQN9Z2xH72ypMasP0RFSm0k5g5btTMHC5kavW7iOx8bcDOPRhX9RTR5UfSdj+wdsYPLN81mpcPxqIaZNHYOlRdQSZcALbVyYAzhOxasVsvDVpIt59xa+E0lv5TiOlqrB8XUbuqzxg0wrjAvcgducH8G+gjqMKr/Sb/9l5Y9xrnsCt7Vi48aQ6Ul8m9nz3KSLRDFMn+5fDEy3dKynHgrE99gabORJVJLdOI/yXCMTfVIcrjCuIDA5FTFr5POJkJh5GSHgCrqvDZMLF04i5Jf729ETrEn/KQvlOI6WqHORr5gEq78rknqomg17DOGcgfuWagrVVsYH4MDgT9gFTMM5dHUdEZvv2YzanIyLKx6aq+oaIqGyUTUcVdp4Y/0JXpbbqw2D92qrLCF6yDPHwxFvPds3fnO3iCQQvehuD1RtN3Tv2xcDJs7DyoLEb407gQzmNqfujLLmpTn/aWwkI/t8YtBXDbZcaVHlfjMDKd19At8flsnVBp6Fv48OtJ3H9rvq5uYzOJwEZpm78NFyXmG/QWy7fxxEmanQSsOY5MZ/HFyBc/3a1uzcQs3Uxpgztq8zP/fGnMPzdQIQbaWqX7wZtsbxLp41AJ/kduU+mfWP0O4VS1nkKBvaW8xCv3iMw5t31iFGXT/d7XTB8tRzaj5kD1ek6LkakMkX+ZcqID8FMecNnxx5YeLzg57n0t6lc/00LMFy7kXnAC/jvpkL2393LCF89K3d6ucxTFm1H/C313jy9ZctVxHpS2Ssq3WguHQzEtPFPKXlfl84XIyT2hvppnnzp7LKJvKybNE++dCjS1fIpuvz0ukGTIgvyaO60I7Vl7oFuI8Xv7zNyzEs7iRBxbNXSpUz701ZH4JJh2rc0v2jTD5yLPXJ4te5+WvnKPV6ZOK7l244WHmOux4rzSu70Yr3Hi/NEhPg9s4/76vmj4wtYKQf3zUU3ZVi8DI+/mgLLKNJHvOmMbW56MubSpjeUZek2e78yvHK8umzK9rqBkLfk+zFYY+q25YT1GCym771cPffm2we6Dh0KpLFCNpkl66JMO1nbTjJPTME0UQawqJ7H7LKAuh8LS3+FKfR4bVkauXQ0RKTJMbnHAt28TORdS/OZPnPzsqROm7sdxb4eLPbdnkLylsKcfK3PyDqYXCYxbfze/GnE2PSF5wFlVOHSErBHnL/HaOlc/zhhqMzKgIWUHSQz5h/zteyLoAc+NNIc8vqvs/LWw0D82jHis4LHDGuOUwpLzkP3qbIJqoR6T07EVGfg7NKvEaLWVmXs+wb/3Qc0Gf0aAprqxkmX9i3AwIEvYGbwcdh3CsCkCc9j0qguqPmnOHm+/BQGioOP9ZXvdRHw6QHEfmqqyeF5hMwcg5kbdSeADL3zpW75poiEAnQZLJZtwkj0cDyMlWL64Z+Zv2wZR5dhcICYzy9/o2nPkcp6jvLOxKY5Yj5fmAqSDLTuigCxXTM27UGksXN6wmEEx4htPMYfPtrtReJAsWbakxg8MxhHXPrptu9Ad5zZvRhjAsRBKkmdzkBGxDdieWcgvK4fRsll7W6Hs7uXie/MMn2/nIEMccDSbbt0tH5Sbjsxnw7i4PDLfsSk6qZxaqsb799GDjmjx3Dd8KQJbeCkTKHn/HZMeX4ugmPlymciw6wD2mmEzBiC4Wuvo8Mgsd1H9UXrzBNYM1ts99VGmqjeOoGFzw3BGBlEqTc+TwrwRsbWORg8YRnCjewoc9azpJjT8YOcRv9lTFHzMfa5/jyL+r4lSmu+uUylGxHk7Pl4BLq9LAobdzsq6Vw59kSKk83IF0x3pHNGFDz+8QZWpD2CZ0bK7/SF29VQcUwYgcEmj1fXEfnlKxizNELXnOWu3lSW5NG7SQjWpm3QU5c+R/mhaep+UWg4r06kkxG/Hi8OHCMKtsfR5Aldugx45Dy2L5qCXtNCcNZo/jEzv1Rvjh7yt4d3RRM53Kavmm+fRw8X8+4AtfQYc/aXt9F7pCxgp6FDgPytkRjUOAlLJ47AzJ9MHMgKqIMOynL2hcii4pDTVbff5attHWWKfGLXY7hYxj3VddPpllGkj+eN9OJV3PSkx86lq7Iso7qLA73QQT2eTJrQFW7Va6BHn75i7EkEhxuPqmLEssWI42jA463UMRqR/haNwcCPj8G+21Ddb3jLY5RIYyItFzgPWLQusvMpddqbrRCgLG8AfBCLkL2xSFOnKoplZQF1PxYj/RV9vDYzjWjbaPxcrIm2U8sHz2Nctxq67TpwRCH73LLzkkV5OUkcn9RpnbrryhrjejZCsihEh+c/RBRkUb5Owp6PXsDwpUlorbcOIWKZRn9Z8Dh46ZdZGPi6fhoR6+D6tzJ9r4/2505feB5QRhVCBC/iOPziogPI8PBXvzcILRJEGpo4RJRBTe2P0i8DmmLu/Ft38IO9yGvbIw3Txw2E796uvNtz8LhBc8nLiNwvpnfuiQ7N1FElcJyy5Dx0X8spQ9d2vJvTxssnp9dXsTk5WbE5nw/xyWnl+27OtlR1AuncppwXxDSthszPCb2kjtNknctZN7V7Tiuv7jlv7EhTR0rHc+bJ70zZlJOijskn8lPxHZ+cF34ynKER6rSj35yeM2BqcE60/rJJF3TL10Z8FndTHafIyDmycLj47pCceZEZ6rhC3NyXM9tXrv+/ctYlquM053bnzJDbRq7TwuPqSJWRdYn7frQY1z1ndnjB341eOURZps//VEcoyynHDc+ZHWawPeS2l8tksB2PLJTL0j2nTS/DZdXW2SfnH9+fVscV5lzOd2PkOot9m2/bCRdic+Kuq+9Vut8Vv3lBHaFH99krOa+8OTznhe9jc65lqR+ojH5X3XetfLvn/GPhofzf0dbdSyxbvs2YkRM6V5fmXthwTh2nEulx23u69W/l9WnOEXW0petp6HZGpkWvgFdnGB2vvYx9bs44S4dNjTN8FTVNcecrX0UpKt2k/PQv3b4W6TldHae4KY4xMk8+JfazXvrIzRu+w3PmHdI/Jgnad0Rey8t/gpYOxTHmFXmcO2eYby3Lo+nh85Xj6j8N82BWWk50nN73M8TyPCW+a+TYekast5xHvmNksfKLoH3P8Nglmfgsdztacow5HZzzTzmvIZ/mHDDIU+nRX+f8U1k+M4/7isLPI/rL+F1c/pWO/kq3jL1WinObHkvTU2F08/IR5xd1hCbjkO5c8qw4J6mj8ojzrNznY4Jzzqhj9Per99RNOWcM8oCWFtrM2J1zTR0nWbQuibp902buvvzTCil/ns43X5OKVRYQCkt/RllyvC48jZzZoNtHAz7al5NisF1zEsVyyf1kWOYpTj6zKC9n5Bz4SG6rCTnfGZ6mr4v1M3J+NcqcfC3XwXDdL23LeUNZB7HeBvk0Zc+anHV/Guy/nLScbTPk8hY895vMA4W6lBP63aacaMPzbupu3XIZ7suyKgOK5Vo3RW4X/bKDYMn8s0Q6MLYOGaJ8KdfhxVfE9AZp57pYbzl/vf1o8XHKSDnU7PPQfa7Maqqkmj1HYZKIjGVt1cq1a7A0AegweSz61lInEBF3+Jr52ANnTH3/DfSoq47W2DgjYM4HCBDThXy3DWfV0aUh/Fdg0qyhaJ27bDqRa+XyeeKt14YaXCGxQ4cxYl2QhDV7jNR2GLj063qsuQX0nTk7Xy2dwtkP777mrw4Uza3bIHQQ2yR47zGDKyQnsWdDEtBmJPy1+9UubsPS1UnKPWxvdTPYwM7+mDrGGdgXitACVeqZaP3CFINlFes8fCR6iHcxB0+a0RvSFZyVzayaNUMTw6tLDVrBzVF9b7YIbMdYzB/eCjUtuiF5EKa+4J3/O2LdJwXIqrxNiIzVjVKI7bUmOBN4YibmD9ZdJcsl0mPff4ttog7mKen1LD5Zy2Psnis5zpoaoIo23/xMpJu7J7Di4/0iv7yKt55plr85cnVPTHrBD0gKxvYYdVyuTDiNmY23vGuowyrxnbfen4gmSECwvDJo6NeTaC2Pc84GPVRamEfTLiYp+b51U8P0WQOt3fK+f2mrOO4m2WHUv6YUOLY2eXIiJomv7/l1v5F8bEF+sYplx5jInz5FpHKumAIfgzxl3/p5zHnJsGamJGTCbdwUjHLLv89a++uW8azYGLnLWOz0ZCG7tug7SCxPzCYUqKyK2a/UOPUY4qerZdB3qyveneWPJgbHziaDZmPOE0DG1t0I16qULF2Xy0lKkya35s75pxXquTdDTfW9aWVZFiih43VmBFb+n9hGzhMx/19dUc/wnNTUH4vniPP6re1Y+auxWlTz85lleTkNZ8/ImoZH0MTgEAFHsX4l2fPcrX6YOtlg3ev2xShlHbYjMl43SlOv+0gEuBscN1EDXp29xd/9iC+RCo666DHKH60N92OtNvCR1Y77EnBGNyaf0i4DmmLR/G1awWeg+LsvAkf0q39jDiMYfggY3Erkv/2IOa2Ol2KPI0T8CfBWj48ldJwy9zx0vyvToEomgFGT+oqdFooP/287MqoHYOoQrf5RSkDkXpH5W49E39bqKEPV26JHf/H3+H5ElmYzzQB/vWBPcwJ7ZAHbexB66C+2ppazcuLKiD9dRIBxA0cOikQssod/N8MDio69exvlJG2Wpl2UpnIFmgAaOaFeiggVGRYY1cfgHjZV/fpyxYwdzOzg42FkpRs0h5v8q990yaRm6KCc/D/Fh2staXts2qhBfmacoA14t4GH4clTaNpcHsjzNyG8fjxC2V7+YnsZ/Z3q7ujQTX2fq+TX80FRWPBkLNgqLqPpJmafcqHD5+kucDMsEAk1G8qTRSbiEw0PPHbw72yiAO/uKXK5QWFbY+I4Z2kerefRUcmDa/5vMfYk6R8A9F3Ggd3ymBOAvrntgPXY1IVTc/HXWAHDgvxiHUuOMSdFoUesqyh09jBxrnDzkMtX0uzQo20hy6iv2OnJUmK7PTlWHOMLNgGM2R8iAg4/+Hc3Uqjp3hNdCpzjpBro4CO3nV4h2NJ1cWuDAJFmYpYsxpoYC+7JyFWWZYESOl6fFuUDsY1aj/Iz2eugfYeukJdLI/edKHg8MDufWZqX66KDt0yzwfhw0X6cNXWIKAndvQtZBxPkfVVHRVll9TJ8+O4UDB75FHqp905Znzf0XJVpKgQrly7GtMljMHjAEMzcJz9IQLyx+7JKtQxoiqXzF4FWJ3mG2Y7wY3k7NkacQzK6dUWXXh1FKknC9si840LM8VDxfwB6dFLTTgkdp8w7D93/yjaoEmr2HIu3lHtlRGH/38/n3ecjpSUhXl7AcREHBd0YI2rAqb7uXUaW7m9paG3kChvSLuGsSHyImKt0DqG74VH/pd7EGplk9MpHnktISRR/qjvDqURqLZzRb4jsCGSTyDx6GcvICTU5WZe5Vk40tvx5N4LGnzPMQN5oom734quBvv9egknuwJ6Px6CT31N4cVEIIs250dSoVnBrbOSkUpRmzmZ33Z9ySW4vOzRpYDz4Na6k19M6Mkgx9jKkH9DIv8aG9clxxl7W0n63pOZXkPF0c1290hb+P3nzr5H8MT5QmS78nOEVh0LyRmE9kLVulHuxQ5/FedRtJL78rwgSE4Lxon8PdHp+FlbuTTAoHF7G2Tj5NxBjHjM236dyCxhnDbO+BfnFOhYcYzLFMVSeK1o4w+rDkkXMX8bip6diUO+tjfnlMHIrA+6exB55X5nRwqFQyH6tapM/f1i8Lo5+eHfx82gtgv//PtcHbQe8gQ83iUDC3IClTMsCJXO8vn7mtFJj5lavkNziWE+3PsYuQpqdzyzPy26jFmD+E46IX/sGenfpq3RGsiehOMFuESw8VlzatxiD/fpg4Pg3MHNVKMJPi4D+cX+M61+CtczyfqH/G4O2vUdg+OtzsfTXCMRXEwH5oJHwNxWwC6VbBjShGPOv2cZbuQAffEyrHdPl+9Zd26CeXVv49JdlweNqECYCy10iY/XviA5qFi+x45RZ56H7X5kHVbBphtbKnZ5d0bezwdWzzMxy8/wBp+pGoh1t+dzzbtQ0+hrpXsiJQLqBs7IqtVk9y2tZTKjXvR/6Qq8JoIkTaka6zFp14aPc1G361aOxsWvkJaC6J6Z+uwM7V0zDKHHcDF89F8MH9sWY1Rb2CKWoB/tq6ttScv2iPFA1szz4LdH1tI4MUky9rGFsftrLWvrzKvngyni6yczQFTJa9zeeJ7TXuEeMdF5QHNVrGq2JKk4ebfLkBzi083t8OckPTme248PXR8D3ubnYLgumikxkyI4e6noj9wZ7o6+uaFKM6xRlLlUULOXf+jVQItelSkHZpqdW8B/jKUpPek0Aj2/DUtlErJe30XRmieKsi337idi4cz3Wvh0ggqsIrJz9Arr1nYKV5nR/WtZlgRI4XmvbqPQVIy/bOMP/w+04tH4Bpvasi/hfFuPFoU9i8P9CTXROUwbOrMcrrwYivtXzWBUiH4L7PTZ++wHenTQRz3Yuucs4ZzdOx4trEtB6wmLsPHBAbINV2Dj/DUydFACf2upERpRuGdCE4sy/QUf0kC2V9sfqLqgkHBfH/VYI8JFVXbIpZde85oGXRblQlD17dG6TW/YsyeNU0eeh+1/ZB1WFqeuM1rLqOPEyUnRjjBCJTkbyIrHUNFLNbEzGzRKqihTLpzTxcPRGgMj4U02+jLRfz6cR3GSTsZgkpJg6oN3OLGQbGFFLBKmyHbzWBNDECbVpY1kNfxmt+xhb7rzXqPY1dF8oDTZ2aNJ+KN5d8TOObV6Ace4ZCF/0Aj48WP6qjJs2FwcknMRZk3X5acgw1ZtfBVrP8kw/uCpN9Rrr2lvU9PY3midyXz1lcwh9l5BxW31r6HKS7kTXqK7Zhf9i59FazdBjwgfYvH0HNr7tB/vYEEyZsV6936QRmsiLWZdboe+Lxuenew1Fh/IapejTmtslmD5XlNhxv5iKn56Kp0nn/uiQ2wQwE+E7gpHhPBYB3iai5FvXTQYMZ85FiP9boYl6Qa7Y62LnjA4Bb2Dtlj3Y98lItM6MwIcTF+d/vIcxpVQWKJSVx+t6LvL+FSD+ksmThVhkdZs7OqL41y6Kn5drNuuKSfO/x6HQVXj3CXvEbHwb0zbemxJv/L5Nyj2Rk96cCB/D+0pLTAL2/HQCEPng3Une1l8wKrEyoAnFmr8zfGTNXsx+pXb1bMRWxOj17FevbVe0lk15Y8Ux8c/j2CPydY+2eRUaJX6cKvQ8dP8rX0GV2Nk+StvmYGw3dfPzrQjs2Sz+PtFN7+ZkO9SU+3tfAuKMBCnxf+iay1ivGTrINtwRIvGa2YW4cXXhptzoLNYzwvgBOz5cZAz1vXlqoO+ggNwmgJF7jJ9Q67m3UTLj9qPFv5GyRDXoirf+I+8HyETwkXKyTHrquehu3Fyz20QX9wmHEWLOjiqH62ksSNGCF/nX2LA5rAl+SjtwKpRbG+V+h/DwExZeJT+JkAjjBZPrh3Yr90f17dDW7NoCq/OovDE4YKYoNIn3ufeb1EXrDvIgGVqCHUvcS+qFqYhN2GO0nY0IKvZuUt/fI8VOT8XUtB9GiX0eI5sAZh7D9k2ZaPK0KFCZuL8Hmw8YfwzH3ZMI3yw+kAUzrdOQEliXet2nYI7sZEWco8KLTIPFLQuUkOIcr9076u4jWxeKGBMXSzMOHRBnfXE8eNzbilYqJZCXHVth1NvTlPs9jd7fVQZyW4EUaJp6Awf2lVSZTW0V1LxuwWbCVw9jj9JM0hIlVQY0pXjzd+vQU6TV/Qg/LvLu3hO6fK9+hmZt0Fckl+3isxhxvMzXlbpUWscpo+eh+185C6rsxIF0rIjUE7BwxuK8noc0d5MQMmcB1txqhknP6t9oLhJid12QsvKX/IUb+fyJaUtL6kpMDfR4ZqRIvKGYOdvIM12Uh94FYrsZbbE79JfrmYk1Hy0rsJ7y+RMfLin4QMGi2HfqgVHVxUkg/GtsDxYn1CFGTqju/pgkCiNnl87ChxFGmitcjMDCYMt/2zyXEW/kQXIZqbqrkT6NG+lGaOzkPk1Ayr3MjG36KT1WZqxdgIWG20s+S2iR7IHMkIXrWYpM1fBYGigZqmjzNYtjV4waLc4+v84xfvU27SSCV4caLYBELlqAYMPC/ZkQTJsTKk5iIzGuVw11pBkszKPXE04WvFfl7iVRaBF/qzfLrW1oPfB59EASFr5j5NgqXDq4DGsMHoJcLLZq+JiUVIrBRF30HSQ7PTqBD/+v4LFY3qvxobzh20L2ssbj9GUkmygUW8SK9GSUeiw/e8FImlCI81NPP1GqF4HmBlF4v+WJcf0KuTflVjD+K5+Rpr+u4hwW/tksLBSL2+MF/7zzh6XrcjEBMQXSWCZSUuQU5tyXVtyyQHFYdrw2mUbsvBEwTpwsEpZh2mcG21U6sx0z5wUjo9nzlh0PjLAsL98Q62fkJHo1TVk/e3PvgyrhfF2zgUyb+7F9f/70dGnvMiz8VR0wVGQeMFQDTWR0IXtL1f8ZeZ/V0mXQPcnJEiVXBjSumPNv4Y2+Il2G7F6D8H126Kv17KdoBZ8n7HA2MgQhEZmwf8I7L+CSSug4Ze55CBG6hyubfj5YxWar/i0/3J/Hl/+NxeB3AzFm4DZ06NkPPo1E4fp2EsJ/2S6id0f0/e83mNpGvwZGHIBHTUOPTXOxZ/YIDD4YgB5N7JBxPgLBu2virf+MxMz/6W62s5ZsJz5/QgTGLJ+L3n0D0fcJP7jJxJK7fF0xf/tI3cSFcR+J+a/tw/BFuvXsMVCcwMR8lGX+5QYCZk0BZi9WrnKbTe1ad01woDjZeOKtJ4ydUOsiYPps7HluFlZOfBKb2vthkLfuhszrJ0MQvFccfCd8ham6iUvYeQSPfAHBzfzg/4Tare7Vk1i3eb840YzEpCfy32PX2muQWK5gLJwyBSkBnrA/K/b9nJG6hy+WFZtWGDd3CvZMWKzbXt0H4ZlW4oSo7u/rg2bgrbtzlYf05bFsPUubsUClJAKUijbfotmhwwuzMengZCz931B0+i5v/+ny5Qlc7z4b+0brps7TFeNElv/vP/oi+El/5XiVO331Vpj0/sTcm4LNY1kezTy2DN2ei807VorC69mD4gR63A49Zg1FB61g3MAf7/53f8Fjqyh0xWwSBfFkYNI3E3XTWqOuJ2Qb/z3iJD1mZqw4Fmcio/nzeKt/yab7mk+8ivmDTmKKOO737rsJ/k+Kwno1dRtFuONdi4/7utqRpWuXYcyrlzHKUxREavbE/FGe6ueWKm56Mk424+kgC6FzJmNaTFc0ydB17+6v1yV2zV7+GIU3sHBJAjLavIoeho/r0BfwPPrunQLfrV0RMKiVWC4tHWSKbTsb7z6pv78sXJfzIRg8PgRuIo31ddMFELq0K5Z59Nh8y2xSscoCxWHJ8brwNNJ69ALM//N5TFstt6sn+vbRpcncbVTLD/OXWXo8MMKivJyByCVPYfBfecuTuw2rd8WcZ8xM3yWcr916jkKPJbOw53/PY3ik7rip5d1Ro7yxco1sgpqfOXkgv2boN7wrPnx3P2Y+9wLClWOEbhuFPxKAcd6BWFnwZwpVYmVAE4o1f7Vr9ZWbQ0WgOAiLDTrgaO09CFgdjDUiH497w3B/l8xxytzzUHyc3OB94dPW2kxQPpWzmiodebNb2I8L8FbP5ri+LxBLl3+Dpb+chH23Kfhy/QYsflJE1Yac/bH4m9kY19MZZ7fK76zHnltt8e43HyBAdi9aYkQCnLQKuz4XGfkRIDxYLJtYvpU7EuD0xDSsCvkA/mYdY+zEAfgr3XxE7KObj7rMQavwVufitGcQwWWfANjfEge7boPQz9QJ1bkvFv+4CvNHd0X9pFCslNtX/HZ4ZkeMm7MKYS8WtxBRlGbo+1pftLY/jmDlN7/BmohMdHlhMfYFTUEHg3bx9p2nYOOsAHEQjcAaMW3wOXvdCa+M2YsAeG3wYrz1pNhREcG65d6XiQ7//h4bXzPW1bpl62kpYzU5RZFBif6rMIafFza9/jwLm06fOdMVZ74lQrlhfQNWyf2Hw0q6W7o8EJvi6sH/7cXY+WFfo1d13YYswK5lz6NJYoiyv1fuPg+3J6dgVfAqTG1fjJOHBXnUsa0/xnWum3esDNyG+Hr+mB/4C74clP9YKY+tOwPFcVJMf2a3On1wBDI6jcT8b38RBVR1Qqs4Y9SCxZja3RHx8lgcuBsZ1c1t/GiJuuj7n6+wcc5I9K31N0LWyHUPQYzjSHwpzh+WH/fF8XPyKswJENs2XObzEJy10QUExVbM9GRU06H4TBTIe9RIUNZ1pQhQCtxLZOeNvsNFUC/OAX2H90Oh93VU7yaW7XvM6Q9sC5TLFawUsmX62jm3b4HnV1m0Ls16iuOlO+yjN+nSmJp2p37+Mza/5ml2U9hilQUsZsnxuog0onQI8TN2fjIFfV1vYI9Mk2J+wdFV0eO1Bdj8oygflMQiC+bnZUd0GDQSPerlLY9SXhk0Gxs3i3xi9vKUcL5u0BdfBi4QZTbZcYZcfpFGbALwZfACjG9h4phpTh4wUO9Jsd0/0TtGiG1kP1Qcr+ePxP+zdz9wUVX5//hfrbuw+VV/fpLyo9lGsWkfUovUQvyD+YcSxQ2dNoQS8++HknKVXTP2o+ln1SxpNSw+ZlFaEK1jFqQZaYIpUlFUEqsWKyVhJu666Fqw0fzOufcMDMOdYWYuIOLr+XgMM3Pncufec88997zvPedMkE+r31J1QFd8Wb7IlyNl9w9R97MMbTyqtuA/cJDWxE/+Flqo0YiHLVBOeXYeOqX93mCrNNltJy6RvwCsXlN7cvhFjIndgG6y4h7j2ACW2pcjSIuKx9ruSdjx0hRonUxN+qH23+qVa46BVZsGHe3cL/1+oV61jeJ1QxGzOQwrZOWkJX9Ek0yr3rUUQxblIu6pfCwZ1jGvijZVi/xV4zDHOgqpecsQYVRxOZGDOZErkT9tIw6LAIeIzodTsD44EcnF05H13ty2bYFzvtQVYfUtiShb+qYItExFnu1Wu7xTRUDpezmokFcfrmdA1a6pH1j2H9yvRQIqT52XuzhEF4yzyH9H9pgIQ7Crq94d0bEcpFlr4R8ThfAOeiWYqEOoPSx/dxcY2bZ1h/Pq2FcoRH+Eh3TMgEpiUHW+nMjF6ueKDH8MsWpvij64xoAHYWmR5jjku1PIWfciCo06np4owPL/2SCC3/5Y9JuWu+L7s0suUa/IG0y3i8zBTCRnH2k6IIDszJ21FMm7AH/LFM/673QEdZWwPikHzhHl0V3mf5uKiFpPxfatyBDP5kaCvLBUf/kZSoPvQKi7vp4XODb/O1/sTTA692jUybRs19vILT8DBEYhNfURbShMOp/ULfr9fghwHDCgLA85e8pRjUBYVqdgxdiW21F1P/2Ef/9oEG2TW7/4eSd0+lnbXidi87/z6JNU/df+uwc27sz9Th6Kv6vVOnxnpU7Xf++oAyt+YSFyfghEtdYpvAYhizchy+KmhQOb/xGdByVIm74F1beKukJFATJ2HgFGPoIda6Ka9l+kCxaDqvOo6pMcPP+yFfnFR1Cm/SZBVwQFD0L4XXGYOaE/AnigtQ8nSmDNykDG3o9QKgNeoVtgX61j6IyYKIS0QmX633V1qKv7Sb2j5nTq9DP8olPbHzAMqs6jurPaD4imvfo2Dnx2BFXyh2A790Cw7JR9932wDAtEt4ugDC1+LgIxaWfgf0UY4h5KxPw79N/Wc4lBFdF5UI6MmfOw+pNTqJEXgqYuxNL7BrOe18EwqCJqp+QdKxlY/cRD1CXZ5E8GVG19h4qIiIjIEYMqIiIiIiIiE3h5l4iIiIiIyAQGVURERERERCYwqCIiIiIiIjKBQRUREREREZEJDKqIiIiIiIhMYFBFRERERERkAoMqIiIiIiIiE/g7VW7wx1ebxx9fJSIiorbAeplnWDc7PxhUufDvujrtwCXPyIP3F506qXdERERELYf1Mu+xbta2GMIasF8JIc/J9JLpRkRERNSSWC/zDetmbYtBlQEeuL5huhEREVFLY/3Cd0y7tnPxBFWfpKLfoKGYk31KTXCNbXV9w3Rr/6r3rMSQQeGIfq4ENWraheEUrA8OFcdwKorVFCLfMT+dF16ch1vU+frei0ndEaTHhqPfmMXIOaGmtSDWL3zXXNpduPWC9od3qoiIiDq0EqwWQYUMLIwfC2FthYowEdHFhEEVUQdT/Ukmkh6YirRP1AQH3W57BB9+lI9ts/rDX01rPyqRu2oxopNzUaWmXHg6wjZQh9W5B4KD+xo8eqDbz9U8dMFxV+a3mU59MSMzH4d3r0JUTzWNLgjtu15wYWFQ1Ubu/f2j6hVR66r9+iPkFJajWr2/cPwdxdY8lJ65kBsgdIRtoA4rZC42vrQJ25o8HkFEDzUPXXAu3DL//GPdjFoSgyoiIiIiIiIT2i6oOlOO/M1LET8lQrXhDsewmUuRXmTQcdSxU2ndKRQ+txiRY/S230OmLEba+647m1YfzsXqpHgMG9HMd9B50LhzeFXRi4jX9utC5DjuorqzKN2ZikR7XhkxETFLMlFo0Oa/eJ3+/1p/gFNFSF8yW+17Pa+s3lnetOPliRzMkctdV6LyVyKGyPe/c2qydeYIctY15L2B42cjaXMRqurU547UvNHjw+vXOTopFflG/RQ8XW6j9RRpkp2CGLV8+T/Ls4+g2uF/qrIXap8NW1agvU+fqS+/UX8JFx22G6XjiSKkJU3V02RQBCKTXjRMe42rfSUW32iZbtn7e8xGuny7fyWGae/FQ267gerDOVg+cyIGOn2nIS/yk1siXdKXJNbvt35jpiJ+yVaU1soPvduGqk9yHMop+7JcrJOX+aCR1srDjkpfxBg5/6oCF52ca5G/Sn7/YuScVpMUr9KhmcEGPM9vTXmTn4zWOXFdLsrOqRkklSYDnyhykSblyLhXflcKCrX8o7RUXjVLrEfZXr1JmV4ONJN3JFGWFmeLdY9V6aj9TzwSXygxvoNicG43LK890GSfaHn3RRSfUTM48uZ7fa23nCuH9U/xWjoMTHM4/k+UwOp4jGnlaypyyhwzQWPV5QWNyx35Pw8sRc4xD8t8O5/OO27Oj024GPzFTPlFbcNN2Vr1fuNyYMiURCRZj3h8nHpUXnYgbRRUiYMteSrmrDuAmhuikDBrunhMwq/LRQA0dzKW73dRoJz7CGn3TkZicQAiLOJ/LGHw+y4Pa++fjKRdZ9VMDSq2L8aYWFHgiaDrhkj5HbGYdGUl0sR3JG2pVHNRe1B9cAOmzd2AQlXJqvlRf5Yno4ykCYhOtuLjX92u55XIfji2JxXxFnGicLUbj4mC+86FeP7M9bgrVvxPXASCTuchXeS7aFGYGxcA1Sh+dh7i04r0k35dw1w1ZVsxJzJeFB4H0WeszEvTYbn+OHLXJWJ0Ug4qHE8CleK71byXj4zV5p1xWy98JwqjwuNqHsWr5dY7ipxHJiMmqxohk8TyxbYF15YgY1k8YjYfUfMAfr8K05YXN7K39j5kgr78hFlhCOqsTWpWjQh0oy2PoLDHKMRpy/JDxZ4NIu2XItepQoy6Sm29opMzkX9ugDZ/Quzt6PO1CJZ/u9L1vmriMoRo6xmBEPm2d5i+LPkYeJk2h6OK/eKkPGsDKn4dhRniGI8KqkXxdpE/5mxAsXNR4mt+clIjTjqRkYlYvf8HBKt0jRMrW7q9AKX/kHN4uA2ikpL/xFRRMVuJjM/9MDRan2fGsC5iWWKdIqdi9SeuKlie5QO71srDTQSHwSKznPVA4wDB7kwBcqzi+Y7bEd5dn2QuHVqWV/lJ5AN9nQNwuyxn5DqH+mkV78j7t6LMnqYqTWqy85suQyr/CNZSoE98FMS/61oor7aEqu1ie34nAup/9YVFrod4WK79SlTKRd553CB4rsxD8m9FALhM5Be/QfV5f4Yoiyq+rBRhtZO6w8iYI87t+/wQ7nBuT08WQdh2F9GsEVEG5S7T81F6cUM+Soi9DX0qj6LCueLm1ff6WG/BceSI5SVv0yueNfWzlWB15GwkOxxjCXFD4S8rrb99ABnlarZ6tSh9YTaGT1mI1XuO1h/DCbOiEIwjqBCr62mZ79t5x/X50TfelV90volycJ04tu53LAcsCMVh5Ow9DKPrFU14Wl52JLY2UWXLeznb9nm1emv3jz22hcNDbX0Ts20n1SRN8VO2vjeH2gYMH2eb/do3aqLuB/HZePFZ33usti/VNM1Rq+1uOX3yU7YDTt/zw5dW22z5PeLz2W9UqamufV9T2+zD8uAjjR5G88iH83z2h9G88uHNfPZnT+f3ZD758GZe54d7VbYtiXI/PGyb94cY27L8b2w//Kg+0tTYPl47WXwuPtvntJ++ydb3oVNe+XitXN5IkVdibI99eEZNVf510PbYZPl5jO2ZQ2qa9K1YlswrfxDrMXmNLe+bGvWBUiP+b6L4XH7mtBrH3lhgG9AoH9XYDjw+UnzHLNvLR9Uku+rDti+/Va8lr5Yr2Ndz+EjbnWs/tP3TMa3s6XGzWJbT6p8Uy5J5/bFiNcGROracj4P6dBy9wLblazVRI/dJjPY/d77SeAO/fGWWNn2887qJ//k8fZa2PX1vFstzTAO3RPrI/3EuDzT2vCPWcapT+v1YZct+RO6DUNvCdxzzgPf5ydg3tpfjxbzDxff+S02y+1bs40bljbttEPv5NX3fjH98v+1kozQTvlbrNHyJ7e1/qGmSL/mgtfKwC8e26Hlh2T6nzCj8850l4rORtmWFDZ/5lA4u8q6dnoc9zW++5Cfhs2zbM4VNv//zdHmMjGx0zH35yjRtmuN2232eLvPlZIdyqaXyqivu86Wzk/kZti2HnLbddsb2tpYuTmn842HbM6qcbbLuzhzP7aI8+UFN1nz+gn5un/iC7XM1qTl6urvIR458+l7f6i3TxHll/Hyr7XPHvKs5aNuy8cOm63lI//4Baw+qCTp53MjjdIBY1pfO5Y4Tt2W+r+cdV+dHl+zH1FO2j9UUjY/nMWdG9Q2jh6f1F+f57A+jeeXDm/nsz57O78l88uHNvM4Pt4zK1q/1OvWAlfsbHy/CyUNHbf9Ur93yorzsKNooqHLFxUGodnDfeFGYNCko7f+zwJbtsK8+XisLe3GSclEaf/myPMG5PiE7MsqQjg+jzNxcBvfkAPBmuXK6p/N7u1xPprl6uGffd6G20RsPq2kOVOFrdBBLn2+UlY7GJ3S9IuVieZI4YY6Wn6c7fG4v5F3kF/0EJSpDBhVErQIhT1D1J1T7NjV/UvBuuUL9yUgs2+Ckquf5kbY/f6YmKL4HVaG2u50CJ419Pea/3bBuP4oTtTwZyoqIUWXmx6O25++Ry2zpoCrU9ki+QfqJ7dKCOMeKiQ/5yZhaL+cLOYbcbEPNh7Zl7tJM+CF/hb4ftjhcTPIhH7RWHnZJnYD7NknrM7bsP8h1F2W8fZt9TQcXedfOt6DKi/zkjtG62Sslj3/olCYq/cX57Zia0nJ51RWVL109PNxOo7Lln289rE0zLDucqXTqe0+G23O7R9v5j7dt8+SyDOsJTlrye+vnd1FvuflhW3aTgModgzLDfoy6OOaduSvzfT7vuKlPGXORLj6UX0aM6hvOD1/qL57Ub7xZrpzu6fzeLteTaa4ebhmVX2qa88XUFmH0fR1E2w5UcbocxXtzkJ6WiqQH4hE9fjKS98sPylFm0Gbc/9Z+COqk3tTrgaAg/VV9kzEcQeGuWqB3FMKD1SQnQTcMVq/MkSPFvPRE09Fi5DQzo8j4slyj+Z15s1xf1sE3fTFjbF/1ukFVUR7yxXPcuDDDYT2vuCJQ/C1AWZPmSH6IurXp8jT9+iNCPFUUH27aHjw4FhFN8sspHNgj26dbEFHfLsdBpx64/BrxvL8cx7QJPRAyWK6XFavXFaDCVYsQr5frYPAA3GDQfO+qa2SerkVNi91C90PoDXJbnPS8Btoh59j848si5J4D+kwOQ3CTY1ToFCjSRb1uUWFiHQ3Sr1cgQtVLO9/zkzOxLZPEd5Y+hdVZJtr/Hy1Bvkiz4LhRxmkm+IeEIUo8F+8vaZpfPc4HrZWH3bjqdsSNFc/OTQBPFyB3l2zmdjtC7NtsNh1alOf5qV5dLSpKi5Bj3YC1cvj8e6diyMxM7aP8ow6Z6aqhiBpg0ASwtEBryhc+eRT6qEktl1eb4WpI9f9QnzuS/ao+Eeu6eQNWL0lEdOxEjFZ9d8q+tjeVO4vC9/LEcwRmTDAoO1zwDxvo9tzuieqi/cgVz1H33G6wLGM+fa+X9RZYohBhb+ZqoKZS1Fd2bsXatBQk3huPyDH2fpgOZf+Xeh7pM0PUaTxsum3MxHnH8PxoQiufx1qr/uLLco3md+bNcn1ZB9OCBsAi9lfp06nIKG3a3cZjnpaXHUTbBFWy/fyT8Rg4ZipifrcSabuKUHbpQIRPikWUm4M29Mpe6lUzaqtwUrY3/3VvXKFPaTXuMrFRpr+QtN22DUQfvQl4I999pzcqT5+rOjQ6Peydccu+cW77Phh9XO34Tr9ULwwE96qv1DQ4hYov5XMm4m8xWo+J9SdU2aZdCopLwZqxXVGWtRBjhkZoHcvzy50LIe+XWy+wNwLUy9blJh2d1FSJ7RHPQVe09TjMgejj4Vf6np+cdUHE759GQj9xEngiHkNGTcScdTko9nLwgOpjR/U0C3CzN7sG4HL5bNR/weN80Fp52J0uCB8nL19Ykf9hQwRRXbhHVHwbX0QxnQ4tyvP8JMm+KYkR4RhzbyKSRB7IF5WNoJBRWt+cpnrj9sli+rls5DpEVaUFOWL7RyFqZMMXt1xebYarIdWn9Vcz6Kr2pyJ61DhEzlyI5E15KDzaBSEjojDjDueLV+Lc+7V46twbl3fVp3jC43O7GyerZJr5oU/PLvoED3j1vT7WW4Kv6W38Wz+yz9yiCAyMikd88lPY8t5nqBYBRUS8BeFqFruWK19NnHcMz48mtPJ5jHWzFtZ1FJakTkcwCrD83nEYOH4hVmeXuB6oxoB35WXH0CZBVcW2hzEnoxzBs1Kx+8ABfLhVFOJrFmJ+ggWhRlfIvPUPvQDCFV3gRbnuM3sGtz/aO8d1dXwYaZtt80M3g4tmNT/Ia9I9ECo7EGudIo0f4Ve20M/Tde5mcPKrRY0ckKHHYNQPNGD4CEMf+zZ06o2o1bkiX6dg/m09ULY9FXOmTED0n/IcOgD7sNx27Mwpvdd8n+5tccT5pkXzU+f+mP/SO9j9fBLiRL2ycPNKxERGIH6z56Mg1daYuNrnldbKw+51GxmFuM5Axl77iHenkLsjDxgwCeEONzHaLh1aWG0RVk9fg9zuUVgh8sLh994UAUkq1iyYixnjje/SBIy8HRFif1j3fqanSd0R5L8hjh2nuxltXva5c2wr5j2YibK+07EpR/6Y6ytiO1dhScJc3HOrc7X4LE7K2Ka7v3Eg0Yqq/yG/OAD+rVRe+lpvubyzUZlYi8Kn47F8Vw9Ylm7Chx/kY3/mJmxanoj5027XWwI4OHNaL1+7+ZtNVRPnHcPzY/vGulnL8r9pLrbt3oqsxRYRXBUhfdlsDItIRLo+5K17PpSXHUEbBFXl4iRSAvS+TxTKg1unwmhvnlR+Cie1CU3V/MuDTOAFmcHtj7bM5L5wXFfnhxHHz9ty2666UjYDOIXgcXPFicv1I+6mLvo/1KtCzffqpTNR+S+Tz716eBhw90IfOXzbqb6ImGP8/fpjCkKcFtgtMAwJa17Bh3mbsGSsP0q3LUbSNv3kaGa57VHAr/RCsew7V42zalF9nodM9T0/udDJD31umoIlz7+Jz3akYEa/GhSum43V73tWtgT8qq9WSSmrctOgrbZar3x37Qrfi8rWysPN8BuICNlM0t4E8FgerPuBiJjbG13xbp10aP38VvNhPjLEd0QlPAhLsId5pnsYIsaK/7U3ATz4NtIq/RA3enCjCmuL51UTyvZnoxi9kfCHuQjt3Vzqq7xWKc69LXuKbZaeZpU4WdUaX9zC9RZRwczNEut5x1wsmtQX3ZpprhhwpSpf3R0jHulY5x1PnK/6iy8c19X5YcTx8zbbNr/eCLEsRNZb+dj/51gEy2BpbqrxSK8OfCovO4A2CKrOoqJUPF3To2nTvNMfIV+79WxWLwQNE09F2chv0jBYqkXh3mz1uuU5ZvKOpi23LaDfAK3ylfuJt8OrHkFOkXHFr/rDPVpfhYiQgR5edeuB4BDZNjEPxYf1KV7r2hdxi5O0vlwNfUJaYLntSa9ArclK4RsH9LvEzs4VIX+Hen2e+J6fPNAzDIv+eJ9Yfi2sH3u4/H6D9DbqW/JQ6uLuT82HByBHH48YMRjd9Ek+aK083Bw/hE6QaaI3Aax4f6eonI9CRKjTCdXXdLi0q7Y/8788qr93VFcuuyq1Kvvd2csDmlYQSotkvyIjXUSgaalvAlicb0WNqKhbBjeupbdqXvVS9Qm5DoG4vEm/oLM4sN85kXsgJEw2CcxGzt62vQMZMDAMshWedUeB8e9gmdLC9Zb61jQBTY/rUhFwqZf1ggchTjy5O0Y808HOO15i3axlBYxMxIp4kZ9EeVbYTH7yrby88LVBUNUFfWTJtz8PeY71XtleOW1D08LEJz3EiStCVJpLsPrJpr+5INuHr7a2zNWsjnRwOm/Led+2flFIEMFxRdpSrC4yOEGfKMJaq8MPKTooXpcCq3NAfSwHSSvEwds7FjNGNz2wXQmOnC4Chkqs/Z9UFBr8GEPV+xuQcVC9ESffssMG/RxOn9Humvo7tCP3brkmqKugFd+2YiWn522w3CEqhgefwnLnOxny2JadW324c+AvOzIfPYXvTFUkFBP5qbFTYh83/f8aUVGS+9i5n4bLbfAbDMuMQKB8A5LWFzUd8OJYLpIfE5XuwOle5VcjrZWHm9VP/32mjL05yN9bAv+YKU077fuaDtf01zvtb3vF6TebRLCyfinWOmXDlta1h6ycisDn3cY/6FtTlom1aa6/3H9IOOI6i+C78AXkivOQ4eAu3ubV0wVYPmUohizLa/GAoltPGSQVILeg8TZV7d2AtbvUGwdBd9yHKLF9OcuWIsP5R2zlb9ltzmudwUYCb0eCKINqdi5FUlbTH++t2JmJXJ9/NLmF6y3/0UMLmrFrDwody8Vz5Uj/vw1NL0z5ieNonjpGnixo0o+l+uCLjc8Vbsr8NjvvnGesm7WwE+UobZJfanHypDyam+9/7Wt5eaFrg6AqELfHyBGNCpB872xRQIiCOS0FcyZORuJ3ozBD3sFvAd3GPog1kwJRs3clxkTYv2cDlv9uIkY/XIkZf4xVc5rj6sqAnCY/81V7WG5rrYPnesDy8DJRCRMnmrkTIH+5frXYh/b9ODAyEemG7TvDMEPs3uV3yg72qdr8q5fMxpA7VyIffZHwv3MR4k3zjZ5RWLJ8FLqVZyI+cmL9MrV8Oz4cw+7PdGhmWoPip8W6yV+nV3lu7ZNLETNzDYo7h2HJXQ4dwL1aru/kFVzZ4iN3xQP6Oq1KRY7PlQtXuiDiwWWwBNYi/09TMGS6fV+pY7syFivkpVav9EWobD5WuQHxD6aIZaUiKcOToMcVX/OTs+Owxo7DkCmLsVz9/9pVC0W5Iiv+sUgY69iZ3P02BE9TA0JsTsTwiQ15Rs+vS5FzbhTWpHqZX420Vh5uTqe+iJCdznY8hdX7/WAZaXyH2Kd0EMHYjN+Lc8k5cS65O179j0jf6RMRX+5LfvOO/xBRiRf13IoMse9/J/etvr7Df5uDoGlyrEIXVLPIGmsmMs71Nxz51Nu8WvP5Ae3HYquz30a+N2NXFG/A7HvjEW3wSN6lLyjotjgteM3/0/T6fKOdR5Mrxb41OGF3H4UV9g7tvx2HYSpttDwUMQVJRQY1+RYhyqBk+wAyUzFk/EJ1fMo8EYExyR+ZCDhbuN4i8m7ULJF5KjMxZ4paT5k+UVNhDYqFRc3mqP4YyVqIYU51muHTRSDmEGi5LfPb6LxzvrVW/aU9LLe11sGt4zmIHhWByCR1PGt5T+R/a60o7+5DVE81nws+l5cXuDYZqCJgQgp2/DlWnDC+Qk7Gi0izFsF/SgreXROLIM/aZHmgByL+uBHbVjh8T2YOSrvG4tnXU2CRw4a2EHsGd3w0l7Gd/8eIL8v1hDfLba118FjvCKS+vglrpoXhiso8pD8n9uNzW1FYOwgzVmzCvjnGFbygySI/bZiOPl/niPlfRPqe4wiakIhN1k2Yf5P3NdQ+E1Zhd+YyzLi1B47tydSWKfNtzZBYrHlpO+YPUDOiq/br8OEBZ5Ev85z87nfKcfmkZdi2Q+Q7/WJNPc+Xa8JVU7B+w1yEdynXjoP0vbXoJq/wt7SeojL1otxXo3D5sVxtX6VnH0K3qfLYjvJ4mOMGfgh9YBNWWMQ+LrSKtMlBRacu6jMf+ZifGgtExEMRCPY/CKv2/y8io6gWQ2enYv9fEhHSKG2b2QZtQIg3sfvPiYi4tiHPWD//JcIfEuXk66sQ5ZRnfNVaebg5QcMmIeRcrWEzt3o+pkOfSav0Mv6K4+pcUoCakCQxzZf85iW//pj/4kYsmSCCoiK5bzOR/c31WJS5EYvC3XVIEXlinEUEgyJNRNrcfpWa7MyLvOp/wyBYugPdJt2OcG8GiDt3CqWlRwwfJ+13UHpG4NnMFMzQBiyR+UasQycLnrWmYOavjfen1qHduhErxLr/f5/JtBHrvv0I/IeJMjg5qvVGfdMGkHkNWUtF/u18EBlamonz/v8bikXPPAJLMxU/d1q23uKHkDkbkbVYlCMo0tYz/Z1KBD+0CVnzbjNu6iuPkZWviXVIRFTgceRqx0gm3j4xAHEiPyQ4niuaKfPb5LzTDvhSf3H+HyOtVS/yZrmttQ4uBd6GRRP6wf/zbD2/qLJo/jNvYsdD/ZvvTuFzeXlhu0T+WJV6TcoPtf9Wr8hbv/T7hXrVNorXDUXM5jCskJU/EydQamlnkZs8Dok7RWXswEKEm73zQheO8q2ImbIGJ+dtwu77jO7KEBF5h/Uyc9q6bnaxapM7VUR0kTldgJyd4nlYXxj9tip1VLUo3PIUiuGqmRsREVHHxKDKwM8uuUS9Im8w3S4uxRkrYTUYwAFnjiBj2Qrkwg9xd9/eqj/4SO1LzScbsDyrFv6W+2Bx1cyNiMhLrF/4jmnXdtj8z0DdTz/h3z86D0lFzfnFzzuh08/aNk5n87/zR097+dtGoxA1NlDrF1BzvAjZe0pQdc4PIfM2YtN9+m8SUQd2IhfLnz6MbpeWY8uOAlRdYcGzzy9EeJMhuYmIfMN6me/OR93sYsVUNiAzX6dOTBpvyPTiQXtxCZnxCp51HsDhw1r8+rZEPLt1O7IYUF0cfg6clJ3frQdxldj3m55lQEVELYv1Mt+wbta2eKfKDXllpK7uJ/zEJHJJ3lbmQUtEREStjfUyz7Budn4wqCIiIiIiIjKBISwREREREZEJDKqIiIiIiIhMYFBFRERERERkAoMqIiIiIiIiExhUERERERERmcCgioiIiIiIyAQGVURERERERCYwqCIiIiIiIjKBQRUREREREZEJDKqIiIiIiIhMYFBFRERERERkAoOqNlZVlImk6RHoN2go+o15EcVqOl3gPknV9umc7FNqAlFHdArWB0XZNSj1Iiq7LsZtpnqnipC+ZDaGyHP2oAikHVTTfXEiB3PkctaVqAlEJjA/tTsMqtpQ9a6lGD03FbknBiBu1nTMGNZVfUJ0gSjfihhZiE/firI6Nc1AjQgyx4j5xojCvkZNIyK6oJzOQ9KdiVi95zhCLNOREDcU3dRHRETO2iyoqv4kE0kPTEXaJ2rCRecU8rfnigrmKKx4JQVLEuZi0fIpCFGfmsX0pTYRGIX5MX7AwaeQtuesmuisEta1mahAGBJi+sNfTaVmnClB+pJERD7n7VXHSuSuWozo5FxUqSlEZF7V/hzknAMikrPw7OK5mL9gGeIGqA9d8fk4bkc6wjYQnQdtFlTVfv0RcgrLUa3eX3yOo3SveBochpDu+pSWxPSltuGH0JgHEYJa5KRZUWpwt6pm/ytYfRAImjcXlp5qIjXv3FEUbi9C2b/Ue4/9HcXWPJSe4T1BopZ07MsC8Xcwwgd20Sd4wufjuB3pCNtAdB6w+V9b8wd+qV4SXZCuisKiab2B8heQ7ny3qu4I0p+0oqazBYvu7qsmEhFdqPyATuolEZEbrR5UVWUv1DrwD1smr/gA6TNlZ0/5WAjribPIWSRfxyOjXPu4qfKtiJZ9M547or9v1DGvFmU7U5E4RQ38MGIiYpZkotDNWAFV72ciaeZEDNTWIQKRSanIOeyqGZMbZ8qRv3kp4u3fPSgcw2IXY/XOI6hudPXe3sl5NtLl2/0rMUybXzw86Vx45ghy1i1G9Phw/X/ENkaLdc4/oX/sPn21SQ1OlMDquCy5/Q8sRfr7RgnWuHN29eEcLLenm0znVTkoPaPP2UTdWZQa7Rfn9THkQ56w83ifSM10PjfTAbTuFAqfW4zIMXL5QzFkilyHcuO+RUbrPFPskyLHfWJPk9nIOKYmOanZn6L9f4y1Uk1RTuidrIeNcFwXo/Twhh9CYqYjXN6tWtf4blXV9g1YK/ZbyENTEd5ZTZTOy745i9xkuRyDY0EofWGKth6rmzSZrUX+Kvl/KcivVZOEqk9ysDopvj4t+42ZisR1uSg7p2ao5+WxY9+eyJXIl+83z9aXLx7uBz4pwWptPg/KFnFMlu3VmwjrHe6HYuD4eG39XR7HXqoQZZHcxoEzX0SpPU0cB3AxOC7SDMsexdPy6vCLWv+9gUb54UwekuT/PpjTtGmkKkeis1wVNMaa7E935xwv0t11fhTfuWup9r9G+aEsK1585qa8tHM8bhrtC1nmpMBapjK7/EwcqzEq3QeOX+i6/DLaR/Kcal+Wg+J18nN1LIpyKS3Jnibyf150Oj+YOA+44sW+sJ9XYzbLdwVIjtTndztYibfHsTxPZqc4pPNsJG0uQpWrstnUebWBVgdySIMhUxKRZD2i719vtsHbMsVUWeDFeayZOpMrpc/J428olu9vmnc1tQVYLpe3KLdxiyAv08Get4yO82bPfe54k58M17np/HqahGP5+y7SRB2DA58oalw+qH1g37/N5u0OpNWDKr9fhSFh1nTEjeytvQ+ZMF17nzArDEGduyB8XISYegTWQuOSs3RPJkrRG5YRzle9q0UhHY/IJz6D/7Ap+ncMFvNvT0X8naLgdqpbyoM4/4mpGHa/OLjqBmkDRWidTotFxoqdLTK4i0xjoKZsK+ZETsWcdQdw8prb1fZMwg3/KEB6cjyGJ+Wgoj7z+CNopPw8Qu8/1TtM/275GHiZNodLlaKAi4wXBd5BXD4yVvufGbf1wneiUCw8rs/iPn21SZoqUemOjJyNZLEs/yEWfR65/Ydysfr+iYgUJ1pXjYfKdi7GmFlWVN8QhRmzYhEVVIti60pETxeVJ+eD5Fw5MpImIDrZio9/pdImsh+O7RH7xWKwX5rwLU94t09aUd1hZMyZjMR9fgiXHZstYfD7Lk9bh8TtzicNUYAm6+tcI9LWvs6/Lhf7ZO5kh8LdniYlyHnfKAFrUbjXKp5HIW6sng8kfZ8nYvV+YGi0XHYswrt+pK1LzHqTA0j0jML8BPFdlRuQ9o66KHGuAM88IYL73rFYNKlhPc7fvumCm28NE88FKDzofOHkCPJfk2lZi9xip0pZ3REU7hDPdwxCiJ8+SVYIhs1ciYzPA3B7rFx/cSyG+mmBYuT9rgft8OjY6XwNwmWaxIShj3w/IEKlkQhcf+WuR9plCNHma6ZsUcdk5O9E2fdtIKLUPJbrRZko1j860pPj0j05MMmcZQWoCYzFptTpCHYMqKVzHyHtXnFcFAcgwuG4WHv/ZCTtanpRy6vy6teDESG+r2ZXkSgXGqt+fw9y5Iv9RfjYueL8WYFWjkSEBKopzasQ6xUzawMqfu2wP+U5Z84GFDufQrxM9+CQUeJsYZAfRYBRuCdXe5X//kGnJt6nUFwg5u99GzzejLqjsIqAZqHIy3JfzJjQF7WfWJE8fTFyKivFZ5Mx55WzCJ4kzjlxEQg6qx+nTcsvEdSrfWQ/P8l95C8r7b99wGUwVFP0IqItj6CwhyivxP/EjfRDxZ4N4vywFLmn1Uw+ngdc8nJf2M+rUVr/qd4Ij9HnT5g1AJdrcxjw6jiuRP7jsxGTVlmfzsG1onxfl4hpzxqUzabPq5LIq+tUHehffWHR1s2CUBxGzt7D0A4PT7fBTJniU1ng4XnMgzqTK8EjorRtztjrFCAo1XvfRoZ4jhoX1jBYSRuUrZ7xLj9VbRfnLbnO9flArPO1X2nzj35clONqPj1NamHd+5lhmpQVZmvHYMKEwfV9p/Xzvb4P+oy1p8dx5Mplt1U97HyytZGTbyyw9b051PZYsZpgV/OhbdnwUFvfe6y2L9WkBodtz0wUn8VbbcfUFNu32bbZYjl9h4+0DZ6fbTv2o5quHBPfM0B8PuCRPbZ/qmmS/v0jbbNfOWr7QU3T/Oug7bHJYnkTn7J9XKOmufOvD22PyXUavsD28pdO//DjGduBtTHado5PP6wm2onvkeudmG07qaa4V2M78PhIsaxZtpePqkl21YdtX36rXisu01f6RqXZ5DW2vCo1ze7Hb2xb5svvGWlb+M4ZNVGqsm1JFP8jpg+Y+pTtQLWaLNX/T6ht2T7HNKixfbx2spgeI6Y7fZFcB7mfPdl+b/OET/vEvn1iv6spjdjz2dqDakIzip/SvmPA8HFN89jnL9jGy2VNfMH2uZqkq7LlvZxt+9wxbaV/7LEtdE6rmv22ZXIZjtttVy3ml5855nm1/gPmizT8l5qmkftIpsdkkVc8yfBu2NdTbpc4Dj9Pl8t1ykfne9/Y08F53qNW2503z7NNmyOW45zPDr1gGy3+Z/YbDnn4s2zbM4XOB0/DNjc+7nw5dgRv81w9d2WLKEdS5DFpUPYJ//zwKT1vTtb3YfOa7psfvrTqx7ZR+eJ4XLz2jZqo+0F8pn23c/r7UF59vFZOW2Db0qhcrLHlrRTLmSP2s1he4/Q+Y3v7EfHZcLEdzW634/50Wqcfq2zZj+j7s3H56UO6/yj2o1EZqY79aWI7+t4svt9xM9Sx3yR/G7HnL/G4e+PhRutkP2+OnhxjGxAv1smxzLDvjybl10Hblo0f2k46p584fuS2Oa/Tx2tVGo4W++lrNVFjL5NCbXeKtKrn7XnAJd+PAX2dnfNVM9wdx/bPRP3lzsf3N067qrf18vTmJba3G50TWui8+rXVdrfcLyv3N0mDk4eONqovuS+LfExPX8oCtR6ence8qzM19Y3t5XiZ/k7HmMZeXqyxHaj/zLd0cFtXa+7c58yn/CTWIT/DtuWQY3klyW10LkeP2l6+x3m77dQx6Fgu1IgyTE4zKLvtZUyj82oHdP77VPkNRMQkP6A0G00uSJUWaFF++ORR+lUTR+fCsGSpiKKd2jr3mbQMK8aKaHnnHhTar0zWleB5eQV9wINYdFdg49HIOvdHwuxRItC3Itf5MqeBih0bkC7WKSJ5GeKC7JexlU5dEDpvFRYFiwg+PQeFnt/8MnAGFcfkAq5Hn4aL/rqufRHk8QAAtSjMWIN89Mb8/12I8B5qsl2n3rCsWAWLmC/n5bdRoSY7sjwwF6GOo7/L/4m3aOlo/czhquqJt5G2uRL+lkQsGub0Rb2jMD9ebMj+POQ111zByzzRdvukeTWB05vmseAozBgmnisPorTRtvdAeFwUgp1H1u8+AKHy1sP+ctS39vMbjIgYsW0HdyLfqQmgfjXeD3GTGq6gFWfJfd4fix6a0uiOpVgQQuLvQwQqkZHvYbMZV7qPwowZgWK7NiAtIxPp6WJniWMs4baGTt3nfd/0HIBwsXznuxjaXYreg2C5I0zkqc9Q5nAXo6L0I3Ec9EX4QIc8PCAKCbc6Hzzy7oK8E1aLsq+Nm654fOy0lmM5WJshdsDYZKyJccqXQrfBiUhd0Beyf5y1yIcdUJmDxOkyr4VhRapB+aLUBM1tdPdS8r8pVj8uxDFdWp98vpVXwYMnib9OdyTVHceISeIYE8dA/hGHwqTuEIp3iufIQQj2uL9MLaL+O7HxOnXqgai79P2Z87nD8n1J9059ERopnp3vqon8aMUoWKL7iuWItDqqpkuHD2p34iyDPbhbY9fZgvnT5LIa9LljikhTkffLa5HwB6c7jb1vE8eJeBblV1mjbN4fllmDEeCcfv0GI1w81ZQdNRiNshbBsxNhuUq91cjmxLHa/5S+f6Thf3ytGzhr7WPAF+dux/wHwhqnXY8IxFlkGZmL4jJ9kqalzqunKrUmZUHX9G6SBgH9Aj0fKt5kenpeFnh7HjNbZ+qN8In9xbMV+R86rffpAuSI8sLfcjtC7aex9pSvvMlPQsDIWFj6OQ++Ilt2DBbPBSirv6sXiPDfiDQ5l41c51vxh/VjMCQ+AuIUq6na+YI434u6yAKnclLoM2EuZOOW/F0FHXqU2nYwUIUfQifcJwrGprf5SwtyxElzFKJGGpypR96GoYaj6HVBSKjMGA4ZqXQ/Ms4Bob8ZiiCDE2i3/5RHoOuKUYOzKC2W7fYtsIx2MRpQp0CEjhbLE5mw8LCa5pMeCBks23NYsXpdASp8PibLUbxX/HNwLCLsOd9Z54EIlyfNgwUobpIEgxFyvVNlWOoltlM81TisV1VRnigAgbhxYU0KGOmKK+T2OB6wrniTJ9pynzTPP2ygQR7rgaAg9dLIabmPcpCeloqkB+IRPX4ykvfLD8pRVn+iFCeRkZNEujo3ATyL/HdytYpS1GD7fipBvlXsGFHRDDdqEtS9t1YRMa70eCc4ei6ixMkud10qcs6JwjQhymH728O+CUSIXH7lHhTXZ6WzOLC/AP5jByNKBEXBoqwo/MyekcU6FxWJDZuEUOe0q6sVAVcRcqwbsFYOYX7vVAyZmal9lH/UKFN7fuy0lurDn2kVqbhJo1xWmoIG3ybyQy2sH3sZ5J0rwepE2fdCBFSvpsAii1EX/G/t5/a4qPlRf/a1vPIfOAhR4jnnQ4dmKoeLkHsuDOGDR2nBSsW7IihQH+HLErHXRbqMbGi20rwwhN7gen868i3dxTE+RDZ5c8yPoswT5WrNsDAMHT1IHEmVonLTUCaWHswTfy0IH2KwXq6MFIGk8+x+gSIwlS9GIaSfNsVBF1x+hf6qYT81qKkUwevOrVibloLEe+MROcbex8/holA9UbbfYFAo9bwGWlaoc2xk5GPdwEmrHgO+EvnuhkZBgu6qa7Sd0EiLnVeDBsAivrP06VRklDZtZucps+npeVng7XnMfJ2pz9i7RKDWtAlgdeEecVT2RsI4GXTp2lW+8iI/1ZP9qj4RgdHmDVi9JBHRsRMxWvXNd6wL97n1Dm20X+cmgKXvyWMwDJYR9oL/FA7skf9vQUR95OmgUw9cfo14NiwXOo72MfpfsNgxYr+Ubv+o4aRXdwT5b4jKoyUKEUbBU2BvBKiXzn7ZqfEOrT5RqWWGwj/pHRGbPFTFqPCb5kqlSpR9Jp56i8zh5hx2RQ95YNeixmTb0aC4FKwZ2xVlWQsxZmiE1ik1v9zLwvCMWGdZB/+VWGd9igF3J81A9Gn+vKX57jv9xJc+1yCNxcM+mEbZN80Fr4LHeaJt90lzQq/spV55QPbzezIeA8dMRczvViJtVxHKLhUVxkmxiDKoUPoPvh1xouAsfvNA/RV6eQUtd5co+OJvR4j9RHWmChVyoICilVoH/qb7QlV6iivNF27dRyHhAXWiGZaE+2913AntY9/ofVVE3vlc5bszRcgXaaZd3Q8cgAiRz6xF6qRX+5moIIr0HD1Ar+Qpsp14YkQ4xtybiKR1OcgXlZIgsVzZH8A1z4+d1lJxTAa1vXF5gJsd0F1UaMSTd0HeZyKgegDp5X2R8MwqtwGV5PFx4Wt51XUAQuWV7h0H6+9Ilr4vTvqiHAnpqYKVUhGEqYsUZcV7xDEUgdCBbtKlCc/3p6/p3m2Afpen4S6mXuYFhw1AgN9AhIpgsrTgoKpEigD0XZFYjn3/PHFFgEElUFTXVY3dv0mF1wXZn2RRBAZGxSM++Slsee8zVItKXES8CPLULE0NRh+17zziS93ASesdAya4qb84a7HzatdRWCL7O4oAbPm946ANQJJd4vXgAWbT0/OywPvzmOk6U/cwRMkLNtYDDi0nziJ/T16TCz3tKl95kZ+kqv2piB41DpEzFyJ5Ux4Kj3ZByIgozLjD4I73VaNgEWVrTXZ+Q79R+zE49nZE1N8BPIWKL+VzJuJvMdpfE+svFld4UAW8ULWPoAp9ERUvKmaOt/kPvo00eRtxtDdXEo3V1ugHVfAdeqc5V48Z1zczcISs+NV3pG0DnXojanUuPtyagvm39UDZ9lTMmTIB0X/K87yzX22tU8fm1lPzgzzV90Co7HxqkL72R/iVnuxRT/NEG++TFlSx7WHMyShH8KxU7D5wQOznTdi2ZiHmJ1gQ+h9qJked+os0ETUMhyaA+hW0vpgx1qEwtO/zfg2djA0fsf3cVFw9F3T9QO05fGyYU8HeTvZN8FDtCm3+Z4e1iys1n32EnPqr+30ROtavoXng4YOwwg8RIY7pWYTV09cgt3sUVrz0Dg6/9ya2vZSKNQvmYsZ4o0uo7Yd+TLaGaxAyUEZSR5D7rho5rCX4XF6JcmekbKZSgFKtvNADjuAJg7RKjR6s2JsHntKamWHYYNzs3PS2hfic7j0HIXyA+P+Cw3oQUX4QuZV9YdFum6qBV+zNA0+Jio3ItOG3DnB5pbz11KLw6Xgs39UDlqWb8OEH+difuQmblidi/rTbtTRvGebrBq13DLSNljyv+t80F9t2b0XWYosIroqQvmw2hkUkIr3U81p/m6WnL+cx03WmLgifJJvzOjQBPLEHObuAENnSSZ+iuWDz1bGtmPdgJsr6TsemnHwc3v2KOJ+twpKEubjnVqPQrAciIkdprUnqmwCqpn+N79Kp832PwagfMMnwEYY+3lwEusC0k6DKfovRfptfFNjvWFHT+z5Y6ps0OTlX7fJEfuybIvG3L/qoq1gBV+oVn26D5Yhlc10/bmvmcit6IUjeTa08hZNuyqB/npMHW290u1R/b1a3wDAkrHkFH+ZtwpKx/ijdthhJ2+TlXA/06K23j/9arLM+xYAovLQhkLugm8EtZE9ddaVMnFMIHmeQtg6PuJtcNAVz4lmeaKV98n2tm/RqCeXIf6NErNJ9ojAb7HEhExwmR+OxNwE8hdwdecAAp+YRYp9rhX/XwbAYpH/Dw4P+CKa0k33jNxDhsq/Kjo9QWleL4oLsRlf3tf44leIzkaRln8uRjyYh1OGKZM2H+Vrz4aiEB2EJ9izvthdX/UrbAThZ5WYHqPTs082bM11XRMxLwYqRfijb/ADiX2ihwMpEedVn8B2ioigCjc9OiZOACJxLHUb2U33rcj47JP79MIr3ymNpgFdXd73he7r3Rqi8WqzuqlUU7USpw8h+AQP15qrFh0W+PHQQ+eI816jvX1upLUJulti2O2T/mL7o5undLR94XTdw0nrHQNto6fMq/HojxLIQWW+JQPjPsQiWF43mpnrcp7XN0tPEecxMnck/JFy7CGdvAljxXrY4zkY1GllXap10OIOaf6iXraRsfzaKRTmT8Ie5CO3t2Xp1C70NEeLYszcBLH7nBVR0tiCiUbPjXugj+4Kf6ouIOUb7yf6YgpBWupjVHrSboApX3S4yrbrNX/sZcrNr0ec34gTiqrDecaDpELaS1jlZfCBPRPbOsEEDtPb2hYUlJu/a9EDIMNnUKRs5e13cUq4rR+HOI+L7oxD+azWtpXTti7jFSVqb3+L9JR72h+mLUK2zrxW5rvqsnCtCvhxCeuywxp3qvRTQb4BWuOV+0kLthz3KE77uE39007b1iN7cyEn1oabDM7ess6iQX3BNDzRpDXP6I+Rrt8kNBI/CDFE51JoAnihArpgvIuZ2p5NKIEJkE4YiUTE7r3eK2su+Uc2/zuWh8LCodIt8FDFicP0VNr0/ThEKS4/ow1M7Nac6c0pficsDmlZaZH+X9kxWwuV5zrqjwGXZV1YoKu7iJGu51aDphzty0AhRcVkxUuTH9bORmO1ZpcU9E+WVasophx0vLRZ5v1GeUn3r9pSgVBv4wbuh1L1lJt2DQmQ/DHlXTZzL9pboZZ76zL6NueKz0qJs/TzXepvh2j9O6U2QjZoSloqAS71sEd7WDZy06jHQBlr8vOogYGQiVsjWD170aW279GyB85gvdSY/EcTJNNGaAFYi/80SUdbchnCnpqa+poNfZ/08UnrUoLw8LY751q14oPqEzEeBuLxJ01m9r7Gh7qNgsUBvAniuBLlWcQzGRzUM2qHpgeAQkW7I0y76XKzaLqhSBWDFty4qV/K2622jRE7LRv5rB2A91x8zbndzQJ6zYnlaUeMff6s7i8L1S7FW5NXw2VENhW7XMMRNEzt71wrjqxVnjsC6Oc+jA67P2DhEda5FzrKlsDp3SBHfX/zCCiw/6Ifw/3b4fp+cRdlhg4anp89oVz78ndvQukxfP1FJuQ9BKMfaR1IbRkS0q6tEzooUZJwLRMI9rjtceqRfFBKGiXVIW4rVRQb7+UQR1lplO2RPeZYnfNsnXUQBICv8RUjf0vS3LpJWtHZluQv6yJqSHLXJMUvKflZpG9xUStRoPAcLYH1NdmCOQNQw58q+SLe7YsWJOA/Jy3KaNnsQaVKanYnc+kEwROFvnY2BI+KR3sKFYXvZN3rzr0oUZ2zRBy8IcUgz1R8n58McOaZNk+ZUXXvIE4Wo1LzbuPNyTVkm1qa1RCCh/Fw136msdHmSdsVf3rE5egrfOe9rUSGdcYcfanYuNSz7qg++iOQnSuA/ci7ucrg75zFtNL6nMSOwFvnLpiNxu9n0MFNe6U05sXMP0t/XByJxLIO1vnWVB2F9S+zHzqMQ2tIXvRyZSXf1u1s5ezJQuN8PEY1G9tO3saI4BzlFtfo2qk/a1H/00C/k7NqDQu2uoXKuHOn/t6Ghz2eL8LJu4Ky1jwFnJo5jQy11Xj1RbvBjtLU4eVLWfJz6urnbhjZLT2/PY17WmdzQW4RYtfyWL85PcZMN6kY+pkO3fgO1YKzw5a0iQNGnaUTZZl22omUvSBjo1lMeOwXILWi8zlV7N2DtLvWmCVEuj7bAXwTf+Zv2iPJXlPsGvw8XHDldO8+u/R+Dsluoen8DMg6qNx1UmwVV9qg+d8UDSHpSjp6VihyHSp3UbXQU4nAEa5+2ombAHQhvNOyqE8t0ROxNxPCJC0VwJZaXloI5EycgfnM5uo1dhiUTHJtE+CFk9jIk9APy/zRF+zVu/X/kqCezMWRUPJINb3sZEBH7CtXZM/lO+UvwKdpy7N8fk3YEwbOeRmqj7/dFDYqfnqj/ErVML/kdTy5FzMw1KO4chiV3yUpnA7fp2286nl0uCoXyTMRHyl9hT21YXsQUJO08g4jlKZg/oNFlBx/0gOXhZYjoLk6scydg2ExxElDpvPx3YlsiE5EuSzcveJQnfNwnfSIfEpVBEVBsno3hD6j/WbUQw+7ORNDvE910tm4Jgbg9Ro7mJNb5Xvs+lus7GYnfjcIM2bLABb05TAHSM4vgHxOFcIO7i7Lt/JpZotDbuxJjIqYicZW+H/R9Pg7Ryz5Czc/VzKIQLHxTBC/njiDtPW+CXg+0l32jmn8V7s1Tgxeo6ZoeCAkTaWW1IgNhiHAaOt1/yO1IEOtSkbEQo3+nr4ssN4b/NgdB0+Q98BbSo7/Wn0Ze/IlPlsdoClbv9KRHr7q7U7kB8Q/K9UtFUoZ9P3ZBRPLThmWfPCaHT9+AUlE+bFoR4XtTuM79sSj1EYR3PoPcJQuNK37eMFFe6UOr5yF3rxqIxFGwHD2vABnWI/C33NYwsEurMJHu9qHVRV7NdWqKKmnbuF/k1VJR2QtvfB5oM36DETVLHBSVmZgzRZ2D5f6JmgprUKxI55blVd2giTY4Bhz5fBy70kLn1eM5iB7lWAbL/xfnG2utKMfuQ5Rjmeh2G9ouPb07j3lXZ3JLtQixPv0U8jtPQoThSDA+psNVUVg0TRw7onyLiUpU/yPPh1ORHpiERXLAnVYUdFucKKvlOk+vL1vl+o5OrkREnOuKh94sshYZmfIYjEWU2O4mekZhiVHZLbdvfDiG3Z+pBbgdWdvdqbpqCtZvmIvwLuXIyXgR6Xtrm/bfUb/FU3Ou1qBJk5POwzD/pVew4g7g7cwXkfacVTtwZqzYhN0rI5r8fpU88c9/6TVsekiOqf8RMp6T/5OJ7C8DELU4FbtXe14AaJ09X9+IFdMGwf/zbLEcsazMPTh5gwUrnn8N2xL6e9SB1r2uCJkUi/CAs8gX6SW/I/2dclw+aRm27TAYvriZ9O0zYRX2vZ6CRbddg+r9mfo6bxeVi2GJeHbra6JS67xAH/WOQOrrm7BmWhiuqMxDupbOW1FYO0jbN/vmeFkJ8DBP+LRPZGXw2VQsmtAffp9Zxf9kYsuXXTDzz+ux6FaDSKWFBUxIwY4/x4qT5VfaPkuziiBpSgreXROLIHcZyD4azzk5zK6rztp+CEnYhHefSUTU9SKYsDrkobFJ2JSzClH1sUNvhIzuC//OfZEwouUrae1j3wQidEJfLR/ZBy9wpDe5EpoEXIKfKDte3Igl4v9RpK9L9jfXY1HmRiwyimh91htxKamYP7IrynaKY1SkUU1nT0oSP4Q+sAkrLGLfFcr1y0FFJ4c7carsy1oai1D/g7Bqx2Qm3j4xAHFLN+Ldl+YixLks9lbvKKS+mCRO1rLiNxurP/HwIpULvpZX/kOGisp3rdjPBsOMq9HzJK9+18lXPqe72J8jRVgi8mqNZahTExuxjWr4eBgEXG1HlC9zNiJrsTyfFmnn0/R3KhH80CZkzbvNXIsHI97UDYy0xTFQz9fj2I2WOK8G3ibK034NZbD6//nPvIkdDzmXwc1sQ5ulpzfnMS/rTG7pLUJkfmvazM2BT+kgtmneeq0uGuL3mX7sZB9Ct6kp2Dyv4bcmW03PCDybmYIZ2kAesmwV+aCTBc9aUzDz1642VJAXUiz6Meju9+Fk2b07cxlm3NoDx/aoslvUbWqGxGLNS9sxXwbrHdgl8heA1et2oBb5q8ZhjnUUUvOWIcKovnIiB3MiVyJ/2kYcFgUBdXQe5AkiIurAeB6gtlWWNRuRT/wd8zO3anejiDzRfgaqkI7liIi21mWTJroIMU8QEV3ceB6gtlRbhIynSwBXzdyIXGg/QZXspPfkUyhGfyy6y/xvU1EHwDxBRHRx43mA2lQtitPkYDh+iJstB6wg8tx5b/5X/MJC5PwQiOr3c5BzsAYhizchyxKoPjXA5n8dntd5goiIOhSeB6gtVe1MwWOlXdDtWA6se0+hjyUFWYvboI8TdSjn/05V3UFkPCeHxRygdbjcxEKTmCeIiC5uPA9Qm6pCbsaLyPisFyIeSsXmPzCgIu+1s4EqiIiIiIiILizta6AKIiIiIiKiCwyDKiIiIiIiIhMYVBEREREREZnAoIqIiIiIiMgEBlVEREREREQmMKgiIiIiIiIygUEVERERERGRCQyqiIiIiIiITGBQRUREREREZAKDKiIiIiIiIhMYVBEREREREZnAoIqIiIiIiMgEBlXeOJGDOYOGot+6EjXhPKo7gvTYcPQbsxg5J9S0C8Unqegn0nFO9ik1gYiIiIjowsWgioiIiIiIyAQGVReqTn0xIzMfh3evQlRPNY2IiIiIiNocgyoiIiIiIiITGFQRERERERGZ0HZB1Zly5G9eivgpEdogBf0GhWPYzKVILzIYrMBxIINz5bD+KR4DxfuBaU4DRJwoQvqS2Rg2Qi5vKIZMWYzVO4+guk597om6syjbm4mkB6ZiiLZe4nvGz0bS5iJUebGcqvcbL2PIlEQkWY+gRn1ez/D74pG4LhelZ9Q8HjkF64Py/1NRrKY04kHalL4wRXwWjtWfqAkOqnct1f7PaDCJsqx48Vk8MsrVBEVLg5kTtX3Vb1AEIpNSkXP4rPrUAyJtSnemIjHWvgyRR2LFeu/ngBZERERE1H61UVAlAoDkqZiz7gBqbohCwqzp4jEJvy7Pxeq5k7F8f62az9lx5CTHI3mbHpzUOMxWtT8FkZGJosINDI2Wy4tFeNePkC7mj1lf0jSYcaFq+1JE/i4V+f/qC4u2XtNhufYr5KxLxOjHCzxYTi2K103FsPsdl2FBKA4jZ+9hNIqTRICYkTRB/75vAxFl/77rT2kBZ3TkQlgr1bwmeJo2wSGj4C/WP7f4iJpidxaFe3K1V/nvH0S19sruFIoLxPy9b0NIoJpUJ9b/CZUGdYMQJ7crbii6FYsgK3a2CNpc7V8HdZWwirSJTrbi4563YYa2jFG46h8FIvA+rmYiIiIiImqHbG2iypb3crbt82r11u4fe2wLh4fa+iZm206qSZrip2x9bw61TfvDw7bx8622z/+hptt9m22bLT4fID778l9qmqbG9vHaGPG/k22PFdeoae6dzM+wbTl0Rr2zO2N7+5GRYjkLbFu+VZMk9b191x5UE4Svrba75bqs3G/7QU2yO3noqO2f6rVctwMpk8UyR9pmv3K0ybz//PAp23i57Mkv2D7/UU10q8q2JVHMf/NTto/VFI03afPjQdtjRulfs9+2TCxj2px5Yv41tjzHpKwW+0wu3yENTr6xwHi7/iWWP1ksf6JYR8dlqP07+40qNcFm+6FwjW2AmHa3WEYjP56xff5lw3xERERERO1NG92p6oHwuCgEd1Vv7boPQGiIeN5fjmP6lEYKdwEJS6cguLuaoBRnrUE++mPRQ1MQ1FlN1PghJP4+RKASGfnOd1+MBYyMhaVfF/XOrgtuvnWweC5AWXM3SU5Vas3vgq7pDX99Sr2AfoHopl7jWA7WZlQCY5OxJiawybzdBicidUFfoPwFWIs8uLPjgldp06kvQiPF8/4ifOx4S630I1gxCpbovmI9C1B6VE2XDh9EjniyDBbrKtWV4PknCoABD2LRXU7b1bk/EmaPAiqtyC1V01w4c6JSu4MWfFVvfYJdpy4IDuqh3hARERERtT9tO1DF6XIU781Beloqkh6IR/T4yUjeLz8oR5nRD9haohDhFFABJci3iqBj8CSE25ufOereG33EU03ZUVTpU5on+zl9UgDr5g1YvSQR0bETMXqZCBSEsq+b6c8TNAAWEbyUPp2KjFLX/YeqD3+mBV9xk0Y1BFpOggbfJta9FtaPPQsIm/I2bUSgNSRCPOei8LOGQK60KA81w8IwdPQgWEQQllvc0Hmq9GCe+GtB+BA/NWE/Ms4Bob8ZiqBO+iRH3f5TBkm1zaZjwA2DECSeM55MRX6l70ElEREREVFba5ugSva5eTIeA8dMRczvViJtVxHKLh2I8EmxiApW8xgINrj7gzNVqBCVeBStxBhtMAPnx2yky/mKKw3vfjmr2p+K6FHjEDlzIZI35aHwaBeEjIjCjDvUnZjmdB2FJanTEYwCLL93HAaOX4jV2SVNBrmoOCYH2eiNywNUMGKkew8tsHDsO+YVH9Km24DBCBfP1s/sgdwR5L9RieCwAQjwG4jQO0TcVHBQBWEiKH63ErhjEELUZlSrO0yFf5KDXhh858xMbb7Cb5q55RcUi2eXi4Cz3Io5UeEYMn0p0veWezfoCBERERHRedAmQVXFtocxJ6McwbNSsfvAAXy4dRO2rVmI+QkWhP6HmsnA5Z2d2wsKtbX6wAn9IrRBHlw+Yvvhcu0f3Di2FfMezERZ3+nYlCN/SPcVbHtpFZYkzMU9twaomZrnf9NcbNu9FVmLLSK4KkL6stkYFpGI9NKG6KjmB4/vm/nOl7TpOQjhA8T6FRxGmXxffhC5lX1hCZW3umQzyLCG5oGnRMBVCoTfOqD+blttjX53LvgOg+9xeMy4/jJtPnf6TFiFD8U+eDZhFC4/lovVv5uK4feuFOujZiAiIiIiao9U36pWdNT28j1ysIIXbJ+rKQ3sgy04DQhhMJBBg4O2x8Rnfedk246pKb768pVp4nsm2545pCY40AdfcFoHo4EqDJzMf8p2pxwAYvga2wE1QMPJN/XlLdvnZgCNo1bbnWKe0emH1QR3jAaq8C1t9HTQ98GxLbMa7yu1To99aLP9sG+NmG+a7WXHsSTsg4q89o2a4AG3+1eRA1Rsedg2WG5PvNX0viYiIiIiai1tcKfqLCrkIAXX9MAV+oQGpz9CvtanyhuBCLlDPBUVoPi0PsVX1Sdkk7dAXN6k39ZZHNiv96nyRcDIRKyI7w2cy0bhYTVtYBjkmBzWHQVOQ5Q3KCvciVL0huVWD5seNuFb2gSFyL5cBSg8eASFe0vQ5zdhqG+VGTgAEWJTcsVnpUXZjYdSl4IGIEo8FRaWuNwun8gBKizJWDJWvD4otoc/VUVERERE7VQbBFVd0EfW0PfnIc+xGZfsZ5W2AfqvIXmjC8LvihVBQB6Sl+WgwrnPjfwB2exM5BoNfOGkW08ZvBQgt6Bx+7KqvRuwdpd605wT5QY/2luLkydlc7/B6GOPJK+6HTPu8EPNzqVI2ta0PVv1wReR/EQJ/EfOxV1u+pm552Pa/HowIjoDOXsyULjfDxH2kf00fRE61g8VxTnIKaqF/9jBDQGX1DUMcdNE1LVrheF24cwRWDfnNTtoSHX5kaY/tlxXJQJf8dw5EH1U4Fstf4NrUASS93jxo8JERERERK3oEnm7Sr1uNVXbF2L0kgLUdO+PqAki0LhUVu6zUXi9BXHnMpFeFIYVO1Jg6an+4ZNUbYCD8KVv4tlJRsNp16I4bTbinzsilhmIiLGjECQr3d9XonB7LopPh2FNbgqimhuJ+0Qu5liWIv9cV4RMiEJoLz9UH8mBtagf4qJrkZ5R1HgdTuRgTuRK5E/biMMP9denaeuag6DbbkdEkD40u7aMvafQR8y3TcxXP9jGuRKsnfUA0g7XolvgKESN1Ydct8+PftOx6bm5CGk0FLorp2B9cCKS98ci66NE7S6Yzpe0qUX+qnDM2eEH/3OTkHpgIcIdxtOoEYHMwAet4pUfZjyfj0U36dPrudiumuNFsG4vQfXIZdj/5wjU91Iz2L9V2Qsx7InDCBHpKPeDXKeK90Ugd7BGzPeKmE8fRVBbT7kqY8UyVzssk4iIiIjoPGmTgSoCJqRgx59jEdH9K+RkvIg0axH8p6Tg3TWxCGoyvJ8n/BCSsAnvPpOIqOuBQqtY5nMvIv2dclw+NgmbclY1H1BJPSPwbGYKZtzWA2XbM8UytqKwkwXPWlMw89duRulzFHgbFk3oB//Ps7V10JZROwjzn3kTOxwDKqlzf8x/6TVkLY1FqP9BWLX5M/H2iQGIW7oR777kaUDlji9p44fQkRYRHNWixjIUoU6b7j9wkNbED5iEUKO7aGq7Nj0UgWB8hAy1XdlfBiBqcSp2exD8dB0YhRm39kD1frkfxP9nvo2ygCisydyuAipJbFtolAjYusJyRxgDKiIiIiJqF9rkThW1BnWnqng6st4TwZiaSkREREREbatN7lRRK6g9LH93FxjZT/ttKyIiIiIiOj8YVF2gKrZvRYZ4jhgxuP43o4iIiIiIqO2x+d8FowRp07eg+tbeIqIqQMbOI8DIR7BjTRT6dFKzEBERERFRm+OdqgtGF3TrpA8CkV5Yi/CEVLzLgIqIiIiI6LzjnSoiIiIiIiITeKeKiIiIiIjIBAZVREREREREJjCoIiIiIiIiMoFBFRERERERkQkMqoiIiIiIiExgUEVERERERGQCgyoiIiIiIiITGFQRERERERGZwKCKiIiIiIjIBAZVREREREREJjCoIiIiIiIiMoFBFRERERERkQkMqoiIiIiIiExgUEVERERERGQCgyoiIiIiIiITGFQRERERERGZwKCKiIiIiIjIBAZVREREREREJjCoIiIiIiIiMoFBFRERERERkQkMqoiIiIiIiExgUEVERERERGQCgyoiIiIiIiITGFQRERERERGZwKCKiIiIiIjIBAZVREREREREJjCoIiIiIiIiMoFBFRERERERkQkMqoiIiIiIiExgUEVERERERGTCJTZBvSYiuijU/fQT6up+wk/ttPj72SWXoFOnn6HTz3jdi4iI6ELAoIqILir/rqvTAqoLgQysftGpk3pHRERE7RUvgxLRRcN+h+pCIddVrjMRERG1bwyqiOiicSEFVHYX4joTERFdbBhUEbV7Z5G7LAL9RsQj7WCtmta86j0rMWRQOKKfK0GNmnaxa699qNxpdp0PZyJ6xFAMWZSLKjXpoudjmhSvG4p+gxbCekJNuCCcgvVBud6pKFZT2gcX69XMvqkqykTSdFHeDRL/O+bFxv97qgjpS2aLck0uN0KUh2o6XXzOlSNn3UIME3mpnzjPJe48pT4gQ0yvNtFGQVV7LfSJiIioPajetRSj56Yi98QAxM2ajhnDuqpPhNN5SLozEav3HEeIZToS4oaim/qILjJ1R5B271QkbT6Iq26LRcKsSQj6ufqMmmJ6tR05UEXrq7JtSQy19b35KdvHakpL+mdxhm3h/TG2Z4rVBCfH3l1jmzd1iS37WzWBqINoLu9TY9/X1Db7sDz4iNv3vj7MLJfaxsdr5XlqgW3LBXWuaN3zq++8Xa8qW/Z8Of/Dtux/qEkOTr65QHwWapv31hk15QJXfdD2/P/Ms43feFBN8NQ3trdXPmy785G3bSfVlIvOZ/9nGyDywuiNh9WEFuTzfmnHWjO9qJEO0fyv9uuPkFNYjmr13tnJz6zIPXyWTaCow2ku7xMRXRiOo3SveBochpDu+hRHx74sEH8HI3xgF33Che7cURRuL0LZv9R7j/0dxdY8lJ65eGs0VUePaPW5iJv66hNaks/7pf1q1fSiRtinioiIiNoHf+CX6mVTfgB/YYDs2ITNO0yvVtd+g6oTeodUvVPdUAyZshirdx5BdZ36XKjKXqh9NmyZvIIFpM/U57V3NNY7HQ9FzGb5aQGSI+2fN+3bVfV+JpJmTsRA7fMIRCalIufwWfWpg09StWXMyT6ldfyz/ile+5+BaSVqBkFb90REjlHfN2Yq4pdsRamnYwycKIF13WJEjw9X66vWp6zpAhw7VteU5SA5Vv5PONY6d+D1ID09UncKxdmpSIy1p5XY9vHxSHyhpPHdEi+2QdLS/4GpqgOyXL9EJFn1qyuN1J1F6U7x/VNUR+YRExGzJBOF3nYs92IfeZo3GnVyF8tPS7Jvj/yfF12vowfr4tyBvrm8r3HMq9LpXCTKeaZvRYU+xUkt8lfJZcxGxjE1SfH4+PDWmSPIccwnYn9Gi2XnG6WVUZ56YCnS37/IO9yeyMEcmR7rHMogO7NlkXSmHPmblyLefsyJh3Z87qxUMzSo+iQHq5Pi68sZ/ftcHJ+O6y2P6+wUxKh9O3D8bCzPdlE+eZJn3KWJvQyxl2H2MqS5bKS+156Wch2TNhehqsk6Nu5DXFX0IuK1/1mIHMfv8LYsE2VvoeN+EGmbuC4XZefU594Q3122t3GZ63p7muHtejXZN/b0mo10+Xb/SgxT6yTnsZd1zZ7HPd0/jfKdWPfnEvU0+J3TwBk+7u/qwzlYbi8r5T5dlYPSM/qcGvv3R65Evny/ebbaHoey2lAJVmvzGacTSl/EGPl6VYGLVjn28n0xck7rUxqdV9QgII3rCOWuW/h4nD7N87jcUOc0t+c9N9zWM7zZL03KxHAMi3VTp3I8F2t5riHdZDqnuTuHmam7NZteHpZVgu9lu+P2inSamQKrvR6oyo6Gcn+h+zx3Aej0qKBet6LvUfpWJt49NgCWubeil5rqStX+FFjuSUHOySswZlIkxtwajMtO5uHVV17FuzWhsIReoQXcP35/Fj+/oi/6dfkOB786g5AJ0xEdfhOG3NwPIYOCcXldHf7fr25Cr39/giPf9UZ4zBREhsrPgzFkSKDeyVXs1PyUmYhenYtvLx+BmEkjEPpf3XFy7+vYnPEezt06CcP/0+HS2LcfYH32QQSOug14fjYefvs7yLxd138SEsV61YhMPOnux8W6X4bhE+S634R+/uXYn3sa/abcjuBmWy6IgjN8NlK+OIPgsRZEhon1FetTset1ZGQW4bLbJ2GgQ9OIb99/HtZPr8KY0Zdg/dz/xVvfamuDgVGzxHrr83ians2qzEPyjJlY/sZBnOyt0urmmxDSsw4Hvw3AhDFB6KzN6M021IqC/R5ErhTp/x+3wKIt89f4f397H2/9Iwj3jO+nlimIIDbj4btw/wul+OfACYgfdwuGXHUJDryzFZl/+St63SHS16Ffsyse7yMv84Z9XwzvdxxLH1yLkzdGIkJse78uZSjMfw/WbcfQb/JtCHK4DOvputTv5zh9WnN5v5e//Cd7Xo1FVD+Rir/siZ9//RLeKqhGYKTYB/+fvux6te9j88JcHBz7ANZMCZIXjL0/PrxRKQre6IXYKGoc9nwyMOAMPt63G/9vREP+lfQ8vBpWkaf6DJsktnWQlqdOHsiFdWsm3vrBs3z8owfDk0+OGKVe6Zzf+8rMcn/u7geA/yUqN2JffHWjXgbZmS+LxDJERe2eqYuxcd8x/GA/5sQx3+/S71B0yQ2Iu1l9nz2frBQVyHO9MEp938D/qEL+9jfxasbupnmlfr0HIPD1hbi/4ApERISJ/CXK0UMHkPv263jXfyTiQnqofxA8zTMu0gR1lch5ZCpmPvcRKjqFwDJ1DIYPuEZUSP+C1WlfoqZ7GY78reE4s6sp24r77/qD9r0Db79b+96gSz5Czl+2YtPhnoga1w/d6i9RNpzvIsI+QdKs53HwBzn9KoRPVcv1tiw7V4K198UjebuoTF01CnHyOAwOwLfbn8PKN0/g//mL9a707PwqVb25GGMWb3Uoc8X2/PuAOJZEGf2PYMwYcZVn5wRf1qvJvvkJNf/qhMuvvwJ1H5fh295hiLtb7BexTkNuuAmD//MSraxzdx73av/Uf/8oDP/kUdzzbKleiesThpnqfOPr/g65+nXM+f376DVyLMLFebbXub8iP283Xs37OcZYbsLl8n9s/0b1z3sguG9nfFtyDNUDIpAg0k0eV8H9QzDwP/30xTbxI8791BmB4pgzSqfQW3ri3Juvo/D9bgi5LwyBzkXGmfew/g+7ceSOuVgxIVAr3+vPKyNrxX58FG8HDMNdo0ReFMfguYO78daOrcg1KFu9Sx83vC03/v096rpc5f68Z8iDeoaH+0Xf9oVYv+87+Ifcjpixsky8Bpd8uguv52zFZqPtt5+Lb+mHisfmYeXpEETLdL62Mw5/8h7efd2Kr4LuQsS1jfe96bpbs+nlQVllpmzvPwC9rH/AspMDMWnELRjYqwYH38vDW6K8CLxjAA4++lsk5QUgfJI4FkWeq/4sT5T74nv6TEKU2A8XJNW3qpV50WH122zb7JtDbQPmW21f/ktN09TYPl4bI5Yx2fZYcY2apjv5ht6B9TEXnfXddT7W/3ekbfYrR20/qGmafx20PTZZ/N9Esc6OX1f8lPZd0/7wsG28WMfPG3Wo/cb2crz4n+FrbHmN1l349rDty2r12q2Dti0bP7Sd/FG9tTv0gm28TJe1jTtP6ts2zzbvDzFiGw7b/un8fz6kp6EfD9uekelxc4xt2b4qNdEVL7bha6vtbjlt5f7G6S+cPHTU9k/1Wl/fycbf/43YxuFi3RKzPei46/k+8jZv6PtipG3AaJHXvlYTNfa0DrXdKZbVwPN1cZWH3eZ9lVdnv9GQXj/sW6NNu3vLN2pKg3++s0T7bOE7DR3BvT4+PFZjO/D4SLHsWbaXHZNEqhbb7ridcv+K9eo7WaSTc9b78RvblvlyOSMbrbcrRoNAmHnIwSYcH0bztMTDLXWM921UNrRAWfSPPbaF8rgavsD28pfud/Kx1/R8OP7x/U2P+6/V8Tl8ie1tx/LSvt7DR9ruXPth47LLfkzfLNa//qu9yDOGaWKzffnKLH09nb9PLPvLVxZonbmbHGc1Iq9PFNMN8t8xcXzI/3E8xhrOdw9r5fKy/G9sPzh9l3dlWY0tb6Wex2e/5nTc/lhly3tcL1u8GajiZH6Gbcsh5+PljO3tR+T3eDpQh4/r5WLfyPPGY3K6i3Lc5Xnc2/1j/35xDp8n/+cbp7zt8/4WZf/Up2wHHI+t+vIpVOxrp+9xmQ7NcZ1Ox7bo+bvJdwl6+T7Stqyw4bP6c9bwGNtjHzrlB3sZL/LpM4fUNMnr9HHNp3JDaK7O14TH9QzB3X7514f6thuViT+esR1Q5/nx6U4DQqhz8YDh45ocKz+Iz2S9qO89oo6mpmnUepiuuwmu06u5spX0op4AAJ4nSURBVMrHfWRPQ/G4e+PhRmluzyOjJ8fYBsS/YPvccdvs5/qJYrqadKHx5FpCmyrOWoN89Meih6YgqFGg6oeQ+PsQgUpk5B9R00yqK8HzTxQAAx7Eorv0Kzf1OvdHwuxRQKUVuaVqmoPCXUDC0ikIbtSh9u+okM3uAgPRxznI7tkXQR7cRYHYdsuswQhwvsrUbzDCxVNN2VGD3/YoQi7uw5qYvujm9H8tlZ7V77yAteVAyO9XYckwhyvHhrzYhlOV2m3noGt6N05/IaCfupsonXgbaZsr4W9JxCLn7+8dhfnxvYH9echrtgmAh/vI57xRi+DZibBcpd5qRFrHxGrbXvr+EYf91xL5xTv+Q8IRJ76r+M0DTk0Az6JwT67YNgssI9UlehPHR/POoOKYbAJwPfqIXddIV7HtPdVrkZ6FGTIP98b8/12IcOes16k3LCtWwSLmy3n5bRfNGlvHvb9/FC890fghp7UP5vNWqTUVOef8EPfYKsQFubp6LtQWIf1JkU96z8WaBWFNj/uropC6Igo4l4v0XU2bDAKTMH/24MZllzimEyzyO7NRfFif5HmecUHkZ+vTJfp6znP6PnGMBt2ViPnB6q2Dqp0vIL1SpMOCxCb5r8+EuUgQ65K/q8CgXM5D6XXLsGSkKNscv8vbskzMn2EV2z02GWuinTa8Uw+EPyDKG/XWUwEjY2Hpp47zel1w862DxXMByo7rU9xqhfXyhc/7Z9cRBMsypbfT3QGf9zdgeWAuQh2PLVk+xVu0stP6WQvVW9zoc+sdCBHPGXuLnJpQnUX+O3r5HjXY+ViuxeXxy7BosFN+EGX8ov+diz4oh7WgYd3NpE8jpssNL3haz2hGxY4NYtuBiORlTcvETl0QOm8VFokypCw9B4WqhZujmqC5WDSp8bHif1MsZgwTL0oLUOrQ5K5N68Kuyiqz+0jkt/nT+jZK8z53TNHKhYryWiT8YTqCHbet922w3CGeKw+izE2LyPasnQVVJciXhfTgSQgPVJMcde8tDnBXgYUPSvcj4xwQ+puhCHLOLEK3/5SZvxZlXxvsXUsUIpqMUBSIkEniQCt9CquzPGzz6kJN5REU7tyKtWkpSLw3HpFj7O2oy+HU3UUTN2mUQcHQUukpKtzv5YnnCMyYYLQgYx5tQ9AAWMRBVfp0KjJKXffRqSrK09o5x40La1IoSldcIdfLk8qAh/vI57zhh9AbDNKo5zUIks91jqe6lssvHvMbiAj5nQd3It8xI50uQM5OUcBbbkeo/Vxh5vhoVg+EDJbpZMXqdQWoMDgB6cpRvFd8GByLCIMKr6bzQITLgvhgAYrbqCC2B1TO2k9gZTZvHUH+G+Ik2fs+WIbZM4QLR0U5I/JJcNwoBBvkE8k/JAzi1Ivi/SVNy5rBA3CDc+AnXHWNrODXoqZ+3T3NMy58WYRcsZ59JocZr2cnkWbyKxs5hQN7RKVCVAMi6g8MByJ4uPwa8WxYLvfFjLFNR9vytiyrPlikzR8l5jes/HXuhxBZKfOW7Ff1SQGsmzdg9ZJERMdOxGjV98KTY7rV1ssrJvaPYZliZn8PRsj1Bv/TKxCh4qnG2/zqi6tuR9xY8Ww90LhSL8r33F0i78ffjpAmed8PUbe6GBWuX39x1hcV4OLD6rg1kz5OzJYb3vCwnuHeWZQWy36AFlhGO1+QUEQZEjpanBfPZaOw/mJQA/9b+xmcS3sgSKsciDzyo/7c5nVhF2WV6X00chCCnbOJXyCCtXJ2FEL6aVMcdMHlqrV2Q1pcWNpXUHWmChViB6Jopd7hsslDVcqLK5s/YD1QfaJSu5pT+KcpBt8lHjMztfkKv2laUw82uOIhM0TE759Ggsgo+U/EY8ioiZizLgfFHnSgrCfb2i+KwMCoeMQnP4Ut732GalG5iIi3aHc6jPVF0JUGBVyLpWcVTn4tnjr3xuWe3D3xZhu6jsKS1OkIFpWI5feO0zsqZouD06kS+N135dpz+lyj7WjoiFn2TXOVAc/2ke95YzD6OHThcK8F8ovXRNA3Tl45LUHO+w1XlqoL9yAXvZEwrr+aYu748ERQXArWjO2KsqyFGDM0Quukn1/udMI7U4kyuZq/EidrfYqBti+IjQKq9sVk3qoVx7xM91/3RnPZufrYUe0OYVBAgD7BSNcAff81uqigBPaGm/9sxKM840JN1Sl9Pa9wurzulvifL+VzJuJvMTgGBk1E8n75eTkqmhQ9A5veURO8LctOVsn5/dCnp4uKnA+q9qcietQ4RM5ciORNeSg82gUhI6Iw4w7Ph1xujfXynon9E9xLq5g2ZmZ/B6KPN1mrVXRB+DgZBlmR/2FDVKWX7y4qzu7OWZ2cx2E0kz6NmS43vOFhPcM9cS76TDz1Fucig+qW3RU9ZBTkeDGoQeiVnvR4FNq4LuyqrDK9j64IMLjgImrOqvLc6K5YB9G+gqraWn0EuX4RSJg13fUjtp+bCpbnamv0k3HwHQbf4fCYcf1l2nyOLu/sIrro3B/zX3oHu59PQpwovwo3r0RMZATiNxuMZNdELQqfjsfyXT1gWboJH36Qj/2Zm7BpeSLmT7tdv9NhKAD+l6qXjlosPc/ipDx/dvc3vLLamPfb4H/TXGzbvRVZiy2i0CtC+rLZGBaRiHSHIcpqfpDXQHogVP6SvtE2qEf4lc2voSf7yEze8Iqp/OKjAbdrTTQamgCeRf6ePLGxja/ctnoadOqNqNW5+HBrCubf1gNl21MxZ8oERP8pDxX2E5I9D7dT8q6U86PdMJO3zpzV80ZnP1Ftds+eT9qEJ3nGhTOn9IsIfbp7065WVI7kSGk9BiPOIO83PMLQp0lC+aGbQeJ5W5ZVn5BNfAI9u6DliWNbMe/BTJT1nY5NOfk4vPsVbHtpFZYkzMU9t3oa3rbCevnExP7p3M3gfGZmf7cP3UZGaU28G5oAnkLuDlG+D3Bx18MrLZc+bVpuCJ7UM9xT294W2rgu7Kqsaut91CGovlWtzNOBKlQHzDnZtmNqiiea67TosoOrfdAJ50627hh0/nfr2/22x6bqnXkdO4gaqtlvWya3/5E9jTtOalTaOKWhy23T+JaeTdn33xqHTuMu+LANzk7mP2W7U+v8uMZ2QH1f/T7+UH/fooz2kQ95w6N90dxgGi7yi6tlu837bvLq5xtlR/lZtpflgBqqU2mTwSt8OT7MqD5se/kP47TvbFiXg7Y/y7zg3Im3EdlhXqbPEtvbzQzAYDQIhK8PVwNTtMaAFW552uHdm7LInl/dpruifq2/8SAsTozKhWbW26PO6IZ5RjBadrP52Z6PHI+zhnPXAedO2i65P995W5Y1P/9R28v3uP4+Z1++Mk3MO7nx4AOK/bs8Ob/5vF4u97v7MtK4DPRh/7jNdy2/v11+XzP537XmziX2AV3U+VoN0jDvraYD+ehpOq3pwC92VW/r61g/wIMv6eOCr+WG4FHZ0AyjeobG5X6psmXPl9vuvh5keHw1U29smrfVPjZdd9O5Tq9m8m6rlO3uv9N9Par9a193qmQ/ANk3oqgAxW1xRSBogNYWtLDQ6TeWWlLPMCz6433og1pYP26mU+E/9OYphrdMS+VgFN5qqfTsgZAw2WwgGzl7m7ly0QLbEDAyEStkZ22HdskB/QZoTTVyP2mpjpkOjPZRW+QNI97kFxOCx8YiWDUBrHpf9vEYhbixTvf/2zoNuvZF3OIkrQ1/Q/vsvgjV+gZZkWvQRl1zrgj5O8Tz2GGNO4m3InlHqv03AXTiVd4S6S57E7tLd7t+g/T+ClvyUOriblHNhwdgFc8RIwYb97/xlWGecaFXoNb8uPAN50FaFHs+aqQHgkPkcZHnMGCGOd6WZQG/0geJydjjPPiAUv4RcrwYLKb+DlOTPsFncWC/3vTQEy29Xr5p6f3T8vu77fkhdII8zvUmgBXv70SxKN8jQruoz50dQU5RQ1NwR9Uf7tH6zUWEDFR39Vowfc5nuSEY1TPcE/WgYbJ5vJt6UF05CneK46t3FMJ/rab5pI3rwq6c5310IWpnQVUXhN8VKwqDPCQvy2nanEP7gchM5Dr3C1DtMiu+dZHR/eR9zXKcdG7j2zUMcdPEQbVrBZK2GRQqZ47AujnPi46Ap1Bm8IOoNSLQOCmem21P+x89tJMtdu1BoWxPa3euHOn/t8G4IuCWj+lpIOiO+xDVuRY5y5Yiw/kHfOVvv9jTydttOFHe+IcRNbU4eVIuzaGtd78oJAwT+zhtKVYXGeznE0VYa5WdSJvj4T5q8bxhxGR+kZrL+64EDoVlgKiI7s3By7Lj8R23I9y5kuV1GlTCKvuJ3LsVZWqKa2fFths0uj99Rtt2//p+NqKCMOk+BInjd+0jqSh0zisy761IQca5QCTcYzRYy8XKbN7yQ/jkuSrdU5DvvKvOlCDNfrz5DYZlRqAoYjcgaX1R00ExjuUi+TEragKnY4arDt4e8TTPuNBTjiwlzgUHn8Jy5/wsf4tFdmJ3LLOU4MjpIhirxNr/Mch/QtX7G5Dh/GPr7nhblsnmuiJ5a7JSsNZ5ftl/dd1T2shmnurWU14gK0BuQeM0qNq7AWt3qTeeaOH18lVL758W39+u/Fw1Pqys9Pqilb+o6OLoKXznoqKLfmGwiKI7Q5Tv+XtL4B8zxWBgrQbF61Jgde6ccywHSSvyRIAQ2+i4bbH0abNyQ/C0niG52S99xsbV14OapJeoTxW/sALLD4qy87+jXA7s4JmWq7uZ0pb7qIPw6Pf9Wk4Oku8tMuyXExz/JFaM7aG1e10zqwjxz63EmIhMRIwdhSBZGHxficLtuSJqD8Oa3Fj9n5SAgWEIkSeJFQ8gqTQMfWpqETQjEVFqiN3gmyeJ77RibWIiTlr6w7+iKyJWxIr/8UPI7GVIeP8BpP1pCoa8PApRY/XhNWuOF8G6vQTVI5dh/zR9Oc07DmvsbFgDG5aD00ewZUeByHSxSBDb55bIwFGzApHxXCbmTCmHZVJfdFPbXT0pFpb9mdoVAW/4kp6Guo/CitTpKEt8Ect/Ow7PjJyEu/qKg8i+nBse0dPJ2204noPomTkIuu12RATpB2X1kRxY94p9OE0EcvXDJPeA5eFlyL93KdLnTkD2TaMwabA+WIg+v6hszdqI+frMbni6j1o6bxgxmV+E5vK+a70RPrE/sCoT6Z39ELfGaAQvL9OgVpy4isSJZ94AN/3/7GpQ/PRERH/RHxHjxEntUjHJnpc6h2HFXQ0DZqDfdDy7/DCil2QiPvJthIi8EtpLVI7r87A4npe/iPkDDBqFtxL7KH/Od6vaT58q83mrId2tmBMh0n1ClJ7uajlVlo1IULMGT0vBmkPTkbQ5EcN3NuzT+nwiyo81G+YixNQu8iLPGOqCiAeXwXJoMawyP78RAcutsgyRFZRsFF6fhBVxK5GcoWa36xmFJcsLmuY/9X/53wEJL87V5/WIl2VZp76YsTIR+bNS9fmdyt7qSY9gUd1KrNYGCGhe0G1xCH96KfL/NB0xxfo+1b63qB/i4gYjPUMcxJ5o4fXyWUvvnxbf3y706I/wAXL48RWITz6M8D61qLlmOhbd0dyxqd+9T8vagPgHTyGuvx8qut2GNXEO+V/sm4i4vlj79FNYfc4Plmfsd5qMhGGGqAIsvzMCVnWM1x+3nfsi4X+djtsWTJ+2KTcEj+sZgrv94lAPShbplV6/vIZtD571NFIneFC+NqPF6m4mtdk+6iDa+E7VGZSVHkGpweNk/RVCUZFL2IR3nxEVw+uBQuuLSHvuRaS/U47LxyZhU84qRDnn16umYL3YqeFdypGTIeYVB0o3eSVH8b81EduWWkTls0hU9l+E9Rv/hgqk1pn7NWx6KALB+Ej7PE0EBNlfBiBqcSp2r47weGQqecs2Qi7H/yCs2nJeREZRLYbOTsX+vyQixGGdjIltn7MRWYvluujrmv5OJYIf2oSsebcZVHo94UN6uqB19LRuxIppYfj/PrNqy0nbfgT+wxKxKTmq/s6CV9sQeBsWTegH/8+z9eU9txWFtYMw/5k3seMhEQCr2TS9I5D6+iasEd9/RWUe0h3mn7FiE/bNaa5SJXmxj1o0bxgxm1+EZvK+O31GTEI4xAkDRr9doniTBofFdohgzeJqeN5GuiJEBNnhAWeRL9a7Pk9OWoZtO1K0q6yO+kxYhX2vp2DRbdegWgTmjnnv2a2viZOY0z+0AXtg5fiQ0+zTz68WyFuCTPfdW0W6T7gax/bo6Z6+two3W8R+muFYiZMDSLyJ3X9ORMS1DfvU+vkvEf5QCna8LsoZ07vIuzxjqKeoFL0oy5BRuPxYrlaGpGcfQrepKXh3TZThTwdIWjpkLsOMW3vUp0OatQg1Q2Kx5qXtIqBXM3rKy7LMv18ssqypYj+IY6tIL3sz9tci5PevYNtDLoY0d6VnBJ7NTMEMbaAPuS3ieztZ8Kw1BTN/7V3NqEXXy4SW3j8tvr8N9UZcSirmj+yKsp3iOzL3oKaz69CngR9CH9iEFRaRRwplmuegolMX9VmDoGGTEHJOlO/yZxFcle9K0GSR/zdMR5+vc7RtTd9zHEETxHndugnzb2r6vy2WPm1Sbgje1DOa2S9aPeh1WQ8a1LA8Mc/JGyxY8fxr2JbgvDxftVzdzZS22kcdxCWyY5V6TUTks4ptiRjzZF9k5YlKezsdKvWH2n+rVxeWX/r9Qr0iIvJA+VbETFmDk/M2Yfd9xhe6itcNRczmMKyQFyWabd1ARM1pZ32qiOjCVIuyQ0XwnzTUZFtyIiIypxaFW2Sftv4ufpuKiFoDgyoiagHlKC0ALGHu2u4TEVFrq/lkA5Zn1cLfch8sV6mJRNTqGFQRUQvoi4ScA1gyrH33Vv3ZJZeoVxeOC3GdiaiNncjF8iWpWLtqIUYnZqIs0ILUhDBe5CJqQwyqiOii0anThVfkXYjrTERt7OfASTlohPUgrrotEZueXdj0ZzKIqFVxoAoiuqj8u64OdXU/qXftmwyoftGJndSIiIjaOwZVRHTRqfvpJy2w+qmdFn+yyZ8MqDr9jHepiIiILgQMqoiIiIiIiEzgZVAiIiIiIiITGFQRERERERGZwKCKiIiIiIjIBAZVREREREREJjCoIiIiIiIiMoFBFRERERERkQltNqQ6fxeGiIiIiIg6ojYJqv5dV6cFVBcCGVj9olMn9Y6IiIiIiMi9Vr8tY79DdaGQ6yrXmYiIiIiIyBOtH1RdQAGV3YW4zkREREREdH60elDVXvtQuXMhrjMREREREZ0fHJWBiIiIiIjIhHYTVN37+0fVK53zeyO+zOPJ/xAREREREXmKd6qIiIiIiIhMuGCDKnnH6aUnHuWdJyIiIiIiOq94p4qIiIiIiMiEdhNUybtOjpzf+6q1lktERERERCRdkHeq7E3/JPnMJoBERERERHS+sPkfERERERGRCQyqiIiIiIiITLjggirHpn92bAJIRERERETnyyU2Qb1uFT/U/lu9ahnugqeWHITil36/UK+IiIiIiIhcuyCDKqPgydV0XzGoIiIiIiIiT7BPFRERERERkQkXVFDl7m4U+1UREREREdH5wDtV7pwuwPIpQzFkWR6q1SQiIiIiIiJHDKrcqPn8ADLKgerst5F/Sk0kIiIiIiJycMENVNFWtIEqTuchecpi5I5chd1LR6Gb+oyIiIiIiMiOQZULHP2PiIiIiIg8weZ/REREREREJrR6UPWzSy5Rry4cF+I6ExERERHR+dHqQVWnThfezbALcZ2JiIiIiOj8aP2g6mc/u6CCFLmucp2JiIiIiIg80eoDVdjV/fQT6up+wk9t83Vek03+GFAREREREZG32iyoIiIiIiIi6oh4W4aIiIiIiMgEBlVEREREREQmMKgiIiIiIiIygUEVERERERGRCQyqiIiIiIiITGBQRUREREREZAKDKiIiIiIiIhMYVBEREREREZnAoIqIiIiIiMgEBlVEREREREQmMKgiIiIiIiIygUEVERERERGRCQyqiIiIiIiITGBQRUREREREZAKDKiIiIiIiIhMYVBEREREREZnAoIqIiIiIiMgEBlVEREREREQmMKgiIiIiIiIygUEVERERERGRCQyqiIiIiIiITGBQRUREREREZAKDKiIiIiIiIhMYVBEREREREZnAoIqIiIiIiMgEBlVEREREREQmMKgiIiIiIiIygUEVERERERGRCQyqiIiIiIiITGBQRUREREREZAKDKiIiIiIiIhMYVBEREREREZnAoIqIiIiIiMgEBlVEREREREQmMKgiIiIiIiIygUEVERERERGRCQyqiIiIiIiITGBQRUREREREZAKDKiIiIiIiIhMYVBEREREREZnAoIqIiIiIiMgEBlVEREREREQmMKgiIiIiIiIygUEVERERERGRCQyqiIiIiIiITGBQRUREREREZAKDKiIiIiIiIhMYVBEREREREZnAoIqIiIiIiMgEBlVEREREREQmMKgiIiIiIiIygUEVERERERGRCQyqiIiIiIiITGBQRUREREREZAKDKiIiIiIiIhMYVBEREREREZnAoIqIiIiIiMgEBlVEREREREQmMKgiIiIiIiIygUEVERERERGRCQyqiIiIiIiITGBQRUREREREZAKDKiIiIiIiIhMYVBEREREREZnAoIqIiIiIiMgEBlVEREREREQmMKgiIiIiIiIygUEVERERERGRCQyqiIiIiIiITGBQRUREREREZAKDKiIiIiIiIhMYVBEREREREZnAoIqIiIiIiMgEBlVEREREREQmMKgiIiIiIiIygUEVERERERGRCQyqiIiIiIiITGBQRUREREREZAKDKiIiIiIiIhMYVBEREREREZnAoIqIiIiIiMgEBlVEREREREQmMKgiIiIiIiIygUEVERERERGRCQyqiIiIiIiITGBQRUREREREZAKDKiIiIiIiIhMYVBEREREREZnAoIqIiIiIiMgEBlVEREREREQmMKgiIiIiIiIygUEVERERERGRCQyq2omq7IXoN2ioeqSiWE0nIiIiIqL2rW2CqhM5mFMfMLh6LIT1hJqf2kx1aQ6SY8P1ffBgDqrUdCIiIiIi8gzvVF2MzlWidGcmkqZHYMi9K2E9XKs+ICIiIiIibzGoutjIu4YjpiA6ORU5B8+oiURERERE5KvzElSFL30Thz864PRIgaWnmoHaSFd0665eEhERERGRT9rfnaraEqyd4tDXakQK8s+pz6TyrYip74c1FDFZ5fr0ulMo3bkVq5ckInpKRP3nA8fPRlJaLkqb3JQpwWqH5czJPqUto3DzUsSMkdPCMWxmCnKOqdnlZ88tRqT22VAMmbIYaUXif5wUr2tYpr2PUtX7LyLRvk5jpiJxXS7KHLfJQ1XvZyLpgakYopY/ZEoikjYXoapOzeCpK/oiYtojyNqRi2cnqWluVOxK0dNkzGws31WpphIRERERkdT+giq//khYYIG/eotzVqRlq8AJtch/5amGkfEC52LJXYH664OZiE5eg/TtRSgtb4igar4rQc5zSxE9PRXF7gKZuqOwJk1GvAh4ik/LCbWo+sSKpNilyD1VqX+Wlocy7TOgujwPa+fOw9qD7vsjfZm9EKPv34Bc+zqdLkeuCNwi721mfRzVVSJnUQSG3Z+KnMJyVKvJ1eVFyFmXiGG/9WJZPaPw7FubkPpQFEI8uTNYW4T0ZVY9TU6XIGNZDkcmJCIiIiJycF6CqvxlExvu5tgfDiPP+Q+bizV3+Kl3QPHTW/W7VeU5SLPag5hAzF85HcGd1Ft0Rei0R7Bp65v47APVpPDAK1gxUi2nPBNJmUf01wbKXk7B8r0GAdK5XKydsxDJRp+hHGlZBfVBThPFazBnWQFq1NtGxPokv+p6fRrUonj9QiTt0oMy/5FJ2JYntu2Dd7BpmgooxbLiny4y/h4iIiIiImpV7XSgii6IeCAJ4eqddrdqRwlyNzbcpQqalYwZ/dQb6abp2PRQFEIDe8DfHmj5BcISZ1FvgIo3ClCqXjurKAfiNryjBWMfbohFkJoulZVXIvz3m/ChDNZ2rEJcb/WBtPMgytTLJs7Vos+kZdhxQA/yPtv6CMI7q8+Estdcr0+9YzlYvdl+p64/Fj00BcFdxctOXRA6Yy6i9A9Qk5WD/NYYd8JvMGYstSBE9r3q3h9xS6MQon9CRERERERCOw2qhN5RWPT7/uqN7Kv0AJJ2qrtFgbFYEd+/oYmgg+ryEuRnZ2JtWgoS741H9P9Y1SdC5RnXd3MsiZg/uIv2stvgKZgxWHup630f5t/VF91ksNZzFCyTHaMqd+Q2RCBI3SzzD4zCkgUOC648iNJmfpuroiivobld72EIUTenNF0DcLl6CeSi2GV0Z06fsQuRtVsEhrs3YslYT7ediIiIiOjicF6CKsPR/56KQoD63C5o8kNIsAcR52pVQNQbMxbPRYjDHR9NZZ72I7ZDpszGnGWpSHvOitzSIyj9zn2fJ7vQ6wMdgjTxyjFiu6YHrqhvZghc0cMxsnFj2ADc4LSefa7pq1555uTXReqVULkB0Y2aTc5GuvqIiIiIiIjOj/Z7p8qlShR/6TQCXd0RpCUuVj9i64eQuEfw7Etb8eHud/DZM7H6PM3w72R036vl1fzLsyCPiIiIiIguDO04qKpF8fMrkGbvTuSg+IlUWB2bzX1ZAKt9vuAHsWJBFMKDe6Nb9y7Aj+cxiCkuxzGn4c7L/lqgXkmB6ON8e86JfzeH5nadY5FlH4TD4LHoJjUfERERERG1mfYbVB3ORPJz9kjJD3FrViGuvildAZY/ldcw6t73Z1ChXqK0AIXleiBVU1mA1U869Klqa+fENjxZoP+OVF0tKvamICnN4S7bHQMcRi80FhwyymF4ebG8P+Wg9FRDoFhzphLF1pVIP6gmtAL+ThURERERkWvnJagyHFJdPLQf4JVkc75HNjSMqjfgQcSNHIUZDzUMXFGzcynW7lfBxaVd0Ud/JYiAa0q4tryBUQuRX3t+B1Yoy1qIYbeI7bslHGN+Z3UYKTAQCTFh6KbeuTQgCosGqNdCWfZKREfo26dt46gpiFmVg5Pe/gCwp/g7VUREREREbrXLO1VlW57A2vpmf36IS4hCUCegz6SHMKM+RqpFxpMvoFjGVf2iMN/+e1SOOkdg0QOj1JvzYFgsEozWS/b7mrcMCQOMPnPSKRBxK1fB4uHYGC2u0y8NR1kkIiIiIiJd+wuqyrci+YkS9UYYloT7b1XBh19/zJwdpr+Wyl9Ecob8Ad0eiFqxCSss/RGgNRH0Q8DIudj0+jJE/Kd8f74E4p41r+DZaWEN63WTCPSeeQ1Z9/X1PFjpPQor/vImspbGIqJfj4b/6x6I4NssWPLnV0SApqa1tE7yt6n4O1VERERERK5cYhPUa2oBxeuGImazejPsEew3GCqeiIiIiIg6jnY8+h8REREREVH7x6CKiIiIiIjIBAZVREREREREJjCoIiIiIiIiMoEDVRAREREREZnAO1VEREREREQmMKgiIiIiIiIygUEVERERERGRCQyqiIiIiIiITGBQRUREREREZAKDKiIiIiIiIhMYVBEREREREZnAoIqIiIiIiMgEBlVEREREREQmMKgiIiIiIiIygUEVERERERGRCQyqiIiIiIiITGBQRUREREREZAKDKiIiIiIiIhMYVBEREREREZnAoIqIiIiIiMgEBlVEREREREQmMKgiIiIiIiIygUEVERERERGRCQyqiIiIiIiITGBQRUREREREZAKDKiIiIiIiIhMYVBEREREREZnAoIqIiIiIiMgEBlVEREREREQmXGIT1OtWVffTT6ir+wk/tc3XERERERHRRe5nl1yCTp1+hk4/a917SW0SVP27rk4LqIiIiIiIiNqaDKx+0amTetfyWr35n/0OFRERERER0fkg4xEZl7SW1g+qGFAREREREdF51ppxSasHVexDRURERERE51trxiUc/Y+IiIiIiMgEBlVEREREREQmMKgiIiIiIiIygUEVERERERGRCQyqiIiIiIiITGBQRUREREREZAKDKiIiIiIiIhMYVBEREREREZnAoIqIiIiIiMgEBlVEREREREQmMKgiIiIiIiIygUEVERERERGRCQyqiIiIiIiITGBQRUREREREZAKDKiIiIiIiIhMYVBEREREREZnAoIqIiIiIiMgEBlVEREREREQmMKgiIiIiIiIygUEVERERERGRCQyqiIiIiIiITGBQRc2q+eJVzB4/EsOTd+GbOjWRiIiIiIg0DKqoWYfefhofnAbOvPskdvxVTWyvPn0GNw4d2eiR8qn6rMP5HClqG1cdqBXv/45tC9R2r/9cn6UNfbpeffcThagR76ve/IPaB8+gw+4CMue77Zin5ZGZyPpKTmjI0/Pe/Ls2S/ukjrUF21GlprintsvT41KVYx6XXd7OL/B4JSJqWR0mqGo4Ibh4eHzyO39qvtqLzU/8EXfHbG5XJ7Xrb38At3QHuo5egMj/UhOpXfC/VH/26+wn/l6Ga6/V399y1WX6ixZw6IW71XGUgKwKNdGIv1wH4dKu8BdPAVcF6u8HXY0A/VW7dubTzVgw7U6sZ42y7XSSOUXqofJyL1w7VJuAa3qdhzysOYsdyeq8MfrP+EBer+iILvDjlYioveGdqnbkzME3kfLaXhz66qya0j74X3c3Nr61F/tWjMWVndTE9urG+/Hpgb364/9i1MSOqheuvEm9dOJfX1k1qe4LvJdzHNfHxSASn2PbAe12gqEre92sXjkRdbcWWptWVXOsBLu/+Lt21Z7aSI9euEa9bOLn6tksL/Kw5nQhdr0LxIj5r/x+G3Z/1DGjqgv9eCUiam86TFAVMPHx+sr05jg1ETHYbK9gPzmBV9+ogwrFtb30V117Xqe/aKngt+QdbDx+HaKjpmHEaODQWx/jb+ojV0YEqpXp3gvXy+eWCvCoAwvEtVfI5y4I0LKPH/zPUx6u2peL3YjG8JnjEC3WJWvfxx060ObxSkTUMi7SO1X2dvt3Y+MXtfjbO89g3m/Gas09bvlNAla9+VXjk2h9u//l2H3q7/jghT8ierzePGT47OXIKnG6s1Q/v3Mb94b+AvVt6x36AI1ZUahPQxam2efTHq7auNfiUMZ8DB86Fnc/treFBpFwWMcmD9dt7as+eBWL//tO3KLNF4nohzfjg+/Uh8rftswUn/0B25ymO9Lb+Yt0dkzSurM4JPbRgphIfT1G34lpT2zHoRa6oVdTUYjNyxMwZrS+ncNj5mPVa5+jqt0PynEZrrxavVS6XdpDe76mt0HTKZGOf9sn9tND94o807CtizM+drmtn773Gmp6heOmq7uIfRsK/PVNfODiQn9AL9V8yO5SP1wun6/udV4uaHi0Xw2Ov83/rb9veBjk+zpRDmQsxzRVbsg8ebdBnq/veyOP97NfYNsT9vUZizH//WfscNUUTcy7Y31DOaOXS1/gjIv9dCHn4WsHqZcaP5GH5fPNuFILspy0ch6W++u9d0U+GDcIN116HW4Z7Qe8dsB9E0CZF+rPCfp+3fY3N//QKB+osvKU+szAmS+2Y5W9bB1/Lxa84HpbJU/nb2/HKxHRhe4Sm6Bet4ofav+tXrUdWTGfliFfyTtV9+NGbaojGTgkYLN4de3VV+NvXzmfYf0Qs24HFt+i2pzLIOk3q/GebO9/9Skxv/MJ82rM3vg85vV3nh+Y9n97sbB+BRq+F3Fp+HTeDXql7r+ztE9dc7Edp3Zh3sTl2vfIdZ69Ubzvr70xwWEdmzBaDxnYPYRpotLY9Gpu43Q58+5yDE/e62Y9z2L3kkgsKJmFV1+bpl81FZWc3SsewgIR6DZxaShWZT2OSKPKl6TStvE+cPLFZkRPe87wyrXb/2uWrEzfiUcPqLeGXOXP1iH7HTYE7o35T34c7/0+tHGznzqRF8YlYPe9z2PHfdfV5+uTC17Cq3c5RXPtjaf71Zfj73uRLveJY8SwYn61WP7zYvmqLLDng/IbcKPf5/jU+X96iWVniWXbZ5e+24tHH/wjthks33/4Eux4YmzjSi/zsKZF8rD63G/5Djw5rouWP24R+SP6yV1YPNRxJ6m0OR2KMT9+jN1fOJ0TLh2LJ19bgjHd1Xt7uSoCnTF/3Yvdp9Vku6tFmZchyjz73TmVL0eIwOuTd/fijJpsd23C89g2Td2Vlrydn4joIvZLv1+oVy3rou9TJQOqa+96HLv37cWn7zyOGO0qaS2y8o2afBwX8wMjFjyPfXL+N5YgUpv/K2z8S2GTE5lHHPoA7U4OVRNlRUU1W9QebVdpAW7AwkbfLR+v41HVebyJL7KwWF6FHz4Lm1/bpc+/bxd2/N8sjLhUpMu67fhGzdr1it6iwlOLM2dUBaS2EKtEJWPaa8f19yIFq+WAX0G96yuNZ95dj8UioLr2riXY9pZan307sG15NK79vhCPvmyuac6neZtFZfQ6LBSBXv32vvsqNv9+Ai5v7/3HvNWpByLnPY5tbzRs6weviTwv6pY1r+Vin/Odv5J8vPq9H8bcrCpjV9yM4SIYPvRKPg7pU9otj/erwfEnA5H6/9EejsdfLT59frkWUMlyY4eowGrz5L+OVxfICv1X2LxqW9MA57gIqL67DtOeeBUfyLIj/yVRSZfTX8N7R/RZdGexe/1yEVBdjZjlL+nljFz+Wy9hlQgCavY9ho1Ot02Yh1suD1d9kI/3EIoRN4qASvqvUESLMj7rLRfl+18LsbviOsxep/arKJs2xomV+X4Xnn3HICoW67v7/5uAR9Nfr88Hjw4XwdpXz2Gbwe2w90T+unziIrz6pr69H2QtEuWqOG+lvYn3ms7u9fxERNRyLvqgyn/4Iqx/KBQBsvLRpS+ut3f8P37K8CQ64uGXsP6u69BVzn/FWMRPV+3R3ynBX9u6qU2PkZg372Z0hR+u/80SRJ+HkfkOHdguKnQj8WjyNNzYS13J7eSHK2+chgUJoiJTcgCf2pu29ArELeLpm1Oq5vPXj7FNPH2672M1MuPf8bePxFN985Oz+CBvF2p6zcKqh8biWvtV305dcO24B7BgsqhIvfmxqQp+QA9Z2foKuw6UNDSRubQXbpy8CNNM3fW7DNFPqgquy0dbBstiW8cvwqq4UFx7RcMVd/9eoYgcLl+dRfU5bZJSiw92v4aaSydjbH069MItESK9jm/He1+oSe1Uq+3X2o+xI+M40P93SBHlxpXaRRXB7zJcf9efkDJZVpBzmzYvu/QGzHs6DQuH99L7CvldjQkTx4oXtahxLDfOfoxd79TiyjlLsHjc1Xo5I3W/WgQTDyBGzL/t08aJzzzcUnn4OHa9UQgMDccI+91vv/4YPl48v5OHD4yaG/cai1UZaZh3i9qvomy6ZY7cT6Js/OCLpiPO9p+FV19YJMrqy+rzQbTYr/Ku/LaSpgfVjXOeR1byBFzfQ99e/6sn6OUqtuPTRsG4ztv5iYio5Vz0QdUt4UO9GtHuGnunXiXgMnsTknIRLKiXbUYEU3Frse/ALrz68MjzMDKfCIIOyrtMe7FY9f1wfEQ/KSsJH+Nv9htRaqSv98r1CYc+zcc1d0VjxIF8vCf7opw9pVVC6jtOi4riX/eJp+PP4e7hzssfi3mvic++P2Iq3a8Uweiq0X74NH0+xgyX/Rv+jKx9X7nsu3JBq/s7Pn3zGW3YcL3vm/7Qm8o6qS3B7jdr4T8xtKFJknDtLRNFBfA4th1o31FVq+3X06e0O69XjuiPa5scb374r/+SI6p9gW+cm3fdNFFUpBsCAalrD4OeK+VHsFs8ffOs7H/omN/FI/wPkA0Va44cb1RZZx5uoTxcUYgdJSIwGX6zQ/NKP9wyPFo878Iuo6gqcBBEPNWYCJSul/3E6gzuod84CNfbA3G7PldrF5tqjGa/+bomI/Fdq3VCcwrGFW/nJyKilnPRB1Vm1dQ1tKlosdGqLiDenajVb9B8J+8CfoVP8oCxUTEY3r8Q730qKiznzmh3B69x+I2lmu/Vi9bSqRciV+zAvqy1eHRGKLr+dTtW/f5eDB83E+s/NdNeRg1Q4FDxa/poyx/Z/Dt2PPxbTFuR5dGw4TWf5GObSPuaLfMbVV5vjPmzdmfwm9cPtO8mgK22X3VdL20cILUYUZ543ZyVediQt3n4mw9ytW359An7b1rpj1sWyPvpwI68j42bADYh9mGjO2bNEPvcm71UU+tdDvF2fiIi8g2DKlPO4tMPPtZf9uqPa/WB1xr7UT1Lx8txVL1sjmfBSmuM/ueNy9SPzUZjfb5R0yD5cByUQs1fcQonvyvBvvJw3HKt3hxn93uiwnL8K7yHm9XQypIKwv7rd9hmuGz5eByRRunupa5X34zo2Uuw+Y1d2Lf5dxiBL7BxWVb7Dhy88VU+Nu0TVberxb7a4tD3RjwafoLArhaf7tvuvtJ6ATQBlFp8v3buiq7i6VDux/V9BRvU4q9/leVBwxD3Xut1tVhH4PoFLzXaR40ezgNVKMzDjrzNw8fx3ltqRFZXXDUBdFbxMXb8VTz36qHllebUfHJAawZ9fU/Vj8stsV0Htovn63Bl/SAY7ng7PxER+YpBlZdqz6lrinKY7y3L8ei7+tsbp4ar0eoEh9/52L1PBAsi2DnzxTYsmKGPCOhS/Z2u17DtXTliQzNO7cX69fLqqQiu3liObfJE3sauvyUa/qJKsHjZq/i04myzwWDAVTcDfz0uTvT5+EA1y9Ga47zzJrI+lY2arkZAfZB0GW4ZfoOY/2ksXrcLf/vOzFV3I3/HjieWY/O+r1DlcEesa5+bMVz2rTsutkef5IN21h/lzCk9oO8diCvt/VG+F/vhzWewXta5HKlmUxj3J+wzWu/0WbhSNp/a1wJR1fefY/20sbhxfAI2tsAdJJ1v+9W/s16pffXlbTjk3HzPrsvN2m8doeRpLFhXiG/sy689jg82PoSFr4ltGB2Bsa5GpGyOfSCFtOVIeafx+htjHm6RPKya/l2Z8HzTecVj3/KRYqZd2H7AKao6fRbfnG7It3Jo+5RHnsan6IVpETc3aYqHf55C1Vk1f10tqv4qys6l28Q+CkVMeNPRCM+c+jvs4/qg9u849NpyLNgiJgydjLFNZ/d6fiIiajkdZkh1d0PtaoYuwu76HwBuGDZ8RPLrWD/R3tzMYQhhx/kdhkg3Ige72PbYBIc+TXJo8Dux4B372U259Dpcf8UXOCQ7sduHVHf03S7Mi1mO95pUpFwMW9wqQ6obsaeL0XqISl3yPVj8rotLuI3SXfjoGdw4Tx/COqZ+mOIvsHHyTKyXXa16OQ6nLtR+jo2zHsJ65yGL7Rqlo8P+c8Hl/jZw7Yw0ZM2+oWnF6EIk0jElRuR5e/+2JkLx6BuPI1oEAzUH/qw1eZJNylaNNrh6roap3txd7KstDsNA++KLzYic9px+18d53/vMx/16ei8WT/4jdjR3/B0X5UGcKA+MAp7uI7Eq/U+IrL9TpdYFTseB5GLI/5qSzZj24HM45CKgajw/83AD3/Ow32szRQB5FvM2v4rZclwHZ/ZzwOgl2LdiLLo2l+6iXMoS5VJDujecc5ryE+XSS6Jccri96W6o/0vFdmaI7XS8G+rt/EREFzEOqd5OdL3iMnWi9EPAdSMxbfnz2N0ooJK6YMziNCwef4Nq/tEF14bPwsas5/GINkqVC1eMRcpzSzAt/GqPmo20h9H/5NXsyOV/wavLYzDmOnvauBGgfrUfY3HLAHu/lOsw4k51xu8fiCv1Vzq/GzD7hb9g4zwx/9WeNI/xxmWIfjgNj8aNFMGufV3EvrplLBauex3bOkplVBLpuPCpxx3ylsi/N4rtfOIl7FguR6Gzq8UH+2RjpJEYcbOL9O50A8bKUe5k8ymzI4pdF4NHY9S+P34Ef2uRwV583K8iIHpUO/6uQ4DzYAKOek3A+i1rsXD8zQ0jUna/GmPilogKumNA5Rv//tPwapbT8l1iHjafh7/CB299oe3XEVpzZgNXDMUY2RT53Ty8p93F7IJb4hZhtthHhuneKKCSrkb08t8hRuSt+n166WW4PjwGqzbLCz1OmebqCVj1+2iM+a+Gc4H/FdfpeSzbIEDydn4iImpxHfLHf1ucw50qcz+meaE6LioJd+PRc7/DtvRouKp3EPnEfvfy0mnY/O6stmtORkRERBcd3qmitlHyKh597fOGviJ1tfhmXxY2f6SGkVaTiVpCTcXHWL9Rjo0PXDs9nAEVERERXZAYVFFjdaew7YkERI5WQwoPH4vI32/D37pPwMJoo84GRL6QfUxG4pa75msDVPjfOAur7mL+IiIiogsTgypqrH8MNv8+Gjfa+wnU9xVZhDEckpdalEO/xKenNf1RVCIiIqILBPtUERERERHRRYF9qoiIiIiIiNohBlVEREREREQmMKgiIiIiIiIygUEVERERERGRCQyqiIiIiIiITGBQRUREREREZAKDKiIiIiIiIhMYVBEREREREZnAoIqIiIiIiMgEBlVEREREREQmMKgiIiIiIiIygUEVERERERGRCQyqiIiIiIiITGBQRUREREREZAKDKiIiIiIiIhMYVBEREREREZlwiU1Qr1vFD7X/Vq/awNmv8N4bm7DxL3vx6Xe1wKWX4fpbIhA/cxoir+uiZjKh9ivs3vIatu/+GP/10EuYfaOafp6c+XQbnn0jHx/8OBFPLx+LADW9rZ35qhDbNm3CprzPUfU94H/FdRg+birmTB+L61sg2YmIiIiIWsIv/X6hXrWsjhNUHd+FBTOWY/dp9b4RP4xIfgnrJ/ZS73303XbM+81qvCdeTvu/vVh4noOqT9ePxLQM8WLoIux+csJ5Cqo+R8rQBGxW7xq5eho2b56FG/3UeyIiIiKi86i1gqqO0fyv7itkLVEB1dXRWP/aLnx6YC8+fet5LB4ua/S1eG/Fn7HtO21uamHdhs/C+qzX8cE+keYi3T94U6X7V5ux669qJiIiIiKiDqpjBFUl2/FkiXzRC/OW/g4jeqlbI92vQ0zywxijvSlEVv5X2iv97spI3Cge8978u5om/R3bFujTb1ywHVXatIZ5b1R3qaTN/62mqUfKp+oDSd7R0qaLQO/U3/HBC39E9Hh9vuGzlyOr5KyaUVf15h/Ucp6B42Lw6TNqesPyG+ZVd6mkA6sxRk3THvXr7uT7L7D5oUjcOHomHn33uJpo1g2Y/cQ0jLj6Mvh30qf497gO0b8ZJ1751U8jIiIiIuqoOkRQdejTfNRor8JxY1/tRYPuN2DEIP3loQ++MA42Ws3nWP/AbzH72b34m2qWeKZkF1bNTsD6klp9QhuqytuIlA9EQCeCq21/2t44gGtBNRWFeHL9dvgP/x2i/0tNJCIiIiLqoDpAUFWLkyfUXZehV+PaJndGeuHa69XLskofgqobsFA2JZSPNxZhhJoq+1Rp09TDuH/VcfztK2DEguexTzaNe2MJIi+V07/Cxr8U4ow2j3cCJj5e/52b49RE2afKYV0+PQ/9q2T/Lvudslvu+gM+GPQnbHtsAq7knSoiIiIi6uA6QFB1FlWetmQ7flbd0Wo7Ix5+Cevvug5dZXBxxVjET1eDZbxTgr/W6S/bSsCo2Vh4Sxfg0usQ/ccJaM1xNv722h9x95Jt+Nv3agIRERERUQfVAYIqP3TzdNju/+qFruplW7kmsPGIgwGXXa1eleObU+plWxHB1LR1O/Dpu8/j0dEmR0J0cuO8hjtlH7whlv+b61D77p8Rk/ZxmweyRERERERtqQMEVV0QcJUamOLAV/hbk7s/x/G3Q+plnx64XL08X2rqGvpSddRBHOTvVEU/vAQL/kts75ZC2JOfiIiIiKgj6hADVVzff4J6lY9Pj6iXdqc/x3sf6S9H3NK/yZ2qmjqH+yjfl+Nv5ep1c35Uz145i08/+Fh/2as/ru2hv3RU4xAUflPu4cqIOM2ju0GtMvqfK37w7yyeLuWPVBERERFRx9Yhgir/QRGYprVmO471y/6M946ru0Gnv0DWisewW76+NBp3j7lMmyz5awNGAB/kF+IbGch8V4iUuX/AZnexRid/9QJ4dfsuVHnQJ6r2nFqXurM4tGW5CGb0tzdODYd9/AzU37HKFwHgWX1e2SfpsUI13QV/FbB89CZ2OA3TbqTNRv87fRwfvLAaKSKYvXZ6eKv23SIiIiIiOt8usQnqdav4ofbf6lXrqvn0GcT8dxb+pt43cul1mP3nNMy7seGuyaHN9+LuNPvvVtl1wfXXdcWhL0RkJUfUazKK3t+x4/e/xeJ9TYdDl6MB1o8AKH+nyuE3rZz5D1/UeGS803uxePIfscNpUAf/667DlV98oW1To+UrNSXPIWb25qbbbLjuIqh66w8Ys1wFapdOw+Z3Z5kPeORvaYl0N9J19BK8unwsRwAkIiIionbhl36/UK9aVoe4UyX533g/tr2xFgvH34xru6uJ3a/GmLhF2Jz1fKOASro+7nGsjwtFgHbHyg8BN0bj0c1/wZO/tQ8kYeQyRC5/HqviRjZ8RzO6XnEZ9Ptb4juuG4lp4v93Ow813n0kHn36d4jsr0bckOs9Zy12vLAAw/Uphvz7z8LG9Q8g8kb7d7jXJqP/XXoZrg+PxuJ1r2I3AyoiIiIiugh0mDtV7YrDnSqjO0xERERERNT2eKeKiIiIiIioHWJQRUREREREZAKDKiIiIiIiIhPYp4qIiIiIiC4K7FNFRERERETUDjGoIiIiIiIiMoFBFRERERERkQkMqoiIiIiIiExgUEVERERERGQCgyoiIiIiIiITGFQRERERERGZwKCKiIiIiIjIBAZVREREREREJjCoIiIiIiIiMoFBFRERERERkQkMqoiIiIiIiExgUEVERERERGQCgyoiIiIiIiITGFQRERERERGZwKCKiIiIiIjIBAZVREREREREJjCoIiIiIiIiMqHVg6qfXXKJekVERERERHR+tGZc0upBVadOvBlGRERERETnV2vGJa0fVP3sZwysiIiIiIjovJHxiIxLWsslNkG9blV1P/2Eurqf8FPbfB0REREREV3kZJO/1g6opDYLqoiIiIiIiDoitssjIiIiIiIygUEVERERERGRCQyqiIiIiIiITGBQRUREREREZAKDKiIiIiIiIhMYVBEREREREZnAoIqIiIiIiMgEBlVEREREREQmMKgiIiIiIiIygUEVERERERGRCQyqiIiIiIiITGBQRUREREREZAKDKiIiIiIiIhMYVBEREREREZnAoIqIiIiIiMgEBlVEREREREQmMKgiIiIiIiIygUEVERERERGRCQyqiIiIiIiITGBQRUREREREZAKDKiIiIiIiIhMYVBEREREREZnAoIqIiIiIiMgEBlVEREREREQmMKgiIiIiIiIygUEVERERERGRCQyqiIiIiIiITGBQRUREREREZAKDKiIiIiIiIhMYVLUTVdkL0W/QUPVIRbGaTkRERERE7dslNkG9bj0ncjAnciXy1VtjYVixIwWWnurtRUYGVcOWFah3scj6KBEh6l2LqjuLsqI9yNmei/wPP0Ppd7Vioh8C+oXh9slTcH/0YAR00mclIiIiIqLm8U7VReUUcpLGIfL+lUjbXqQCKqkWVYfzkLEqEcN+m4ric2oyERERERE1i0HVRaamTr1wpTwT8U8XoUa9JSIiIiIi985LUBW+9E0c/uiA0+PibfrXlvx7RWDRik3YnZdfn/af5aQgLlDNINRkHUBxc8EXERERERFp2t+dqtoSrJ1iH7BBPEakIN+xOVr5VsTUD+gwFDFZ5fr0ulMo3bkVq5ckInpKRP3nA8fPRlJaLkrP6LM1KMFqh+XMyT6lLaNw81LEjJHTwjFsZgpyjqnZ5WfPLUak9tlQDJmyGGlF4n+cFK9rWGa/B3NQJaZVvf8iEu3rNGYqEtflosyHJnZV72ci6YGpGKKWP2RKIpI2F6HK4wCoB6IWL8OMO/qiT1c/NU0EWr3DcH98mHonlaNCrrhSsStFT5Mxs7F8V6WaSkREREREUvsLqvz6I2GBBf7qLc5ZkZatAifUIv+VpxpGxguciyV3qVssBzMRnbwG6bKvUHlDBFXzXQlynluK6OnN9BWqOwpr0mTEi4Cn+LScUIuqT6xIil2K3FOV+mdpeSjTPgOqy/Owdu48rD1o75dk7Mvshfj/2/sb+CjKQ+///2pOk8oLuPkJ4g1ijXIEiyCiSHkOCkYNxhaJx0iOgECkKBEEFBFvEP5FREFBqBxEUGNBrEEqAdQISkAgRSoiGAWLxsrDUYLHAxRNasx/rt3ZZLLZTXYzyeaBz/v1mmTm2tnZedrd67szc8119yxRlm+evs9TlhXcEu4M49qloiPKnByvXvcsVGZOnk7YxSfydilzQfVcB/W/px0pSrFq08LuLdyl5TMyvOvk+31aMSOTlgkBAAAAh1oJVdkzbi49muPr7KM6Rkyv0Zp7Y+mRlN1/XO09WpWXqcUZvhATq/GPDVeHkpbqmqj70If10up1+ninfUrhjlc0q689nbyVmrTygLc/gIN/mqeZWwIEpNNZmn/3RE0N9JjytHjV9pKQU87uubp7xvbA1ydZ8zP11eDzU6pQuxdN1KSN3lAW03eS1my2lm3nO3ppqB0o3V4HdXqXMlaUzkvMLZ0c6xUAAABARepoQxWNFX/vJMXZQ56jVRv2KWtp6VGqtqOmakR7e8C4crheGpeo7rHNFeMLBNGxSkpJsgekQ29sV67d7+9QnpSy5B1PGPtgyRC1tcuNg3lHFPfAS/rAhLUNs5XS2n7AeGuvDtq95ZwuVJtbZmjDDvvapdUPK66R/Zjl4OvB56fE15mak+47UtdRk8cNVocmVm9UY3UfMVqJ3gdUsCpT2eVOcQzByV2aP2qilpec1ddT01L7qak9pOiuGjE9SV2aWf3NOiplemLNNPUOAAAA1FN1NFRZWidq8gMd7QFzrdK9mvSWfbQodohmDetYeoqgw4m8fcpeu1LzF89T2p3DNOj/ZdiPWI6cDH40JylN47s29vQ27TpYI7p6er1a36Xxt7VTUxPWzu+npFudqaoiZhni1dY+WBYTm6hpExwTPrJXud/Y/UEc2rW59HS71r3UxdGghJq00Hl2r5Sl3UHTXWAn9q7UsN+lafH+0qN/Kc88rCS/xWszYKJWbbKC4aalmjYg1GUHAAAAzgy1EqoCtv73TKJ8l/H4tL11nMb4QsTpQjsQtdaIKaPVxXHEx+PIZk0dEqdrBqfq7hkLtfj5DGXlHnDci6li3S+LdYQ0q8+Z2C5urpaO0+FaNncmmwr06qTL/eazzcXt7L7QHPvHLrvPcmSJBpU5bTJVy+2HwlJ0SrtfSFXv4QuVY18jpmb9NO3PL2lar+Z2AQAAAIBQ1N0jVUEd0e6/+7VAV3RAi9OmKMNzxCVaXVIe1nMvr9YHm97Rx88O8Y5TiZioQMe9ql/BP0MLeTWm6Iiy/pCq5EX77JAarQ6DHtaav8xWiu+QGgAAAICQ1eFQVajdy2Zpse9yIofdTy5UhvO0ub9vV4ZvvA73adaERMV1aK2mzRpLP9ViiNmdp6/9mjs/+Ol2u89wtLIXRExTx+l2jYZola8RjgDd5Cvt8Spw8LXpSitpTTFWSbNe0ZpHEr3XaQEAAAAIW90NVftXaurzvsp/tFLmzlZKyal02zXzmc2lre79cFKH7F7lbldOnjdIFRzZrjlPOa6pirTT1jI8td17H6miQh3aMk+TFjuOst1YeSt7Hbr0czQvb03vD5nKPV4aFAtOHtHujMe0fK9dUJHvN2vxH/fZA1LcI/M068bKr5HiPlUAAABAcLUSqgI2qW51nhvwGuZ0voeXlLaq1+k+pfTtpxHjShuuKHhruuZvs8PFOU3UxttnsQLX4DjP9K5InKjswtptWOHgqonq1c1avm5x6n9/hqOlwFiNSe5Z2speMJ0SNbmT3W85uPYxDYr3Lp9nGfsNVvLsTB0L4QbAJ3a9p0zH/ayy/zC4ZDplu4mlRwK5TxUAAABQoTp5pOrga09qfslpf9FKGZOotlFSm1vGaURJRirUiqde0G6Tq9onarzvflROjeI1+d5+9kAt6DVEYwLNl7nua+wMjekUwjVMUbFKeWy2kkJsG6MihadP2X1hiPplwFYWAQAAAHjVvVCVt1pTnyw9RU29Jume39jhI7qjRqb29PYbeS9qquemtc2VOOslzUrqqBaeUwSj1aLvaL30lxmK/79muLbE6j/nvqLnhvYsna8rraD37OtadVe70MNK636a9ed1WjV9iOLbNy99XrNYdbg2SdOefsUKaHZZdYsy96biPlUAAABAMGcVW+x+VIPdC3ooOd0e6PWwtgVoKh4AAABAw1GHW/8DAAAAgLqPUAUAAAAALhCqAAAAAMAFQhUAAAAAuEBDFQAAAADgAkeqAAAAAMAFQhUAAAAAuECoAgAAAAAXCFUAAAAA4AKhCgAAAABcIFQBAAAAgAuEKgAAAABwgVAFAAAAAC4QqgAAAADABUIVAAAAALhAqAIAAAAAFwhVAAAAAOACoQoAAAAAXCBUAQAAAIALhCoAAAAAcIFQBQAAAAAuEKoAAAAAwAVCFQAAAAC4QKgCAAAAABcIVQAAAADgAqEKAAAAAFwgVAEAAACAC4QqAAAAAHCBUAUAAAAALhCqAAAAAMAFQhUAAAAAuHBWscXur1FFP/+soqKf9XNkXg4AAADAGe7ss85SVNTZijq7Zo8lRSRU/auoyBOoAAAAACDSTLD6RVSUPVT9avz0P98RKgAAAACoDSaPmFxSU2o+VBGoAAAAANSymswlNR6quIYKAAAAQG2ryVxC638AAAAA4AKhCgAAAABcIFQBAAAAgAuEKgAAAABwgVAFAAAAAC4QqgAAAADABUIVAAAAALhAqAIAAAAAFwhVAAAAAOACoQoAAAAAXCBUAQAAAIALhCoAAAAAcIFQBQAAAAAuEKoAAAAAwAVCFQAAAAC4QKgCAAAAABcIVQAAAADgAqEKAAAAAFwgVAEAAACAC4QqAAAAAHCBUAUAAAAALhCqUKmCz19V6k191XvqRh0usgsBAAAAeBCqUKnP3v6jdn4vnXz3KW341C6sq/Y8q849+pbp5u2xH2twPtE8exln7yi0hr/Tmgn2ci/6xDuKC/nrHvROa8QafWEKStbtg1rzrWcUwE/N7pPhYh8GAERKgwlVJV+ewboJ65Vvj1tXFXy1RelPPqLbk9NVl3LAZTfcq27NpCbXTVDCr+1C1Akx53j/RzeKtv6eq0su8Q53u/Bcb48bUfb/ZtFqav63ukh9PAWxuqC5p6duO/WJlj40Uv2XRr4yfyYLeZ8M8ANIuc4ZxMId36jv+zAAoN7gSFUdcnLvOs17fYs+++qUXVI3xFx6u5a+uUXvzxqgC3yVlLqq8z3as2OLt/uvZLuwoWqlC660e/3ERMXYfVXXonWs3VdeTF3fD4zTedqT/bnyC+xhREB17pPRSuhwkd0fivLj1/t9GABQbzSYUNXi5idKKtPpKXahkpXuq2A/NVAt7FKgYemuS1p5+5qcf6m3pzorjJfEet87zZrrAvP/HHMEAqhICPuk8wcQZ/fuYg21stEFyU/o0esa2yNbwh3fiX0YAFDDztAjVb7z/m/X0s8L9cU7z2rsbwd4Th/p9tsxmr3uK5X5cfvb9RrrGX+mNh3/TjtfeESDbvKebtI7daZW7fM7slQyvv/1PKXXG5ScpuI4paX/rBxvmVZpqG88T/dskNMBC/XZivHq3WOAbn98SzU1IuGYx3JdsPmQ8ne+qim//526ecZL0KCH0rXT75qFL14baT1W8bUMexaZ51vr2blKi07pM2sbTUhO8M7Hdb/T0CfX67NqOqBXcChH6TPHqP913uXsnTxes1//RPl1vlGOc3WB3w/5Tc/xntN0cWv/0/8c17YE7AJs25YXqZvd6xHdRJ6q6JWtvBXTSDv+idYsKn3vdfvtSE14IUeHf7Af93Dsv7+do62maMUYx3J6u3LX2fnvY2YfHve01nxefifznmpsrS/znHVPa6jzs+Odo/ZYfk59rg1l5t18znyuk8H2sZCWtS4KZ58MpFA7n5updCVr9t1XqfJjW5WMX9f2YQBAg3VWscXurxE/Fv7L7oscUzEfusL0mSNV96izp9TJVLzGWF/E0iUXXaQvvvrKW1wiWskLNmhKN/vXTBOSPBW0Vtb4x63xzQXYThcpdekyje3oP7409L+2aGLJDJS+rlIWa8/Yy72h6verPI8GF2Q5jm/U2JtneiuO1jynLrWGO3oGXHDMYzmB5sMEu3EaaoXE8mdZlV0vJ9+dqd5Tt1Qwn6e0aVqCJuwbpVdfH6rLPGXfadOscZpgBd1yzumu2aueUEJLe9ifvW7LbgM/n6dr0NDnvRex+6nweZUyIeZ3enSHPRhQsP2zJlQ8PzG9p2nDkwPq7tHc77doyq2PaEOAUNFn6l+06GZfhb2i/bdUmW1bdFRrHrpTj77v/742oq3pv2xN3z7sYjGhqv+sr9S5c7T27PHfL1tZ037Zmrb9WWB8u0WP3veI1gTYhQOu95CXNXyln43BdNejbzyhQcHeUzWsYMfT6jPhQ93+X8vKrsMgwh0fAIBfRv/C7qteZ/w1VSZQXXLbE9r0/hbteecJJXsusi7UquwPA4SEo9b4VsVmwjK9b8Z/Y5oSPON/paV/ztFJzzhhcpzSsmlqd7vQcdqip4tUxdu4XBPLvLbp/qJHe9gP+/t8laaYo269Ryn99Y3e8d/fqA3/NUp9zrHWy4L1OmyP2qRla8VY6/bkSbvyWpij2T2sSt7rvl/3T+rEd9a/tq1LKpkn312kKVaguuS2aVrzpj0/72/QmpmDdMkPOXr0T4G2U+j2bE63AtWlmmgFvZLlffdVpT8wUOc1qGsuztWgp+zlK+k2Kj3lIiv7JmvpzDocqCz5O9Z5QsagWX/RTvPeM/Of/ReteXKULi5zeMKx/74x2dsogfkBo2SZvZ0zLOe/+bQnUMX0vl+vrnPsw09a+5i1v259Kr3skVOPo1agOqrLkp/Qhmzv+GseMO/fo3p15+feUTxOadOimVagukjJM1/2fm6Y6b/5smbfdpEK3n9cS3eWDXOhL2sD8+1GTZy6RheMmRZaQAp3fAAAatAZH6piek/WonHd1cJUoBu302W+i6yPHg8Ykvo89LIW3XapmpjxWw7QsOH2L9jv7NOnkT5drHlfjR17lcwJLZf9dpoG1ULLfJ/tWG+Fkr56dOpQdW5lV2yionVB56GaMOZSad8O7TnuLVarWM+pOIeP2zXUTz/UGuvfnvc/tFtm/E5f/M36d1Eru4J/Sjs3b1RBq1GaPW6ALmnmKbSm31iXXH+vJtwqFaz7UJ/ZxVXRorm53uMrbdyxr/R0v3NaqfOtkzXU1VG/QCHGv4tkWC7v8LpHlPp6Kz36tDUfdottdVWT5q08p3bt2bFDX/qO4ESfq0t6D9XE66t+5Maz7V/Psbb5IM2zgvplzR37sBWy5k24XPphvXbu9T+KFa3OYxYr3frsuMA8xRr/kviblWD1FjhT/qkPtfGdQl1w9zRNuf4i7+eG0ewiJYy9V8lWaFuzxxnCanJZpc5jA+2Hzq6WjlKZo4VPPq6tba11nmJfg1WRcMcHAKCGnfGhqltcj7BatLs4tvQ0IKPFub4LCPKssGD3RowVplLm6/0dG/XqQ31roWU+KwTtNUeZtmiKfe2Hsxv0lKksfqgvfAeirMrixda/rXnegs/2ZOvi2wapz45sbTXXWZ067glXfUrW8Vf69H3r39HndXtv/+kP0NjXrcd+OOBqvV9ghdHZ10Vrz/Lx6t/bXAv2tFa9/1Xwa10aiII9z2rsrKO6/ek/aFDZXbpOiul2r5aOuNQKgnN0+/UD1P/3M7Vo3Sc6HOiMvbCc0mFz77XeV+vKAMHyknadPP9LfggocZUG3Xhp2Wt4Gjcvf7Qv74A2Wf8OP2euJ/Tbh+MelDnxt+DA0TK3e6i5Za27Dr/5tGa/f5UeNUegQ/gcC3d8AABq2hkfqtwqKCqt6ZyJTfQWhBU+WukScxrht+Yo4Ff6aLM0IDFZvTvmaOseq9J6+qTn6ODFjvvZFAS4rqRaRbVSwqwNen/VfD06oruafLpesx+4U72vH6lFe9zUYitrGMJ0wRv+qFFH12vi/TvU7akF9ei0qWh1Tl2mnW8ss7bPQHX+PkdLZ41RQlyCJrwZpHGIcDSJtl6hBlifD+Gfnlpzy+ptCKairhZuimvtj7NnfahuU+8PLeCHOz4AABFAqHLllPbs/NDb26qjLgl0M8mf7P/G0Tx9afdWJrSwUhOt/4XDd2PPQVpkrisJeDqRs1EKe/xDx3Xs2316Py9O3S5ppW7xl2rT1g918uhX2qqrdEnJ6Ud2CPv1/VoTcNqme0IJ1XATzyYXXaVBqdOU/sZGvZ9+v/rocy2dscrVqYV10g+faN79T0sTntCUHu5OJasVLS9Vwq3366lVG7TnjSeUfNEpbZq5NMA1T6GKVlNTMX9zhwJl6C8O7LX+RpcJ+mGxbzZ72YSXA+y7dhesgZBqX9Y6qOgrrZo2Rzt7P6RHHY2BBBXu+AAARAihKkyFp+2al2lO+bWZevRd72DnO+Ls1uosjptcbnrfCgtW2Dn5+RpNGGE38RxMyZGu17XmXdNiQyWOb9GiRdb0Tbh6Y6bWmNOYIuyyboMUozWaMuNV7Tl0qtIw2OLCq6RPj1qVyWztvLm7LrOW+ZJuN+uyd9Zp1R5zEtRFalESks5Vt96XW+P/UVMWbNQX31b3+U/facOTM5X+/lfKdxwRa9LmKvU219YdtZbHW1QFdfCaKitQLRo9Tu/3XqB5NVYhLdSepSPVrUeChr4QqEXIqtmT/qDmmVPgTjn2gWbt1LuHWY5TOnHaW1RGoyZqYv6//pJWfRosiVyqPonWNH6w3p8z1uiz447397o5mvjUJ1YwGqqBVb2+rqW1L1nP/WzxTM17p+x+FkyVljVEde2aqs9WPKLZBwdo9tTQGkoJd3wAACKlwTSp7m3m2HefpwB6TNamkhsAlza7XLaJYkez087xHU2kB2Iau1jz+EDHNU2mafDfacI7fiHgnEt1WcvP9ZlpWtnXpLrTtxs1NnmmtpareEWySfVAfOsl0HxYwWTqf2rKu0EqrWXWu+Vvz1oVO28T8slPbdSUHuakq8+19NaRWmTObGrlbE7dUviJlo4ap0WfBwlUZdZj5c2YB93eAVwyYrFWpV5e9rqZesvaTg/8h6YEbDbcy10T8j6ObalWGpv+qlKroR2BipoCD94cfJD3oaXMspqjd3dZnwcBmjw379nUpxdrrOM0Se9njQI0PW5/rvi9twv2pWvofc/rsyCByn+9V21Z65+Cfc8rOdW0vlkBx+dHuOMDABAITarXEU1anmtXsqPV4lKr8jNzmTaVCVRGY/WfslhTbrrc+0u5NXxJ3CgtXbVMD/f2FATWcoDmPT9NQ+Musp9XiTrQ+p85IpMw8896dWay+l/qWzcVaNHKDkwD1K2Tr6J6qfr8zj5y0jG27E05oy9X6gt/1tKx1vgXNbYLq8u5GvTQYj2a0tcKu755sbZVtwGauOAvWtNgApVxVJ9WEKiqz6UaOjXZ3obWa+aFcMQ1BJ2Hv6xFZfYB5/svWMgw78Nlml1m+wZwzuWa+MLLZcc751x1vulez3vWGaiqIqbjUL26ar4m3nRVaQuWFajastY/J/MOVByQ/IQ7PgAAkdQgb/5b7YLezPdMcVRrxt6uR0/frzXLzb17gAoUfah5vccrvUaPngIAAISPI1WIjH2v6tHXP9Fh36lKRYU6/P4qpf9NuqBPRwIVKvbDUe1cvlSvmv6LhmpArRw9BQAAiCxCFcoqOq41T45RwnV2E8u9ByjhgTX6otlATRzETTYRnKe57utuV+ryT1RwzuUaOz3Z0xAJAABAQ0eoQlkdk5X+wCB19l1b0uwi9U+Zpldfm6z+IVwPgjNbTMtLvfvL2sVK/bW7a5EAAADqC66pAgAAAHBG4JoqAAAAAKiDCFUAAAAA4AKhCgAAAABcIFQBAAAAgAuEKgAAAABwgVAFAAAAAC4QqgAAAADABUIVAAAAALhAqAIAAAAAFwhVAAAAAOACoQoAAAAAXCBUAQAAAIALhCoAAAAAcIFQBQAAAAAuEKoAAAAAwAVCFQAAAAC4cFaxxe6vET8W/svui4BTX2nrGy9p6Z+3aM+3hdI55+qybvEaNnKoEi5tbI/kQuFX2vTa61q/6UP9etzLSu1sl9eSk3vW6Lk3srXzp5v1x5kD1MIurw35O1/VvOWvaNOe71Sgxrok7mal3j1KCZdE22MAAAAAteuX0b+w+6pXwwlVRzdqwoiZ2vS9PVxGtPpMfVmLbm5lD1fRt+s19rdztNXqHfpfWzSxlkPVnkV9NXSF1dNjsjY9NbDWQtUXr49R8pOfWGHK30XWelpmrSeCFQAAAGpfTYWqhnH6X9FXWjXNDlQXDdKi1zdqz44t2vPmMk3pbSr0hdo662mt+dYzNqrTV2v0qAlUzfpqyvIN3vX+/ga9OqG7YvSV0mev0mdF9rgAAABAA9QwQtW+9Xpqn+lppbHT71efVvaRkWaXKnnqQ+rvGcjRquyvPH3SJ5rXo686W93Ydd/ZZcZ3WjPBW955wnrle8pKx+1sH6Uy0n9vl9ndvD32A4Y5ouUpt4Le8e+084VHNOgm73i9U2dq1b5T9ohe+esetKfzrJyT0Z5n7fLS6ZeOax+lMnbMUX+7zNOVzLufHz5X+rgEdb5upB5996hd6M6ezD9a89xKQ/8wTcm/tk+xjGqsy26bpkevs/q/Wq+tX3iLAQAAgIaoQYSqz/Zk26eexalzO09PqWaXq8/V3t7Pdn4eOGzUmE+06N7/UOpzW/SFfVriyX0bNTt1jBbtK/QWRFD+5qWat9MKdFa4WvOH9WUDXJV8pU8/tJaj1UANvNpxil/RKX22bqlWfWgGjmrPfmdwBQAAABqWBhCqCnXsG/uoS4+LdEmUt7dUK11ymd178EgVQtXlmmhOaTPdG5PVxy4111R5yuwu8PVVR/XFV1KfCcv0/vvm+dOUcI4p/0pL/5yjk55xwtPi5idKXjM9xS4011Q55mVPxK6vOqXDn1r/OsbqAjNohakv3k9X6s0Jun3WGu2xg+TWvOo5KgYAAADURQ0gVJ1Sfqh19qOnAjSmULP6PPSyFt12qZqYsNdygIYNtxvLeGefPo3wtUYt+qVqYrfG0jmXatAjA1Vt7Wy0bKyCna9qyl2/06AHntfO76N12W8n69Xl95eEUAAAAKChagChKlpNQ20t/det1MTujZSLY8u2ONji3IvsvjwdPm73RooVpoYu2KA97y7To9e5bAnRacV49R/3R234XLrs+nu19I2NevWhgbqsufeUwJgYzz8AAACgQWoAoaqxWlxoX8+z4yt9Ue7oz1F98Znd26a5zrN7a0tBUem1VDHlTlWsb6xAa2ezJt1GadGqv+jVmberW0tvmb7+ytOwR7c21RjgAAAAgDqmQTRUcVnHgXZftvYcsHt9vv9EW//m7e3TrWO5I1UFRY4TAn/I0xd5dn9lfrL/h+WU9uz0tN4gteqoS5p7e50KHKHwcF6IM2PltJBOa6z21v8uUmdPk/WtNGhEsvpc5DxkWKit775u/W+lzv9+rrcIAAAAaIAaRKiKuTpeQz0HQ45q0YyntfWofTTo+8+1atbj2mT6zxmk2/uXVu5jPA1GSDuzc3TYBJlvczRv9INKryhrRJWex/bq+o3KD+GaqMLT9ryYFvFem2mFGe9g5zvi5Gs/QyVHrLKtAHjKO+7rj+j2x3Ps8iBi7CN0f1unDX7NtAdS/a3/Ratz/1t1gbXe02c/rTWf2vPgWdZHNPF1a9l7DNWgS73FAAAAQEN0VrHF7q8RPxb+y+6rWQV7nlXy71cp4C2RzrlUqU8v1tjOpc1+f5Z+p25f7LtvlU9jXXZpE332uZWsTIt65VrR+04bHvgPTXm/9BQ+H9MaYEkLgOY+VY57WvmL6T1Zax4fqAt8Yer7LZpy6yPa8IM9bIu59FJd8PnnnmUqM31bwb7nlZyaXn6ZA867FarefFD9Z9pB7ZyhSn93VDU0VlGoPYtGaugK/3VpOae7Hl3xhAZx9h8AAADqgF9G/8Luq14N4kiVEdP5Hq15Y74m3nSVLmlmFza7SP1TJit91bIygcq4LOUJLUrprhaeI1bRatF5kB5N/7Oe+g9fQxKBnKuEmcs0O6Vv6WtUoknLc+U9vmW9xqV9NdR6/iZnoDKa9dWjf7xfCR3t0+fMfN89XxtemKDe3pKAYjqO0tJF9yqhs+81KlYzrf9Fq/OYxXp1ZrL6+07/O+dcdb7pXi19jUAFAACAhq/BHKmqUxxHqgIdYQIAAAAQeRypAgAAAIA6iFAFAAAAAC4QqgAAAADABa6pAgAAAHBG4JoqAAAAAKiDCFUAAAAA4AKhCgAAAABcIFQBAAAAgAuEKgAAAABwgVAFAAAAAC4QqgAAAADABUIVAAAAALhAqAIAAAAAFwhVAAAAAOACoQoAAAAAXCBUAQAAAIALhCoAAAAAcIFQBQAAAAAuEKoAAAAAwAVCFQAAAAC4QKgCAAAAABcIVQAAAADgQo2HqrPPOsvuAwAAAIDaUZO5pMZDVVQUB8MAAAAA1K6azCU1H6rOPptgBQAAAKDWmDxicklNOavYYvfXqKKff1ZR0c/6OTIvBwAAAOAMZ075q+lAZUQsVAEAAABAQ8R5eQAAAADgAqEKAAAAAFwgVAEAAACAC4QqAAAAAHCBUAUAAAAALhCqAAAAAMAFQhUAAAAAuECoAgAAAAAXCFUAAAAA4AKhCgAAAABcIFQBAAAAgAuEKgAAAABwgVAFAAAAAC4QqgAAAADABUIVAAAAALhAqAIAAAAAFwhVAAAAAOACoQoAAAAAXCBUAQAAAIALhCoAAAAAcIFQBQAAAAAuEKoAAAAAwAVCFQAAAAC4QKgCAAAAABcIVQAAAADgAqEKAAAAAFwgVAEAAACAC4QqAAAAAHCBUAUAAAAALhCqAAAAAMAFQhUAAAAAuECoAgAAAAAXCFUAAAAA4AKhCgAAAABcIFQBAAAAgAuEKgAAAABwgVAFAAAAAC4QqgAAAADABUIVAAAAALhAqAIAAAAAFwhVAAAAAOACoQoAAAAAXCBUAQAAAIALhCoAAAAAcIFQBQAAAAAuEKoAAAAAwAVCFQAAAAC4QKgCAAAAABcIVQAAAADgAqEKAAAAAFwgVAEAAACAC4QqAAAAAHCBUAUAAAAALhCqAAAAAMAFQhUAAAAAuECoAgAAAAAXCFUAAAAA4AKhCgAAAABcIFQBAAAAgAuEKgAAAABwgVAFAAAAAC4QqgAAAADABUIVAAAAALhAqAIAAAAAFwhVAAAAAOACoQoAAAAAXCBUAQAAAIALhCoAAAAAcIFQBQAAAAAuEKoAAAAAwAVCFQAAAAC4QKgCAAAAABcIVQAAAADgAqEKAAAAAFwgVAEAAACAC4QqAAAAAHCBUAUAAAAALhCqAAAAAMAFQhUAAAAAuECoAgAAAAAXCFUAAAAA4AKhCgAAAABcIFQBAAAAgAuEKgAAAABwgVAFAAAAAC4QqgAAAADABUIVAAAAALhAqKpvio4oa3aqrrm6h64ZvlDZx+1yAAAAALXirGKL3R8xBUf2KfON15S59W/avf+4CuzyprHt1OHynkoZcZfiY6Pt0rrtRN4uZb2ZqYxf3KZVozrapTVo7xJdMfzFknUWM2qpPh5TPa8b8WUBAAAAGoDIHqkqOqLMPwzTNYmpmvp8lnIcgco4kXdAOetfVMbHJ+2Suuy4Mu/voWsGp3mWZfc/7eJ6qSEtCwAAABBZkQtVp/dp/p13aNKaA2WCVH1WUGT3RFKHJC0c2lFNrd6mnYbouTuq54hSrSwLAAAA0ABEKFQdV+bUe7V4f6E9bIntp8lPv6JtO3Zo/9+83ccbXtFLU5LUpn6c+Vc7oporbtxSfWCtrw9eTFP3ZnY5AAAAgFoRkWuqCv46T9fck1F6HVDfSVoza7DaNrILQpD/19V69rW1evuvB5R/2pQ0UdvuPZR0+11K6hWrplGe0Wz7NOfqVC23h+Kmr9NzA6WcF+Zq5iubdfB7c/1WP42YMkljuja3x7IVHdfu9Su1/LXtysnN0wlT1qi5OlxxtUY8NEOJF0q7F/RQcrpn7IBGLNuhyVf6jdfrYW17+mp9+MR0zdiwT/ldrOFnEtXiZJ5y3tuurC1va/cnecr91hs8zfwl3jFY9wzqqhbOZfsmU3cnPKZse9D3Wka517Omr10vasbslcrKOyk1i1X8HRM1/a7SaYa6LEb+R5la9qcMZe8+4FmHUrRatL9CPYZO0dwbW3vGKchdqbSJS5R9qoniUp/SwqHtFON5BAAAAGiYInCk6pSy15YGKqmjJo8LI1CdztOKyfHqdc9crXjPF6iMkzqYk6U599+h3ne/qNyS8gCKvlTGpFs1bLE3UBkn8jZr/uixmvOR4+iZ5xTFW5U8wwohvkBlnD6uXOu1cl21tFeoHc9NVFqGFagc85r/3kINm7HQs2y+QGWY+VsxO03XTcrUoSqemvf3tRN13egl3kBlfJ+nrMVpGrpoX5inYBZq9+Jhum7kY1puzadvHZry/P27lLn/O3v4iDKeWKhssxzWOsteYL02rRMCAACggav5UFX0mXa/ZfcbvW7RDbF2f6UKrYr5MM3cWHHDFQUfLVHy1Czl28P+Dv5pnmZucYSnEnlavvztkucd2rCg9BTFRj01a3W299TEreu0ZtYQtSlzNCxMu5/R1Ofz7AGHqOZKHDdDa/7yjj7eaZ8KuWmhRtjrqGDLY5rzzinvQDi+XKmZT24PGJ4Opr+gzG/sgVB8nak5z/uuhYtW3COveOd1Z7a2vTxDIy7wPAAAAACckWo+VOUf1UG716PtxWph91ZqvxUMMkrDkOe0wU128Nj6iubeUprOCrYs0Wu59oCfQ1aWSXp6nfd5G2YrxXummte2PP3dPhJ07PA+b4/RoZ+6+5p1N6f/3ZimlE7ewS7jzDys06xe3mGPoUu907c63+lyZZy2lsM5/3Nv8KyHFgMf1tyh8epwYWPF+EJbs65K+c+u9oCUtXVX6VGzUB2xFvqWedrmCT/rtDDJudDbdfBrb19Iy3L8iHZ7H7FcofjfxHrnNSpaLTrEa3KSr7GM1kp6ME1xLa31Zq2zuHGjFe93diUAAADQ0ESu9b8qOJT7Nx2y+6V+mjV9sDr4GmZoFKvEB9KUZA+aU8+yPg5wJMhIStPkvnbt/vx+Sklp5+33yNMh36GqaEcLGbvmKm3qSmXmHqmmlvE6avIEx/w7X6uo0FrWXcrMWKL5T03XsDuH6e5Fu+wHLSdPKtBxtoolafK4nt5rp6KaK/6OIergfcDj4JEwzsuzwlPpdVG7NHPSdC1/64AOBZipmA5D9Nyb2Z6je89xPRUAAADOADUfqv7Nr1r9bX7IR12O/cMRLDp0LQ0kPlaw6lJ6QEe53wQ+TS7u8vZlKvf/p1HgY2VdfjtJcSXXehUq962FmnTnYF0Rn6qZa/PCvA7JTyNr/i+0+x1Mww7D4uPU/840TZr9ohavyFJOrvO6pSrq1U6XO1tRPCda59m9YeuQqGl9SydWsD9Lc6YOU/8e8UqenamDFV3PBgAAADRwNR+qmlvBx3nm2VtvK7sqgaGR82iJT6EKqrNC3zpRz2Us1Pi+zcu+1vf7tGLGHRr0wgG7oAqslVAuU32/WVNHL1SOZ33EKn7cDK1avU4fbHpHGx7p6RmlTohqraS5r+ulMT3VokwDIye1O+MxJdz5onK5zxUAAADOUBE4/a+d4n7rTFVWkJgRWot2Tc93nKa3a7t2+4ex7w8ox3EdVfdfnWv3uXB+V415ep0+3rpaq6YPKXMfqIPL33NcW+Sn6Ee7J3Qndr2nTF8oTErzXFvVJba5mjZrLBUEa3YjAgItS1RzdR81T9s2Z2vTsoc1onsT+wFL3gvKCnI9GwAAANDQReSaqg6Jox2n1XlbtEu48zGt+MhxvVJRoU58k6fs9Oma+Zb3ep+2Xa5VG0+fYcLYauX6gpUVqDIWWJV5e9BcsxTf1RneXGrUWl1uSdNLc4bYBRbT2EQw7+1QTsWNFJZTeNpxuuL2v9lHrKywlbtac/7o4qiYWxUtS1S02lyZqMnPPKYRdpHniKG9Hc3pjHffFKf2fW7W3em+FgMBAACAhisyDVWcH69pD/VTU3vQKNifqZkjB+uKbj3U/mqr6xanaxLu0N0LskobQGifpMk3Oq7l2TJXg/rb4/cfpqlrSxumaDt0nJICXLMUuuPK/MN0Ld+SV3ofqcIjyn5vuz1g6RXrOIWvic5rZfcaR1ZqWD/vvM35yC6rRHSjxnafxXr+3fayXXPnXB1sVo0BsVIVL0v++sc0KX27Dn5jbxjTsMa27JIbEEs91dbzfO5TBQAAgDNPZEKVpc3A2XpzyXB1CfWmvx6NFT91qcZf6WxxobymA2boubEdXbc0V/Ct92bCvfrYwa3HYN29yg5u5r5VDyU6moOPVvebh6utPVQVTfvepjGB7tkVO1qTfTeqiohKlqXICpwLJiohIc67XqwA3P/+DLup/GjFTZ+opPNNf4xinMkZAAAAOANELFQZLbqO1qrN67Rq+nAldm+nts7W/JrFqkP3eI2YMk+Tr3Xc3KhRO415br02PJ3meU5JQwnm3lHXJmnas+v0wZx4dzfm9YhR275Jiu/geA0rMLRo31WJ4+Zpw4Z5KnOrJ0tMp9FKX2LN15V+DVuEKrqjxj+3UOOvjbWP4jVRl6SHteHl4brK9fKEp6Jlif5VT6Vc204dzP2nbDEt26n7wDQ9t3q9nrvFt2KaK/H33KcKAAAAZ5azii12PwAAAAAgTBE9UgUAAAAADQ2hCgAAAABcIFQBAAAAgAuEKgAAAABwgVAFAAAAAC4QqgAAAADABUIVAAAAALhAqAIAAAAAFwhVAAAAAOACoQoAAAAAXCBUAQAAAIALhCoAAAAAcIFQBQAAAAAuEKoAAAAAwAVCFQAAAAC4QKgCAAAAABcIVQAAAADgAqEKAAAAAFwgVAEAAACAC4QqAAAAAHCBUAUAAAAALhCqAAAAAMAFQhUAAAAAuECoAgAAAAAXCFUAAAAA4AKhCgAAAABcIFQBAAAAgAuEKgAAAABwgVAFAAAAAC4QqgAAAADABUIVAAAAALhAqAIAAAAAFwhVAAAAAOACoQoAAAAAXCBUAQAAAIALZxVb7H5EQNHPP6uo6Gf9zGoHANRjZ591lqKizlbU2fw+CwCEqgj6V1GRJ1ABANBQmGD1i6goewgAzkz8vBQhviNUAAA0JOa7zXzHAcCZjFAVIQQqAEBDxXccgDMdoSpCuIYKANBQ8R0H4ExHqAIAAAAAFwhVddSdDzxq9zU89W3Z6sL8NqT9oSHv22cS9sn6wyxfsC6YUMYBAJQiVAGoVg25EkYFs35iu0kvP/lowC4Qs76c47D+AKByhKo6xnx58QUGAKgNvkDlRLACgMoRquoY3y+DkVBbAS5SywcAdVVtff4CAGoGocrPJ5/u1z0THlTnnv08nek3ZQ2N+TKPZIADAHjV1c9f33wFYsoJgQAQ3FnFFrv/jGfC05CRo/VjQYFd4vXLmBitXLZEl/+6vV0Svh8L/2X3haaiLzc3fF+KtfllHsqy+X95Bxq/sukEejyU6fqrrvl1ozrnwTetcMZ38j3Xf3z/8XwCjRfO69ekUOch1GXzCWe64ayLUMczwhm3KnzzXpFwlss8Fs74Tr7n+o/vP55PoPHCef2q8k2/uqdbmUDrJpDKxqvs8V9G/8LuA4AzD6HKwRyV2pS91R4qq39cHz371BP2UPjqQqgK5QuzMtUxT1X54g6lLNxhI1CZv8rGqep0w1Gd82DKjVDGD1ZmBJq2Eex1fcJ5/ZoUbNkqm/fK5jGc6ZpyI5Txw51uqONWVWXTC3d+jVDGD1ZmBJq2Eex1fcJ5/aoKdR4qUtV5CTbtcJe3sscJVQDOZJz+57AtZ6fdV15Fj9V15ouwsi9DwzxeWVfTgs2nKTOPVVV9m244qjIPgcb3V9F03Qp3fqtbVdZZKKoy3UDj+wtnulWZh+pWlXkINL6/iqbrVrjzGyrz/GDz7WQer6xzI9D03C4bAKAUoaqB832Zmw7Vr6KKCeu87mrI2419su6oK5+/wV6/on0FABAeQpVDr+7d7L7yKnqsLvN9adanL07f/Pp3/pwVAvM/0LCTKQvUueVcx9Uxvapwvr6zQ3B1YbuFwzmvzi4Q9sm6wbkdAAANG6HK4d7UkZ5GKfyZMvNYfWW+2H1f7hXxfflX1EWCb34DdW4Emp6vc8s5rUiuKx/n6/t3CM65nmpju4XDOa/+XSDOx9kna49vmStb/75tVFEHAKi7CFUOpnU/08qfaZTCBCnTmX63Lf/VFb4v9mBfzr4v/4o6VM63rup7JSjYMjTUyl1D2W6BsE/WPt+8B5tX3zaqqKtp5jWCzZ8pj8Q8AEB9RajyY8KTaeVvz/bNns70N4RA5eP7cq4PlRB/gebZtyy+L3v/4VC4WRd1fT26nT/f+nR24azbusrteqlL/Jelri+b2/mrz/ukmU/f/EdSpF8PAM5EhKozlLNiUpcEq3CYMjcVp7o43UDPq4qaWjYfMw1nV5vq+jqrC9N1Mw+BnlcVbuYhFGYazq6+MfNs1kV1re/K+F7PX6DtEWjcQOMBAMriPlURUldu/lsXhLJs/l/qFY3vP72Kph/OdH2qe359QpmuT3XOQ7Bp+ZdX9JqVzY9zXvzHczvdih4Pl3M+jVCmXdGy+YQ63WDLU1G5U0XzG864PsFeN5BQxg11HoJNy7+8otesbH6c8+I/npvp1ifOdWBUdX0Fw32qAJzJCFUREm6oakj8KyUNqZLS0AXaVrW5/dh3UNf2SZQiVAE4kxGqIuRMDlWGqfT4UPmpX5zbziBQobbVlX0SZRGqAJzJCFURcqaHKgBAw0aoAnAmo6GKCDn7rLPsPgAAGha+4wCc6QhVERIVxaoGADRMfMcBONPxKRghUWefzZcOAKDBMd9t5jsOAM5kXFMVYUU//6yiop/1M6sdAFCPmVP+CFQA4EWoAgAAAAAX+HkJAAAAAFwgVAEAAACAC4QqAAAAAHCBUAUAAAAALhCqAAAAAMAFQhUAAAAAuECT6hHGfaoqdybc+4T9oHLcAwcAANQXhKoI+ldRkacijdCYCvUvoqLsoYaD/SA8DXU/AAAADQc/AUeI78gEQmfWl1lvDQn7Qfga4n4AAAAaFkJVhFCRrpqGtt7YD6qG9QYAAOoyQlWEcO1M1TS09cZ+UDWsNwAAUJcRqgDXjivjvh5qf/VC7bZLgLDsX6lBfXromslZyreL6rzTecpcMFG9rPluf3Wc0t46bj9Q287M9+PuBWaZJyrjG7vAKDqg5UPi1L7/FGU6y0MUcJpV9U2m7r7amt6CfXYBADQshKo66s4HHrX76of6Nr8AXLAq64vvvEOT0vfqwmuHaMyoW9T23+zHGrj8tROtoGHCRpCO0AAAZyRCFdAAEGrrufZDtGbrDn0wJ14t7KKwnNyn5dPSlPB8hCr0ue9pcZ7UZswirZqZpvFjJmr8gOb2g2eGprHt1KFDgO7/s0eoC6LaacTKbO3fNFuJ59tlDcCh9+Ypbcj0IEffjihr9hQNmlqPjvoCaBAIVQBQ353+Ujnrd+ngP+3hGpb/5QEVWP/jr2znLTgDJf2/l7Tm5QDd0I72GKgpxz7OUNb+U559sLzvtDtjs3JPBn4UAGoKoaqOevlJjjwAqOPOkFP+AACoDKHKzyef7tc9Ex5U5579PJ3pN2Wo2/I/ytScScPsi+atrv8dSluQpYOn7RFKlL2I/cT+TM0cebOuMM/pc7OSZ2cq96R3zHKKjisnfbqGDY6v5DVQq07mKdu5nazumsFpmvTWEXuEUoH2m2HTVion0GlFzgvti04pd+08Jd8U53neFTelaubaAzpRZI/rdPKAMhdM0SB7XLOfDZq0UNnO16jgIv78v67UpHvv0DXmcavzLEuG90hRyfMSHlO2GU5P9b6G1d29NvSGI0JeDx8t9Dzea8Z2z+Dykfb4YTRmEJF1XsYpZU42rzVMK/LsIn95qzXImmb/5w/YBdXEzfx/s0vLp6WWrKdrBk/RnLfyVFDBvlJeBY12eKafpoT+3ul7t8Nq5Rbaj/uzxl88ybcfxivB2oczDwYbOXye/dz3Weyb/v5T9qNe3oYzeig53Qxt19QEe949y7dPczz9qVpuHt72mHp5hq3Of12ZbfHWQqX5PiPMZ3+QfdDZWEfBwUxNNQ1/XB2n+XvtESwVvkcBnDEIVQ4mPA0ZOVqbsrfqx4ICT2f6TVmkg1Uo18iYcZxdIJVNJ9DjzmlW9vxw1NR0TUWv18jHtOKTFrphyHCNGTVcI7pHeyrWCfes1sEglZaDb01R/1EZOnF5okaMGqLEtoXanfGYBg1/Ubn+zzm9T/PvvFXDrBCV26SHNb71OkldVfDWLCXc+YxyqvnbM9R15Xw8nPFDGc/3P9TxQxnPCGfccBXkvqjkhDt094LN+vuvbvDsC6ZLulzKPfSdPZbFCsjZT95h7zfR6jHI3m96NVbu+oUaZk1jzkfBKoxfKvPhW5W86oS63DJEY1Li1aFwn1bMGGZV9vwq5UesCnDCMKuCtVfn9TUNOlivcW0rfWtVwnKO2uMEZe2PC6x5vMcKYP9spyTPsiSpu/Yrc8t+ebJ/o4sVZ8qTe6qNGe4UX7LMcb+KMSUVC3c9NO/keTylb2vPYJeB3vHHjOqpto08RcFFap2X01hx18db/w8oIydwqsp9b6Vy1VpJfWrqdMbw5r/goyUalJSmOeu/shsCsdZ510KtnWWN/1+7XFfWC6zPzIQEa/rbflQHexumdLHWw/rtyv0feySn/auVnPSwshv1VIpn+0frkLXOJg2vWquCZfj2C7OfF13tmf6YlB5qutua/pDUMvvEeVd45zWxkxlqrbhk7/CYUZ10ns5VF09/vKxFsR72zqvn8SvONSVep/O0YtJADZqaoQ99nxEJ7fX1e9Y+mGSFp/K/vXgdzVLa8MeUsd/MT6EKPN8RIbxHAZw5ilFizP0PFLe7qnvAzjzmxg8FhWF1Sfc9HLDc1wV6PJSycIeDlfl3lY1T1emarlIfry1+NiffHij1yfJka9v1LX58t13gkV/8WprZpn2LO93xTPGOE3ax8dPh4tfG9/Vs7xnvF9iFRkHx5sdMed/i1NcP22W2n/KLNz9hXsdM85niD+3iYAItn39XlXUVyroMZ7qmPNTxw51uKGWBukr9z3vFE3tb26H3hOI//d25/cr7+vUJnm120xPbio/9ZBf6/GNtcapnOtOK3/4fu8z4b6vcbOfefYt/N/+D4v91Pu+w/Zyr5hZvLnnpguIdT5j9ZlTxn760i3xO7C/++3/b/YZv2vP32gWWf2QU326VdXpsW/GPdpHPsc++LP5fu98j0PNDUKX1YDn2hvd5Zd9bFYvMOjd873HH+7Hgg+IZZtz/zCj+u11Uan/xszdbjw3LKP7aLqlIWMtelfn/5zbvvFr78Wv/sMt8Dr9X/PCt5jlW57etP5xvyq3nOPerQOui+HDxn4aZ6Vuv+0+7yOe/rf3S8Znonab1WXld+ffUJ0u9n3vXLd9vl1QiyD7qXZ/WZ+srX5bdz/+5t/hxs6w3W/Pu93YOvKw+1vPM66StLT5ml5QqsJ57q/XcZOsz3u87w7c9/J7nfa2xxWMfTLbmcX/ZbRjOexRAg8eRKodtOTvtvvIqeizSzK/7ga65MmVufvmvb9Mt0SlRY35TvuWxDl16Wn8LdfAfgU+DSrp3tLo3sQeMqNZKGpYk8/t+xseOX4+/eVsrMgqlAVM1d5D3F/oSUc0Vd2+akuxBt+rSNgg0vr9wpluVeQhHbsZCZZ6OVsrjs5XSNtouDaBwl5Y/tV1qPVpzJ/RUiyi73OfCRC2clSidztLyjYF+tr5F41O7qqnzea2tfTDJvOZa7S45qH1Sh742v2pfpjZ+u42atFPbylpjO37Ec8pW24tbe/ZJpxbtY9XU7q8y1+shDBFb50FEX6H4W6xxc9eq3MGq3O2eoxNxt/bzHu0LUempj84u2GmQoc9//sbVWnFaip86Q0kX2oU+rftp2jhrPbnynQ6ZU9diY9XG/+ji+dZ+6fxM9ChU2xFp5d5THRKHKM76f8ia+Sq3sle0T8uetPaLTvdp8m2xZffzRh01JrWfdCRDWbl2mVvWZ/ni9COKSUrT5F5+3xnW9hg/zHqjbtuszeW24S5l6S7NTW5XdhvW9HsUQL1CqEKNq6jSHKiSXSVFhTqUu0uZGUs03zSne+cdumbkSs9D2V8GOs+qq7pcVraS4NEqVt2tfwWOs5BO7N3luV4l8fqegb8kG7VXl152v0sRWVe1pGaX7YCy37Bqxq3vUlKvANvV6ct9yrYqrR1S+qmDf+XeFmMFclN13b1tX/kKY9dOujzAqW4XXtzV+us7Lchori5dY63/GZqzYLsOOfapkLTtpCTrdXL/uFArcsteW1It3K6HcERsnQcTre4D77JCU/lTAHO3Z+qQ+imxb3hNwgduUr25mgZqvCPk+T+lD/9qrleLV2Kvxt4iPzHtO3nCTNXFqosnYD6jOatCuSYtWnFXmP3Yz/kXq63dW2W52zwBsvtve6htgP2i6f81v0YE/2EsXPm7Nns+y1Osz/JAJ8e2bGmWc7sOBvjKSLmlX/nP/5p+jwKoVwhVDr26d7P7yqvosdpgKqeBOn/Oiqz5H2jYyZQF6tzyvW51Tc+p4OBqpcXHqf+daZq0IFPZ1pdb2y79NCbJHKkKJlZtQqxDHcs3lbBotTm/sbeghtXkuqoJznl1doHU2LIV5uuYOcDx763V0lsS1Imvv7Qq0VZ9qEUFd4Rq0kLnmf9FAa5eiW0d8r2k2qbM09wBTXRw1UT17xHvuRg+Oy/EyleTfpq2cLg6WJW8mXderytumqg5a63AUWklODSu10MYIrnOg+rQU0lWHT13/d900C4yNzH2hPGkRMU3s8tCFLhJ9YcVH+hzJeT5t/bjf1j/GrXWeeWOGFWXxop/4I8a017KfnKYrul3s+62Pjd3B702qqvaVPamqqIT3xzxXB+W84fBfkf87M7+YSzncKUXIIbk22+9gXr56ACvZXW+BlgOHvYPce3U9oIAP9bU8HsUQP1CqHK4N3WkfhlT/vcrU2Yeq0tM5TRY50ag6fk6t5zTqrZKdeEuzRk+V1nNEjXr5Xe0f+s6q2KzUHMnjNaImwL8uloFJ74xpwLG1mAlp7waWVc1xDmv/l0gzserbdlOnvJU2tUo2oq/FSssiOAvylGtlTgnSx+snqfx1zbXwfULdffggRr0h806FELFK+bK0VqzabVWTUmyKm67tHxGqnrFp2l50CbaQhfJ9RDRdR5UOyUO62ilKscpgHvf1uIj0Uq5rmvAIxeRZ+3H5lS32BY1e+pYo44ab31eblo2SSntrNCS/piSE+I1LD2yLdb59osON9oNSgTpRlzmaGjChYIfzTHQ5uqeFPh1fF3cBeVO5lPMOXavn5p8jwKoXwhVDpf/ur1WLlui/nF9PEHKdKbflJnHUH2clWo3Cj7I9pw+kjjmPiV1aGyXVq8LLzZHvA7oUNDzn06qIFCLWdWkutZVXVRty9a8tfdUpH8c1zFPQXAtftXOU4E+mF/BCW2FJ7yVyyZNKg1poWga21Nj5r6iDza/pGkDYpS7ZoomrQl07VAA0a3VJWmiVr2ZrW1PD1EH80PC6IXKcVlni+R6qI11Hkib39yoLiWnABYq550MFZhTRrvW1CuGq5XamlOJc4/oWLDQ/UNhpft4SKKi1ebKwZq2bJ0+3jBPI9oXKGdBqub8NXJhoMUF3h++mnZN1Pgxo4N31/pflFg1F15gTrc8rg7XB3gNR5dyZZjfJTX0HgVQvxCq/Jjw9OxTT2jP9s2ezvTXp0AVqHLqq7Sa/4GGQ+Gm0uu6wlyBk8e9FdPzWjT2/HfK3bXZ7nOnxa+8F1CveC9IU8Z5f1NmNV1IXZPrKtL8l6Vml62dupvWQnIzlFVZowXtr/ZeB/Ha5vJN59sKPtihDOt/fJ+u1XvEoEk7pUyZJNPAd1WuU2rRN02zzMX0p9cqx+1dHiK5HmpznTtdeINSBljzYU4BLPxYWWsL1ea3PYNe5xV5zdXW0yCEtR/vClwjP5jzlqqr3YYS5/fU5EfMNWeFyviwsibqq1HbTp7r6HJy9umEt6RGtWjfydMYSdZHNbeM1foeBVCvEKrqoWC/7JuycIKSv/o2XaNJc+8vmFnvlg08BQdXav7iEI8EVKbTDRoTa01z1TzN3+V3GpO558mCZ8rfWLOK6ts2CGe6NTUPXtGKu3W02ipP8x+ep2z/SyJO7tPiDPsGoNFdlTTC2qB5SzRp0a7yF+p/naWpj2eoIHa4RlzX2C6silM6uD/ABfbfn/QcaYip7Dqbb/IC3Ii6UMeOmSjmd53Lv9mnKx05EnrlNGLrwRLJ16pQY8Vd289KVWuV/boV4k531IgbaureVFXT5ca7rP24UCueWKIcv+1vrh+d88dQbvpbkePWfln+dMyC//Ee5e1+QStvQSQ06amUodZn+MZZgY/cnjygjPTN5X98iDbBM0/HgrRfEWMaBfnyuL7138/aJ2pML+nQ4uma4/9ZbnyzS/N9nxOhCPU9+v12zRzcQ9fM2ByR8Aigdpxl2lW3+1GDfiz8l90XmlAqmv4V1IrG959eRdMPZ7o+1T2/Tr+M/oXdF0DhPs2/I1WL86LVou8tuq1dYxUc3aWM9aeUNLSTlqdnSkOXav+4jvYTjivjvps1ddsQrfpbmvcmkU7fmJu1PqbsMs+xKhz7V2rYqIXafbr0dfTDEeWsz9KJWx5W0sHHNCfYNB1C3Q+qug183G7bYNuzonKniuY3nHGdKtwPbIfWT9Ggaabi0kRdBiaqeyur8vX9Ab22YbvykxzbtOiIMh8erkkbTyqmZUfFX29VgM6xtrNn39mnE836ae7Ls5XoPOsoyL7hk792oudC9xHLdmjylabEu6/N/Lx0+r59ZndhT816dZ6n4QSPQNP+aKHaj8xU22tvUHzbxp6iEwcylbHluNpY462xxrOjlOWIVgwfrJl7o9XhxiTFtSlUwcXDNfnGSlpjqcp6sJRf1hBEZJ0blbzHC60Kbo+JymgUrYK292nTi4PDakrd95qm9b9yTZJ73KBpLw/xvm6V5r9Quen3KnnBPhU0aq64hER1aOZbT9bn2vREHZyxsNw0dy/ooeR0a7/aYO1XJc31B1oX+zTn6lRlxPZT4gC72W/fe6SlNd7L1nj2cgWepo93Ost7PaxtzyRW3hBHsHVhbqw+6l4t3l9ordPSeSrZL/rO0Lan48tMv+Cv83TNPVYIb9ZVKUnW++BQE8XPste5tf5ynrxew1ZZ0+uepJSO0TrU9FrNTbFf80iW0u6crqzvrc/yK/vplq7e5tB97y2NWqqPx1S2Xm0hvkcLts3TFfeZ47DWPp5l7ePhNTQJoL7w3K0KNc7/Rqb+nf8NUEO9IeqZ0FXqxN7iP/2/UcU9PTfS7Fvcc8Tc4tc+O1lcvPsZa9gqK3OzyUA3w3So6Caq//1B8bKS1+le3PXWh4off9PcsLKSaToEWj660LpQ/e+X28psp043Di0eO//t4k+cN3r2KCj+OntF8cR7kou7mm3u2aZjiye+tK3MDVBLVHKD3fI3hS0o/vs7zxSP/c/S6Qedl0DT/p+91nKMLf7djd4bUre76vrim+6ZVrwswI2uPfI/KH52/MDiTmbc3gOLZ2Rb74GQhLkeLFW5+a9XTa9zo7L3o++mzN2Lx74Z6joq5XvN4J3jdas0/17Hcqz1NMLenmbbT3ymeK25AW+QaYZ+89+TxR++NK146B2+afu2wQflbspc9ZvsBlDRuvgpv3iHmadbr/fMj+dz/I6Hime89kHx1343/vWy3ltvzC2+/Tp7/of53dT5n18Wv/bYKHsfu7749lf87r59Yn/x2vkPlXtvPf2m3819LRWug1Dfo//zXvHD1rx2ffQ9bggMNGAcqYqQUI5QOH/BD/XX+zNBKEco6otwj1iiVEPaD1CbCpU9+3rdndFPCzfPUHwEW/WsFvtfVP8hS9T0gVe0Jtnb0AMAoPYRqiKEynTVEapgEKpQLb5ereTfzVVu8kJ98EBdaUo9dLnPD9agxfkasSw79FMvAQA1joYqIuTss86y+xCOhrbe2A+qhvWGalF0RBlPmYZlOmrybXU0UH2TpTnP7wp4A9n8LfM0yTTA0+k+JXWyCwEAdQJHqiKk6Oef9a+fAnxLokK/+LcoRZ3dcLI/+0HVNLT9AJG1+4WJyvwxVif+mqnMvQXqMuUlrUqqo6fO+Rp0aNRcXa69wdvYimlJcuPbyso7KcUmauHChxXv13gIAKB2Eaoi6F9FRSoq+tkeQmWios7WL6LqzA1kqg37QXga6n6AyNn9fLySF5tWB3sqZVyaxt/ovfdcXZX/UaaW/SlD2bsP6OD3pqSJ2na4WnG3pWjkwI5qwdsBAOocQlWEmSMVpkL9M6s9KHOql6lIN+QjE+wHlTsT9gMAANAwEKoAAAAAwAV+AgYAAAAAFwhVAAAAAOACoQoAAAAAXCBUAQAAAIALhCoAAAAAcIFQBQAAAAAuEKoAAAAAwAXuUwWgXuHGyZXjxskAAEQWoQpAvfGvoiJPoEJoTLD6RVSUPQQAAGoKP2MCqBd8R6gQOrO+zHoDAAA1i1AFoF4gUFUN6w0AgJpHqKovvsnU3Vf3UPsF++wCr90LrLKrJyrjG7vAlePKuM9Mb6F22yV1VfUuN2pPoQ6+tVB33xRnbc8eumJylvLtR/xxDVXVsN5CVajc9Inq1cfaD2+arhUHC+1yAAAqR6iqVaeUOdmEgx5KzjhilwFnjtwXhilh6krtPr+fRowarqQLo+1HgAg7vlnzF2xX/mmp4NsszVy0OWjABwDAH6GqNn2/XVkbvb27X8pSbpG3v2YdUdbsKRo0NfgRAdS+Q+/NU9qQ6cps0Efi9ilreZ7UerReWjZDk8eM1rSx/dTCftStOx941O6rH+rb/AIAgFKEqlp0aONrylJrxQ/oamWdF5SxKxKnm3yn3RmblXuywB5GXXTs4wxl7T+lBr2VvvlSuaet/9d2VAcaqENta95Pk6fEq0UjKaZlvGaNq76ADwBo+AhVteaAMl/aJ7VO1Jix/dRFhcrY8nHDrkQDgUT90u4BalO02ibN0LatO/TxmzOUFMupqACA0BGq/Hzy6X7dM+FBde7Zz9OZflNW7XK3y1xG1WVYvDpc2E9JvaSCVauV9b39eLXbpzmmoYurU7XcDG57TL08w1bn1/iFz4n9mZo58mZdYcbpc7OSp61UznH7QX9Fp5T71kKlDY73TtM3flVOXzuZp+z06Rrmm5bVXTM4TZPeCnLd2Te7tHjSHbrGM268EiYtVGaQi8zzP8rUnEnDPBeje6bd/w6lLcjSQXPEpIyyjXbk73pRw/qb4YnK9K0Da5kPblmpSff6Xttc4J6qSem7lB/sVM6i49q91lpPQ+z16nnOMKW9sE8nrIe9DXD0UHK6GXm7piZ4hwM1HpL/V+u1fdvHt9z7T9mPlnI26lFwMFNTh5hGIeI0f689gsUzLcdyeNZ3xoHwQv43+5SxYIoG2Y1OeObp3ula/lf/ncbeFxMeU7YZTE+1x++hu9cG28HC9/KTnE4XsnD2ZWejOdb+nPN8mvc59/udUuz2M8H3OnY35yO73OZ7r3g75/vD91nn7Tz7lGc+pyjB8x42+/cULd4VZL90Ps9P/t7VmlmyjuKVPDvT+uzwfVbY3X2Zpeuhystg863Dks+LOPUaMkVz3jqgExE5XRwAECpClYMJT0NGjtam7K36saDA05l+U1a9wapQOetf0CF1VOJvWlvDzRWf0M/6v1mZW6qvUlnWueoyarjGjIpXFzPYuqdSPMNWd8W5njGcDm2bp+RRS3To3xM1YtQQJbYt1O71CzXs7iXa7Z9XTudpxaSBGjQ1Qx/+6gbvNBPa6+v3rPGTrMp8GG1wFOS+qOSEO3T3gs36u29aVpd0uZVDD31nj+Wwf7WSkx5WdiPv8qT0jdah96zK4fAp5a9H+miheo18TCs+aaEbhninO6J7tCfAJdyzWgeDVFJO7F2ioaOXKMcOvAU/ef/nr7eed/9CZf+znZJ883nJV8pckKbrnthePpAc2ayp/2FVLGdYFcvoq0vW/4i+rXXo70esvUI67wpvWWIn84TWikv2Do8Z1UnnmSLDqiBmP3mHet1jvXaRPZ2UHmq621ruIalWxS3IaaRHs5Q2/DFl7DePF6rAs7zWdl1gT6tkOZLUXfutfXG/TppRQpBv7S8JCamamrFXMdckeefZzNNnWZpzz81KsCrgpevD3heTe6qNGewUby/jcMX9KsYzBiIr7H3Z44R2PzdWwxbv8vwgoCLHWNX4meBa0ZfKmHSrNZ+bddB+D5/I26z5o8cGf68EcGjtRF03fK5W5OR5l9d6d+zOeMz67HhRuWH9+hCi0/s0/06zDlcqa/9xexsUKn//Zi2fOky9J2XqEMEKAOqOYpQYc/8Dxe2u6h6wM49VmxPvFU80033w7eL/tYtKyoZlFH9tF5Xx32uLU83j8/faBV4fzjfzN6H4tf+2Cyq1t/hxM520tcXH7JJS+cWvpZnp9S3udMfc4s35drHxU37x2of7etbFxHdO2oVGgTUPt1rlycUz3nc+wXLYmufewV4rgP+x1oEZv/eE4j/9vcAuDMy73NZ8Xld+3E+WJnvm87rl++0S28dri5/N8ZtHyyfLzfh9ix/fbRd4+NbFQ8VjH7SWLftw8Y8/2Q/ZjmWvKH7tM+e6ME4Wv+1ZT37b5Kf9xc/eaqYXYD0FUNF2PfbGBM/8pr7yZfGPdpnHP61ta17j5meKP3SsEu+0xnqWI/WV/cX/61yOf2QU326tq06PbSs7Lcuxz74s3T8rYraz2adu9dtnjJ8OF7823qyPvn77jSXIPh3MDwWFYXVJ9z0csNzZmXGcXbBxApX7ukCPO6dZ2fN9XSjjVWW6pqtMWPuyb7s9aL03zDY/7P9erabPBN/r2F3Z96dvv/Z11j5vl5d8xtnddbcmF3dyDJfpysxH2eelvuGY989eKL7J8ViFnXOaVV2GkveN97GbnthWfMy8bwu+LFN++2uHveMDAGodR6octuXstPvKq+ixcJ3Y9rYyrf/x1/ZUU2+R1KSnkpKjpb0rlZlrl9WaQiX+Pk1xze1BI6q5Em9LkjmOkPlJnrfM+OZtLU4/opikNE3u5XyCpXWixg9rba28zdocwik/uRkLlXk6WimPz1ZK21CuZyhU2xFp5cbtkDhEcdb/Q7v3lz0dqVOixvzGbx4tHbr0tP4W6uA/Ah0l3KzcS2doWt/WivFrTKFF3yFKat/YHvJprKt+09X6v10Hj3pLjBPvvKD51mrr8sBsTfNfT+Eo2qdlT263luU+Tb4t1rM9SjTqqDGp/aQjGcoqtw/tUpbu0tzkdmrqXI7jRzynHLW92Fo+b0mJFu1jS/fPoAqVs2KustVa4/9/E8vuM0ZUayXNmq0ka7zMP72tQ3ZxXWBa2zOnCDq7UFrgq2ycqk63MjU1XSOcfbnExgPqYLZ5a7/3ajV+JlSHQ9b7Lunpddr/tx3av8H6bDEnB/hsy9PfKz3ac0pZ6Ut00B6SYpXy9Gp9vNOa3s53tGpsx3LvHbcKdr2imVvso2iNkjT53p5qYd630bFK+v1d3iO8Fk+rsXY/AKB2Eaoi7ogyV222/icp6TpnJSZaXfreYn05H9HidwJf4xQ5PdX98gChplWsutu9Pvm7Nnuui0m5vmfAikXLlrHW3yCVsjIOKPuNI1al6y4l9QolUBnRirvCTN/P+Rerrd1bTlGhDuXuUmbGEs03TcvfeYeuGbnS81D2l4Fmsp1GDGhn9wdgrkX5aLsyrErXnGlpGjTkZl03wwo9ltKQdko5W802j9eIgQHmNxy527TitNT9tz3UNkCLeU3/r6kxBg6IKbf0Kx+S2nZSUiNrsn9cqBW55a/HqlyedpvKX4chiu9gF/lrdIXibrT+792u3TV1dmuYfAHFn9ugUt+mW0ZI+7JDkG1efZ8J1cSEu752uDu/n1JSnO/nPB2q7N4SRZ9p91t2vyUmeaI1PftHlqjG6jJ0qsYH2/eraPe2jNJTLvterS7We7REs+aln29H9io3QuEUAFAxQpVDr+7d7L7yKnosLHk7lLHXfDHHqbtfdojpmqgxVp24IONt5YR+qn8NiFWbEA+mfPut96jV8tHOC65Lu16+StnhSmrThfk6Zq6z+PfWauktCUFXtQl9ZBUcXK20+Dj1vzNNkxZkKtsKEW279NOYJHOkKpgr1Mb5y7ZD/raFGtTveiWMnKipL21WzpdWBatPokbc6B/CrGX7h/WvUWud18RbUlUnvjniqWzl/GFwwPXd3g6IOYf9a6zt1PaCAGG1ST9NWzhcHaxK7sw7r9cVN03UnLX7gje04e/kER002+1XzUuv+Sqnsc6zt5PvejSEp6LwFChshSv0fdmhQ6uSIyZO1faZUE3iLm9fJtz9n0ZhNpSef9RxlMrKaD2vKBsWo5qo6f9n91eL456jayXemlLSeIin8zXwAgCoUwhVDvemjtQvY8r/tmrKzGPVIXfjSs/pGgWr0kpafyvpug3TfFNBPZ2hFe9W5ahB5BX8aH7mba7uSd6L24N1cRcE+s3a4eQp76lhjaIV6nGqsBTu0pzhc5XVLFGzXn5H+7eu05qXF2ruhNEacVNFR4+i1TTQDH29WmPvW6mD7Ybrpcxs7d/0ijW92Zo2ZrT+8zf+lbZTOmYqSc1iAv5yH47CAu9+0eHGwOvZ1424zL/xkRaKOcfu9RNz5Wit2bRaq6YkWeFql5bPSFWv+DQtzw0h2RcW2hft1z8mpATq/DkDjfkfaNjJlAXq3PK9bnVNr0RY+7JDo6YB9+dq+0yoo2JiauQTCgBQzxGqHC7/dXutXLZE/eP6eIKU6Uy/KTOPuWZV7DNeslJTo+bq0KFdkM57HUvWe9vrRWX1wgvMNRfH1eH60RpvVcKCdSlXNvY+IZjmrb2ntPzjuI55CqpXwQfZntPmEsfcp6QOlcxLCA5uW6vdaq0xD45Wd/9rSspppTamycUj1rK5PALZ4gJvAGzaNTHgei7prg1yeC2Y6NbqkjRRq97M1ranh6iDCaGjF1Z+xNTabh3MqUkVbjcreHmarG+sps7TmGqZCSnBOjcCTc/XueWcVnWFq/D25cpV22eCn7JHtk7p2Ld2b037t7LhL+ujA3afrcja97+0+ysR2jLEqKnziHavh7XNXA8WsJunpPPt8QAAtYpQ5ceEp2efekJ7tm/2dKa/WgKVpWB3tjKsymWbEU9pzcsvBenmabxpTnvja8r82vu8uqxF+06eU4DKVTTC1k7dk6x/uRnKqoHbgp08bg4BSue1KF+Ry91lrncKz4lvzPLG6rxm3uFSp7Rjm/f0plLN1aWnOY1qrTK3uDwC2baTEq1/OTne+1rVhBZ90zTLNCZweq1yKt0W1na7xaqIV7TdTu9S9gbr/4Be6u7y9EeUcoYrN8LblytXbZ8JjZqUuQYwe/nKktsa5G9ZovmO65xqVPN2inNcM3Vo8XTN+av9Pi48ouynpnvPMAikSstgGghxnJK8ba7GLt6lQ4576RV8k6fs5xeWv20EAKDWEKoi5pSyXjcXH7fTiGsruE5BrZWYbO5ZtU/L33YbVAKLMUcLvjyub6vjHiftEzWml13R2BUgMHyzS/MzQml4I1pxt45WW+Vp/sPzlO1/ucXJfVoc0nQCa9Lce+Qm691dZe65U3BwpeYvDlYjCq7p+WYbblfW9rLP9VSUNtoDDm1vvEuJjQqVOWO6VvjfmLjoiDLTN5dtqTDaHDHI0zH/9dCkp1KGWsuycZYmrQkw3ycPKMN/WhWxKme55W5GVahjx8wUQrlmLdoKVXfZ222hcvynZZZt1jytOB2rMf8ZoKGMOihQSPGFF/M/0HAo3IQft8GpIuHuy5Wqrs+EJp3U3ZpOibyV9g24e6jX/Wt1KGJHPWMV99uOdr+Rp+X3XO89ZbvHYN29ynkBlJ8qLkOLAYOVUvJYoXY/n6b+vhuWW90V5l5+i/PKfJYdzEjVFX2GaXkN/CgFAKgcoSpSvnlPmaaC0ukWxVXSAFzTXjd4jkYcemO7cqv95o72kYUjSzTsvnlWoFioSSvctDbYXEkPzVB8M6uiMXqgeo20KlKLrcqY1c28/2bryz9Ny0M9n6/9cD0306p452Xo7vh4JU9b6JnO/NkT1SshVfMP2+NVQcw1N2iMtd4PrZio6+43y21aOEtV7//IVNuhZm2Hp+21KYqzKj3ZfxheMp9mea+bekTxKeb0Jz/N+mmWr0GI/7jeqlB552H+U9OVHD9Yk3aVTSMdrvK2BDk/LU0zzbxOXelp+tyEmC6pMzSmvXntwbpm8BTP477luabfME0td3fmChzN1KB+8UqYZM+P1c28/1alZRRa68UKgqGcWlSy3awKY8LNpdvNt2xvnVT8THME1v2pZdUl2BGecIOSv/o2XSPsfblS1fWZ0FyJI4YEbMmz6YCpmmaObEdIm0EzNKtv4P237dCHNdkZnMqo4jI06qnJS0aXbfWvQkeUs26fCk4f0OKttd16LACcmQhVEXJo61pPi01dbu4RsMWsMnz3rDrygjJ2ubwIp5xodb/3Jc1K6ijlZGjx85k6FNXYfqyKWsdr4V9e0tyhPdXyyGYtf/5Fa7qrlVN4tUbMeknv3+38lbdibQbO1qbV8zR54EX6+r2V1nRe1PIt+boqaYbWjAh9OuVEd9T4F5dq2sB20i6z3Cu19vBlmrxyqSbHVeGctPPj9dzKeRpxbXMdXG/m01reqCQ9lzFPI/89cOXL0yBExlLNstbT//nYzIO1ntYfUEyvNL00NVHOJgFifpOmNdOT1EW7tMIaL+NwTOlRnkbWsrz8ul4aF2+FtL95Hvcsz99bKHHKQm2aE19mWhWKvdZa1+0V88la7/zY2238s+u0YVzo998x2+39v1jb7dqLdWKbd7v5lu251a9r4cAwr/GKAF9QcXZuA4pR36ZblX25UtX0mRBzZZrSl6Qp8crm3n2xWazixyzUm4/FBwwqNcbcb22u9z3XpaV3ncS07Gi935Zq1VjH/QYDqOoyxHQYrlUbXtFz1mt2jy39jIpp2U7dBw7XrGUPO66naq0u17VTTKN2GtPHxeckAKDKzjJ3ALb7AaDO+rHwX3ZfYP4ho9pCRwPwy+hf2H2ofseVcd/NmrrNHjQNSzxT9kcSAEDDR6gCUC9UFqoME6R8CFSlCFU1iVAFACBUAagnCv/1k37m4ypsZ591lqJ/8W/2EKofoQoAwDVVAOqJqCg+rqqC9QYAQM3j2xZAvRB19tkEhDCZ9WXWGwAAqFmc/gegXin6+WcVFf3MqYAVMKf8EagAAIgcQhUAAAAAuMDPmAAAAADgAqEKAAAAAFwgVAEAAACAC4QqAAAAAHCBUAUAAAAALhCqAAAAAMAFQhUAAAAAuECoAgAAAAAXCFUAAAAA4AKhCgAAAABcIFQBAAAAgAuEKgAAAABwgVAFAAAAAC4QqgAAAADABUIVAAAAALhAqAIAAAAAFwhVAAAAAOACoQoAAAAAXCBUAQAAAIALhCoAAAAAcIFQBQAAAAAuEKoAAAAAwAVCFQAAAAC4QKgCAAAAABcIVQAAAADgAqEKAAAAAFwgVAEAAACAC4QqAAAAAHCBUAUAAAAALhCqAAAAAMAFQhUAAAAAuECoAgAAAAAXCFUAAAAA4AKhCgAAAABcIFQBAAAAgAuEKgAAAABwgVAFAAAAAC4QqgAAAADABUIVAAAAALhAqAIAAAAAFwhVAAAAAOACoQoAAAAAqkz6/wNnJ2y43rtr5AAAAABJRU5ErkJggg==;" vertex="1" parent="Hm4XUHoT0N1f3xxSEZ0I-91">
          <mxGeometry x="10" y="9.535759096612296" width="406.7001254705144" height="584.5420326223337" as="geometry" />
        </mxCell>
        <mxCell id="Hm4XUHoT0N1f3xxSEZ0I-4" value="&lt;font style=&quot;font-size: 11px;&quot;&gt;해시 테이블을 사용하여 주어진 문제를 해결할 수 있는가?&lt;/font&gt;" style="rounded=0;whiteSpace=wrap;html=1;fontSize=11;strokeWidth=4;perimeterSpacing=0;sketch=0;glass=0;shadow=0;strokeColor=none;fillColor=#fff2cc;" vertex="1" parent="1">
          <mxGeometry x="475.41" y="86.75" width="316.59" height="28.61" as="geometry" />
        </mxCell>
        <mxCell id="Hm4XUHoT0N1f3xxSEZ0I-5" value="&lt;ul style=&quot;font-size: 10px&quot;&gt;&lt;li style=&quot;font-size: 10px&quot;&gt;&lt;font style=&quot;font-size: 10px&quot;&gt;&lt;b style=&quot;font-size: 10px&quot;&gt;jewels:&lt;/b&gt; 각 알파벳은 보석에 해당하는 돌을 나타냅니다.&lt;/font&gt;&lt;/li&gt;&lt;li style=&quot;font-size: 10px&quot;&gt;&lt;font style=&quot;font-size: 10px&quot;&gt;&lt;b style=&quot;font-size: 10px&quot;&gt;stones:&lt;/b&gt; 각 알파벳은 내가 보유하고 있는 돌을 나타냅니다.&lt;/font&gt;&lt;/li&gt;&lt;li style=&quot;font-size: 10px&quot;&gt;&lt;font style=&quot;font-size: 10px&quot;&gt;내가 갖고 있는 돌 중 보석이 몇 개 있는지 반환하면 됩니다.&lt;/font&gt;&lt;/li&gt;&lt;/ul&gt;&lt;blockquote style=&quot;margin: 0 0 0 40px ; border: none ; padding: 0px&quot;&gt;&lt;font style=&quot;font-size: 10px&quot;&gt;이때, &#39;a&#39;와 &#39;A&#39;는 다른 종류의 돌로 간주합니다.&lt;/font&gt;&lt;/blockquote&gt;&lt;font style=&quot;font-size: 10px&quot;&gt;&lt;ul style=&quot;font-size: 10px&quot;&gt;&lt;li style=&quot;font-size: 10px&quot;&gt;&lt;font style=&quot;font-size: 10px&quot;&gt;jewels 및 stones의 길이는 50이하의 정수입니다.&lt;/font&gt;&lt;/li&gt;&lt;li style=&quot;font-size: 10px&quot;&gt;&lt;font style=&quot;font-size: 10px&quot;&gt;영문만 고려하면 됩니다.&lt;/font&gt;&lt;/li&gt;&lt;li style=&quot;font-size: 10px&quot;&gt;&lt;font style=&quot;font-size: 10px&quot;&gt;jewels는 문자열 중복이 없습니다.&lt;/font&gt;&lt;/li&gt;&lt;/ul&gt;&lt;/font&gt;" style="rounded=0;whiteSpace=wrap;html=1;fontSize=10;dashed=1;dashPattern=1 1;strokeWidth=8;perimeterSpacing=0;sketch=0;glass=0;shadow=0;strokeColor=none;fillColor=#dae8fc;align=left;" vertex="1" parent="1">
          <mxGeometry x="475.41" y="132.05" width="316.59" height="135.88" as="geometry" />
        </mxCell>
        <mxCell id="Hm4XUHoT0N1f3xxSEZ0I-6" value="" style="shape=flexArrow;endArrow=classic;html=1;rounded=0;fontFamily=Helvetica;fontSize=24;endWidth=22.109375;endSize=6.65;fillColor=#fff2cc;strokeColor=#d6b656;entryX=-0.003;entryY=0.321;entryDx=0;entryDy=0;entryPerimeter=0;width=15.625;" edge="1" parent="1" target="Hm4XUHoT0N1f3xxSEZ0I-8">
          <mxGeometry width="50" height="50" relative="1" as="geometry">
            <mxPoint x="415.2325192307692" y="363.28732747804264" as="sourcePoint" />
            <mxPoint x="483.4132692307692" y="377.5909661229611" as="targetPoint" />
          </mxGeometry>
        </mxCell>
        <mxCell id="Hm4XUHoT0N1f3xxSEZ0I-53" value="&lt;h1&gt;보석과 돌&lt;/h1&gt;" style="text;html=1;resizable=0;autosize=1;align=center;verticalAlign=middle;points=[];fillColor=none;strokeColor=none;rounded=0;shadow=0;glass=0;labelBackgroundColor=none;sketch=0;fontFamily=Helvetica;fontSize=11;fontColor=#FFFFFF;" vertex="1" parent="1">
          <mxGeometry x="475.40999999999997" y="29.54" width="110" height="50" as="geometry" />
        </mxCell>
        <mxCell id="Hm4XUHoT0N1f3xxSEZ0I-70" value="" style="group" vertex="1" connectable="0" parent="1">
          <mxGeometry x="475.41" y="282.23" width="316.59" height="233.63" as="geometry" />
        </mxCell>
        <mxCell id="Hm4XUHoT0N1f3xxSEZ0I-8" value="" style="rounded=0;whiteSpace=wrap;html=1;shadow=0;glass=0;sketch=0;fontFamily=Helvetica;fontSize=24;strokeColor=#94CDFF;strokeWidth=4;" vertex="1" parent="Hm4XUHoT0N1f3xxSEZ0I-70">
          <mxGeometry y="0.0035714285714334437" width="316.59" height="233.62500000000003" as="geometry" />
        </mxCell>
        <mxCell id="Hm4XUHoT0N1f3xxSEZ0I-29" value="나는 보석을 3개 가지고 있구나!" style="text;html=1;resizable=0;autosize=1;align=center;verticalAlign=middle;points=[];fillColor=none;strokeColor=none;rounded=0;shadow=0;glass=0;labelBackgroundColor=none;sketch=0;fontFamily=Helvetica;fontSize=15;" vertex="1" parent="Hm4XUHoT0N1f3xxSEZ0I-70">
          <mxGeometry x="83.72928571428571" y="163.62857142857143" width="220" height="20" as="geometry" />
        </mxCell>
        <mxCell id="Hm4XUHoT0N1f3xxSEZ0I-54" value="&lt;h2&gt;Example 1&lt;/h2&gt;" style="text;html=1;resizable=0;autosize=1;align=center;verticalAlign=middle;points=[];fillColor=none;strokeColor=none;rounded=0;shadow=0;glass=0;labelBackgroundColor=none;sketch=0;fontFamily=Helvetica;fontSize=13;" vertex="1" parent="Hm4XUHoT0N1f3xxSEZ0I-70">
          <mxGeometry x="5.029999999999973" width="110" height="50" as="geometry" />
        </mxCell>
        <mxCell id="Hm4XUHoT0N1f3xxSEZ0I-55" value="&lt;h2&gt;Output: 3&lt;/h2&gt;" style="text;html=1;resizable=0;autosize=1;align=center;verticalAlign=middle;points=[];fillColor=none;strokeColor=none;rounded=0;shadow=0;glass=0;labelBackgroundColor=none;sketch=0;fontFamily=Helvetica;fontSize=13;" vertex="1" parent="Hm4XUHoT0N1f3xxSEZ0I-70">
          <mxGeometry x="209.99999999999994" y="183.63" width="100" height="50" as="geometry" />
        </mxCell>
        <mxCell id="Hm4XUHoT0N1f3xxSEZ0I-59" value="얘네가 보석이야!" style="text;html=1;resizable=0;autosize=1;align=center;verticalAlign=middle;points=[];fillColor=none;strokeColor=none;rounded=0;shadow=0;glass=0;labelBackgroundColor=none;sketch=0;fontFamily=Helvetica;fontSize=20;" vertex="1" parent="Hm4XUHoT0N1f3xxSEZ0I-70">
          <mxGeometry x="116.58999999999997" y="52.76999999999998" width="170" height="30" as="geometry" />
        </mxCell>
        <mxCell id="Hm4XUHoT0N1f3xxSEZ0I-57" value="a" style="ellipse;whiteSpace=wrap;html=1;aspect=fixed;rounded=0;shadow=0;glass=0;labelBackgroundColor=none;sketch=0;fontFamily=Helvetica;fontSize=20;strokeColor=#b85450;strokeWidth=3;fillColor=#f8cecc;" vertex="1" parent="Hm4XUHoT0N1f3xxSEZ0I-70">
          <mxGeometry x="15.884594705520215" y="47.76999999999998" width="34.614816334906635" height="34.614816334906635" as="geometry" />
        </mxCell>
        <mxCell id="Hm4XUHoT0N1f3xxSEZ0I-58" value="A" style="ellipse;whiteSpace=wrap;html=1;aspect=fixed;rounded=0;shadow=0;glass=0;labelBackgroundColor=none;sketch=0;fontFamily=Helvetica;fontSize=20;strokeColor=#d6b656;strokeWidth=3;fillColor=#fff2cc;" vertex="1" parent="Hm4XUHoT0N1f3xxSEZ0I-70">
          <mxGeometry x="56.808446542171" y="47.76999999999998" width="34.614816334906635" height="34.614816334906635" as="geometry" />
        </mxCell>
        <mxCell id="Hm4XUHoT0N1f3xxSEZ0I-69" value="" style="group" vertex="1" connectable="0" parent="Hm4XUHoT0N1f3xxSEZ0I-70">
          <mxGeometry x="16.349999999999966" y="109.15461538461534" width="277.8595895752104" height="34.61481633490666" as="geometry" />
        </mxCell>
        <mxCell id="Hm4XUHoT0N1f3xxSEZ0I-60" value="A" style="ellipse;whiteSpace=wrap;html=1;aspect=fixed;rounded=0;shadow=0;glass=0;labelBackgroundColor=none;sketch=0;fontFamily=Helvetica;fontSize=20;strokeColor=#d6b656;strokeWidth=3;fillColor=#fff2cc;" vertex="1" parent="Hm4XUHoT0N1f3xxSEZ0I-69">
          <mxGeometry x="40.9238518366509" width="34.614816334906635" height="34.614816334906635" as="geometry" />
        </mxCell>
        <mxCell id="Hm4XUHoT0N1f3xxSEZ0I-61" value="a" style="ellipse;whiteSpace=wrap;html=1;aspect=fixed;rounded=0;shadow=0;glass=0;labelBackgroundColor=none;sketch=0;fontFamily=Helvetica;fontSize=20;strokeColor=#b85450;strokeWidth=3;fillColor=#f8cecc;" vertex="1" parent="Hm4XUHoT0N1f3xxSEZ0I-69">
          <mxGeometry width="34.614816334906635" height="34.614816334906635" as="geometry" />
        </mxCell>
        <mxCell id="Hm4XUHoT0N1f3xxSEZ0I-63" value="A" style="ellipse;whiteSpace=wrap;html=1;aspect=fixed;rounded=0;shadow=0;glass=0;labelBackgroundColor=none;sketch=0;fontFamily=Helvetica;fontSize=20;strokeColor=#d6b656;strokeWidth=3;fillColor=#fff2cc;" vertex="1" parent="Hm4XUHoT0N1f3xxSEZ0I-69">
          <mxGeometry x="80.93905397085973" width="34.614816334906635" height="34.614816334906635" as="geometry" />
        </mxCell>
        <mxCell id="Hm4XUHoT0N1f3xxSEZ0I-64" value="b" style="ellipse;whiteSpace=wrap;html=1;aspect=fixed;rounded=0;shadow=0;glass=0;labelBackgroundColor=none;sketch=0;fontFamily=Helvetica;fontSize=20;strokeColor=#666666;strokeWidth=3;fillColor=#f5f5f5;fontColor=#333333;" vertex="1" parent="Hm4XUHoT0N1f3xxSEZ0I-69">
          <mxGeometry x="122.22636568848759" width="34.614816334906635" height="34.614816334906635" as="geometry" />
        </mxCell>
        <mxCell id="Hm4XUHoT0N1f3xxSEZ0I-65" value="b" style="ellipse;whiteSpace=wrap;html=1;aspect=fixed;rounded=0;shadow=0;glass=0;labelBackgroundColor=none;sketch=0;fontFamily=Helvetica;fontSize=20;strokeColor=#666666;strokeWidth=3;fillColor=#f5f5f5;fontColor=#333333;" vertex="1" parent="Hm4XUHoT0N1f3xxSEZ0I-69">
          <mxGeometry x="162.03387646213832" width="34.614816334906635" height="34.614816334906635" as="geometry" />
        </mxCell>
        <mxCell id="Hm4XUHoT0N1f3xxSEZ0I-66" value="b" style="ellipse;whiteSpace=wrap;html=1;aspect=fixed;rounded=0;shadow=0;glass=0;labelBackgroundColor=none;sketch=0;fontFamily=Helvetica;fontSize=20;strokeColor=#666666;strokeWidth=3;fillColor=#f5f5f5;fontColor=#333333;" vertex="1" parent="Hm4XUHoT0N1f3xxSEZ0I-69">
          <mxGeometry x="202.62954648060747" width="34.614816334906635" height="34.614816334906635" as="geometry" />
        </mxCell>
        <mxCell id="Hm4XUHoT0N1f3xxSEZ0I-67" value="b" style="ellipse;whiteSpace=wrap;html=1;aspect=fixed;rounded=0;shadow=0;glass=0;labelBackgroundColor=none;sketch=0;fontFamily=Helvetica;fontSize=20;strokeColor=#666666;strokeWidth=3;fillColor=#f5f5f5;fontColor=#333333;" vertex="1" parent="Hm4XUHoT0N1f3xxSEZ0I-69">
          <mxGeometry x="243.24477324030374" width="34.614816334906635" height="34.614816334906635" as="geometry" />
        </mxCell>
        <mxCell id="Hm4XUHoT0N1f3xxSEZ0I-31" value="" style="rounded=0;whiteSpace=wrap;html=1;shadow=0;glass=0;labelBackgroundColor=none;sketch=0;fontFamily=Helvetica;fontSize=34;strokeColor=#FF2B2B;strokeWidth=3;fillColor=none;" vertex="1" parent="Hm4XUHoT0N1f3xxSEZ0I-70">
          <mxGeometry x="10" y="99.77" width="126.59" height="52.53" as="geometry" />
        </mxCell>
        <mxCell id="Hm4XUHoT0N1f3xxSEZ0I-72" value="" style="rounded=0;whiteSpace=wrap;html=1;shadow=0;glass=0;sketch=0;fontFamily=Helvetica;fontSize=24;strokeColor=#94CDFF;strokeWidth=4;" vertex="1" parent="1">
          <mxGeometry x="475.41" y="531" width="316.59" height="209" as="geometry" />
        </mxCell>
        <mxCell id="Hm4XUHoT0N1f3xxSEZ0I-73" value="나는 보석이 없구나.." style="text;html=1;resizable=0;autosize=1;align=center;verticalAlign=middle;points=[];fillColor=none;strokeColor=none;rounded=0;shadow=0;glass=0;labelBackgroundColor=none;sketch=0;fontFamily=Helvetica;fontSize=15;" vertex="1" parent="1">
          <mxGeometry x="612.6192857142858" y="679.9985714285714" width="150" height="20" as="geometry" />
        </mxCell>
        <mxCell id="Hm4XUHoT0N1f3xxSEZ0I-74" value="&lt;h2&gt;Example 2&lt;/h2&gt;" style="text;html=1;resizable=0;autosize=1;align=center;verticalAlign=middle;points=[];fillColor=none;strokeColor=none;rounded=0;shadow=0;glass=0;labelBackgroundColor=none;sketch=0;fontFamily=Helvetica;fontSize=13;" vertex="1" parent="1">
          <mxGeometry x="480.44" y="531" width="110" height="50" as="geometry" />
        </mxCell>
        <mxCell id="Hm4XUHoT0N1f3xxSEZ0I-75" value="&lt;h2&gt;Output: 0&lt;/h2&gt;" style="text;html=1;resizable=0;autosize=1;align=center;verticalAlign=middle;points=[];fillColor=none;strokeColor=none;rounded=0;shadow=0;glass=0;labelBackgroundColor=none;sketch=0;fontFamily=Helvetica;fontSize=13;" vertex="1" parent="1">
          <mxGeometry x="685.41" y="690" width="100" height="50" as="geometry" />
        </mxCell>
        <mxCell id="Hm4XUHoT0N1f3xxSEZ0I-76" value="얘가 보석이야!" style="text;html=1;resizable=0;autosize=1;align=center;verticalAlign=middle;points=[];fillColor=none;strokeColor=none;rounded=0;shadow=0;glass=0;labelBackgroundColor=none;sketch=0;fontFamily=Helvetica;fontSize=20;" vertex="1" parent="1">
          <mxGeometry x="567.3" y="587.31" width="150" height="30" as="geometry" />
        </mxCell>
        <mxCell id="Hm4XUHoT0N1f3xxSEZ0I-77" value="z" style="ellipse;whiteSpace=wrap;html=1;aspect=fixed;rounded=0;shadow=0;glass=0;labelBackgroundColor=none;sketch=0;fontFamily=Helvetica;fontSize=20;strokeColor=#9673a6;strokeWidth=3;fillColor=#e1d5e7;" vertex="1" parent="1">
          <mxGeometry x="502.0045947055202" y="585" width="34.614816334906635" height="34.614816334906635" as="geometry" />
        </mxCell>
        <mxCell id="Hm4XUHoT0N1f3xxSEZ0I-80" value="Z" style="ellipse;whiteSpace=wrap;html=1;aspect=fixed;rounded=0;shadow=0;glass=0;labelBackgroundColor=none;sketch=0;fontFamily=Helvetica;fontSize=20;strokeColor=#82b366;strokeWidth=3;fillColor=#d5e8d4;" vertex="1" parent="1">
          <mxGeometry x="532.6838518366509" y="640.1546153846153" width="34.614816334906635" height="34.614816334906635" as="geometry" />
        </mxCell>
        <mxCell id="Hm4XUHoT0N1f3xxSEZ0I-88" value="Z" style="ellipse;whiteSpace=wrap;html=1;aspect=fixed;rounded=0;shadow=0;glass=0;labelBackgroundColor=none;sketch=0;fontFamily=Helvetica;fontSize=20;strokeColor=#82b366;strokeWidth=3;fillColor=#d5e8d4;" vertex="1" parent="1">
          <mxGeometry x="578.0038518366509" y="640.1546153846153" width="34.614816334906635" height="34.614816334906635" as="geometry" />
        </mxCell>
        <mxCell id="Hm4XUHoT0N1f3xxSEZ0I-33" value="" style="shape=flexArrow;endArrow=classic;html=1;rounded=0;fontFamily=Helvetica;fontSize=24;endWidth=17.03125;endSize=5.675;fillColor=#fff2cc;strokeColor=#d6b656;width=13.75;" edge="1" parent="1">
          <mxGeometry width="50" height="50" relative="1" as="geometry">
            <mxPoint x="415.2325192307692" y="468.18067754077794" as="sourcePoint" />
            <mxPoint x="481.98290384615376" y="567.014052697616" as="targetPoint" />
          </mxGeometry>
        </mxCell>
      </root>
    </mxGraphModel>
  </diagram>
</mxfile>
